<svg width="696" height="468" viewBox="0 0 696 468" fill="none" xmlns="http://www.w3.org/2000/svg">
<g clip-path="url(#clip0_3294_56174)">
<path d="M202.6 234C175.77 234 154 255.73 154 282.11V379.89C154.005 386.214 155.257 392.476 157.682 398.317C160.108 404.159 163.661 409.464 168.138 413.932C172.615 418.4 177.928 421.942 183.775 424.355C189.621 426.769 195.885 428.007 202.21 428H299.79C306.144 427.996 312.435 426.736 318.302 424.294C324.168 421.852 329.494 418.275 333.974 413.768C338.453 409.261 341.999 403.914 344.406 398.033C346.813 392.152 348.034 385.854 348 379.5V379.11C347.966 372.755 349.187 366.457 351.594 360.576C354.001 354.695 357.547 349.348 362.026 344.841C366.506 340.335 371.832 336.757 377.698 334.315C383.565 331.873 389.856 330.613 396.21 330.61H493.79C500.115 330.617 506.379 329.379 512.225 326.965C518.072 324.552 523.385 321.01 527.862 316.542C532.339 312.074 535.892 306.769 538.318 300.927C540.743 295.086 541.995 288.824 542 282.5V281.72C541.983 275.365 540.711 269.077 538.256 263.215C535.802 257.354 532.214 252.035 527.698 247.565C523.182 243.095 517.827 239.56 511.941 237.166C506.055 234.771 499.754 233.562 493.4 233.61H493C480.127 233.615 467.779 228.51 458.668 219.416C449.557 210.322 444.429 197.983 444.41 185.11L444.8 137.39C444.664 111.768 434.417 87.2359 416.288 69.13C398.158 51.024 373.613 40.8087 347.991 40.7059C322.369 40.6031 297.743 50.6211 279.469 68.581C261.195 86.5408 250.751 110.99 250.41 136.61V185.5C251.19 212.66 229.42 234 202.6 234Z" fill="#00ED64"/>
<path d="M272.2 209.12C280.554 209.138 288.574 205.837 294.494 199.943C300.415 194.049 303.751 186.044 303.77 177.69C303.789 169.336 300.488 161.316 294.593 155.395C288.699 149.475 280.694 146.138 272.34 146.12C271.148 146.094 269.956 146.141 268.77 146.26H268.5L268.36 146.12C263.782 138.033 256.652 131.693 248.086 128.092C239.519 124.49 230.001 123.832 221.02 126.219C212.039 128.606 204.104 133.905 198.456 141.284C192.809 148.663 189.768 157.707 189.81 167V167.54H189.4C183.873 167.521 178.563 169.689 174.629 173.571C170.695 177.453 168.455 182.733 168.4 188.26V188.67H168.13C166.737 188.586 165.342 188.773 164.02 189.22C162.061 189.95 160.373 191.261 159.18 192.978C157.988 194.694 157.349 196.735 157.349 198.825C157.349 200.915 157.988 202.955 159.18 204.672C160.373 206.389 162.061 207.7 164.02 208.43C165.324 208.949 166.736 209.138 168.13 208.98L272.2 209.12Z" fill="black" stroke="black" stroke-miterlimit="10"/>
<path d="M272.2 196.63C280.346 196.504 288.117 193.184 293.839 187.385C299.562 181.586 302.779 173.771 302.797 165.624C302.815 157.477 299.634 149.649 293.938 143.824C288.241 137.999 280.486 134.644 272.34 134.48C271.148 134.457 269.956 134.504 268.77 134.62H268.36L268.22 134.48L268.09 134.21C263.533 126.201 256.453 119.925 247.955 116.363C239.456 112.8 230.018 112.15 221.111 114.515C212.205 116.879 204.332 122.126 198.72 129.435C193.108 136.744 190.074 145.705 190.09 154.92V155.75H189.27C183.856 155.766 178.668 157.926 174.841 161.756C171.015 165.586 168.861 170.776 168.85 176.19V177H168.16C166.151 176.897 164.157 177.405 162.443 178.459C160.729 179.512 159.375 181.061 158.56 182.9C158.021 184.133 157.743 185.465 157.743 186.81C157.743 188.156 158.021 189.487 158.56 190.72C159.133 191.951 159.923 193.068 160.89 194.02C161.84 194.985 163.021 195.691 164.32 196.07C165.6 196.533 166.963 196.721 168.32 196.62L272.2 196.63Z" fill="white" stroke="black" stroke-linecap="round" stroke-linejoin="round"/>
<path d="M481.8 343.16H162.94L212.29 190.59H531.29L481.8 343.16Z" fill="#E3FCF7" stroke="black" stroke-linecap="round" stroke-linejoin="round"/>
<path d="M454.93 318.74H204.48L240.39 207.61" stroke="black" stroke-linecap="round" stroke-linejoin="round"/>
<path d="M162.94 343.16L165.68 349.47H484.68L481.94 343.16H162.94Z" fill="black" stroke="black" stroke-linecap="round" stroke-linejoin="round"/>
<path d="M481.8 343.16L531.15 190.59L533.89 196.91L484.54 349.47L481.8 343.16Z" fill="white" stroke="black" stroke-linecap="round" stroke-linejoin="round"/>
<path d="M253.55 373.21H298.11" stroke="black" stroke-linecap="round" stroke-linejoin="round"/>
<path d="M327.74 373.21C327.74 375.176 327.157 377.097 326.065 378.732C324.972 380.367 323.42 381.641 321.604 382.393C319.787 383.145 317.789 383.342 315.861 382.959C313.933 382.575 312.161 381.628 310.771 380.238C309.381 378.848 308.434 377.077 308.051 375.149C307.667 373.221 307.864 371.222 308.617 369.406C309.369 367.589 310.643 366.037 312.277 364.945C313.912 363.853 315.834 363.27 317.8 363.27C319.106 363.266 320.401 363.52 321.608 364.018C322.816 364.516 323.914 365.248 324.837 366.172C325.761 367.096 326.493 368.193 326.991 369.401C327.489 370.609 327.744 371.903 327.74 373.21Z" fill="white" stroke="black" stroke-linecap="round" stroke-linejoin="round"/>
<path d="M317.67 383.15C318.976 383.153 320.269 382.898 321.476 382.399C322.682 381.9 323.778 381.168 324.701 380.244C325.624 379.32 326.355 378.224 326.853 377.016C327.35 375.809 327.604 374.516 327.6 373.21C327.63 370.704 326.667 368.288 324.92 366.49C325.238 367.491 325.416 368.531 325.45 369.58C325.454 370.886 325.2 372.179 324.702 373.386C324.205 374.594 323.474 375.69 322.551 376.614C321.628 377.538 320.532 378.27 319.326 378.769C318.119 379.268 316.826 379.523 315.52 379.52C314.135 379.515 312.767 379.226 311.498 378.673C310.228 378.119 309.086 377.312 308.14 376.3C308.839 378.279 310.126 379.996 311.83 381.221C313.534 382.445 315.572 383.119 317.67 383.15Z" fill="black"/>
<path d="M245.47 373.21H235.19" stroke="black" stroke-linecap="round" stroke-linejoin="round"/>
<path d="M499.62 330.13C497.925 324.355 494.404 319.285 489.585 315.679C484.766 312.073 478.909 310.126 472.89 310.13C468.011 310.155 463.223 311.447 458.993 313.878C454.763 316.309 451.237 319.797 448.76 324C447.946 323.884 447.123 323.837 446.3 323.86C440.731 323.86 435.389 326.072 431.451 330.011C427.513 333.949 425.3 339.29 425.3 344.86C425.3 350.429 427.513 355.771 431.451 359.709C435.389 363.647 440.731 365.86 446.3 365.86H499.35C501.695 365.864 504.017 365.404 506.183 364.508C508.35 363.611 510.318 362.295 511.974 360.635C513.63 358.975 514.941 357.005 515.833 354.836C516.725 352.668 517.179 350.345 517.17 348C517.235 345.663 516.827 343.336 515.972 341.16C515.117 338.984 513.832 337.002 512.194 335.334C510.556 333.666 508.598 332.345 506.437 331.451C504.277 330.557 501.958 330.107 499.62 330.13Z" fill="black" stroke="black" stroke-miterlimit="10"/>
<path d="M498.8 321.07C497.263 315.841 494.228 311.176 490.069 307.654C485.911 304.131 480.811 301.903 475.4 301.247C469.99 300.591 464.506 301.534 459.625 303.96C454.745 306.387 450.683 310.19 447.94 314.9C447.122 314.783 446.296 314.736 445.47 314.76C439.9 314.76 434.559 316.972 430.621 320.91C426.682 324.849 424.47 330.19 424.47 335.76C424.47 341.329 426.682 346.671 430.621 350.609C434.559 354.547 439.9 356.76 445.47 356.76H498.66C503.318 356.669 507.757 354.76 511.026 351.44C514.295 348.12 516.135 343.652 516.153 338.993C516.172 334.334 514.366 329.852 511.124 326.507C507.881 323.161 503.458 321.217 498.8 321.09V321.07Z" fill="white" stroke="black" stroke-miterlimit="10"/>
<path d="M256.43 261.53V264.53" stroke="black" stroke-linecap="round" stroke-linejoin="round"/>
<path d="M254.51 258.51V263" stroke="black" stroke-linecap="round" stroke-linejoin="round"/>
<path d="M508.87 190.46H503.32H502.63H493.17H490.48L492.2 198.64L500.91 202.94L509.73 196.06L508.87 190.46Z" fill="black"/>
<path d="M456.3 208.7C444.38 201.7 424.91 201.7 412.98 208.7C407.09 212.13 404.07 216.7 404.07 221.19L394.89 284.3C394.89 288.83 397.89 293.49 403.94 296.92C415.86 303.92 435.33 303.92 447.26 296.92C453.15 293.49 456.17 288.97 456.17 284.44L465.35 221.6C465.35 216.94 462.34 212.27 456.3 208.7Z" fill="black"/>
<path d="M374.19 296.93C380.08 293.5 383.1 288.93 383.1 284.44L389.68 248.91C389.82 244.24 386.8 239.58 380.63 236.15C368.71 229.15 349.24 229.15 337.31 236.15C331.42 239.58 328.4 244.1 328.4 248.63L321.69 284.3C321.69 288.83 324.69 293.5 330.69 296.93C342.8 303.79 362.26 303.79 374.19 296.93Z" fill="black"/>
<path d="M250.26 284.3C250.26 288.83 253.26 293.5 259.31 296.93C271.24 303.93 290.7 303.93 302.63 296.93C308.53 293.5 311.54 288.93 311.54 284.44L324.29 190.44H263L250.26 284.3Z" fill="black"/>
<path d="M311.4 276.89V284.3C311.4 288.83 308.4 293.36 302.49 296.79C290.57 303.79 271.24 303.79 259.18 296.79C253.18 293.36 250.13 288.69 250.13 284.17V276.76C250.13 281.28 253.13 285.95 259.18 289.38C271.1 296.38 290.57 296.38 302.49 289.38C308.53 286 311.4 281.42 311.4 276.89Z" fill="#00ED64" stroke="black" stroke-linecap="round" stroke-linejoin="round"/>
<path d="M311.4 269.35V276.76C311.4 281.28 308.4 285.81 302.49 289.24C290.57 296.24 271.24 296.24 259.18 289.24C253.18 285.81 250.13 281.15 250.13 276.62V269.21C250.13 273.74 253.13 278.4 259.18 281.83C271.1 288.83 290.57 288.83 302.49 281.83C308.53 278.4 311.4 273.88 311.4 269.35Z" fill="#00ED64" stroke="black" stroke-linecap="round" stroke-linejoin="round"/>
<path d="M311.4 261.8V269.21C311.4 273.74 308.4 278.27 302.49 281.7C290.57 288.7 271.24 288.7 259.18 281.7C253.18 278.27 250.13 273.6 250.13 269.07V261.66C250.13 266.19 253.13 270.86 259.18 274.29C271.1 281.29 290.57 281.29 302.49 274.29C308.53 270.86 311.4 266.33 311.4 261.8Z" fill="#00ED64" stroke="black" stroke-linecap="round" stroke-linejoin="round"/>
<path d="M311.4 254.26V261.66C311.4 266.19 308.4 270.72 302.49 274.15C290.57 281.15 271.24 281.15 259.18 274.15C253.18 270.72 250.13 266.06 250.13 261.53V254.12C250.13 258.65 253.13 263.31 259.18 266.74C271.1 273.74 290.57 273.74 302.49 266.74C308.53 263.31 311.4 258.78 311.4 254.26Z" fill="#00ED64" stroke="black" stroke-linecap="round" stroke-linejoin="round"/>
<path d="M311.4 246.71V254.12C311.4 258.65 308.4 263.17 302.49 266.6C290.57 273.6 271.24 273.6 259.18 266.6C253.18 263.17 250.13 258.51 250.13 253.98V246.57C250.13 251.1 253.13 255.76 259.18 259.19C271.1 266.19 290.57 266.19 302.49 259.19C308.53 255.76 311.4 251.24 311.4 246.71Z" fill="#00ED64" stroke="black" stroke-linecap="round" stroke-linejoin="round"/>
<path d="M311.4 239.16V246.57C311.4 251.1 308.4 255.63 302.49 259.06C290.57 266.06 271.24 266.06 259.18 259.06C253.18 255.63 250.13 250.96 250.13 246.44V239C250.13 243.52 253.13 248.19 259.18 251.62C271.1 258.62 290.57 258.62 302.49 251.62C308.53 248.22 311.4 243.69 311.4 239.16Z" fill="#00ED64" stroke="black" stroke-linecap="round" stroke-linejoin="round"/>
<path d="M311.4 231.62V239C311.4 243.53 308.4 248.06 302.49 251.49C290.57 258.49 271.24 258.49 259.18 251.49C253.18 248.06 250.13 243.4 250.13 238.87V231.46C250.13 235.99 253.13 240.65 259.18 244.08C271.1 251.08 290.57 251.08 302.49 244.08C308.53 240.67 311.4 236.14 311.4 231.62Z" fill="#00ED64" stroke="black" stroke-linecap="round" stroke-linejoin="round"/>
<path d="M311.4 224.07V231.48C311.4 236.01 308.4 240.54 302.49 243.97C290.57 250.97 271.24 250.97 259.18 243.97C253.18 240.54 250.13 235.87 250.13 231.34V223.93C250.13 228.46 253.13 233.13 259.18 236.56C271.1 243.56 290.57 243.56 302.49 236.56C308.53 233.13 311.4 228.6 311.4 224.07Z" fill="#00ED64" stroke="black" stroke-linecap="round" stroke-linejoin="round"/>
<path d="M311.4 216.53V223.94C311.4 228.46 308.4 232.99 302.49 236.42C290.57 243.42 271.24 243.42 259.18 236.42C253.18 232.99 250.13 228.33 250.13 223.8V216.39C250.13 220.92 253.13 225.58 259.18 229.01C271.1 236.01 290.57 236.01 302.49 229.01C308.53 225.58 311.4 221.05 311.4 216.53Z" fill="#00ED64" stroke="black" stroke-linecap="round" stroke-linejoin="round"/>
<path d="M311.4 209V216.41C311.4 220.94 308.4 225.46 302.49 228.89C290.57 235.89 271.24 235.89 259.18 228.89C253.18 225.46 250.13 220.8 250.13 216.27V208.86C250.13 213.39 253.13 218.05 259.18 221.48C271.1 228.48 290.57 228.48 302.49 221.48C308.53 218 311.4 213.51 311.4 209Z" fill="#00ED64" stroke="black" stroke-linecap="round" stroke-linejoin="round"/>
<path d="M311.4 201.43V208.84C311.4 213.37 308.4 217.9 302.49 221.33C290.57 228.33 271.24 228.33 259.18 221.33C253.18 217.9 250.13 213.23 250.13 208.71V201.3C250.13 205.82 253.13 210.49 259.18 213.92C271.1 220.92 290.57 220.92 302.49 213.92C308.53 210.49 311.4 206 311.4 201.43Z" fill="#00ED64" stroke="black" stroke-linecap="round" stroke-linejoin="round"/>
<path d="M311.4 193.89V201.3C311.4 205.82 308.4 210.3 302.49 213.78C290.57 220.78 271.24 220.78 259.18 213.78C253.18 210.35 250.13 205.69 250.13 201.16V193.75C250.13 198.28 253.13 202.94 259.18 206.37C271.1 213.37 290.57 213.37 302.49 206.37C308.53 202.94 311.4 198.41 311.4 193.89Z" fill="#00ED64" stroke="black" stroke-linecap="round" stroke-linejoin="round"/>
<path d="M311.4 186.34V193.75C311.4 198.28 308.4 202.81 302.49 206.24C290.57 213.24 271.24 213.24 259.18 206.24C253.18 202.81 250.13 198.14 250.13 193.61V186.2C250.13 190.73 253.13 195.4 259.18 198.83C271.1 205.83 290.57 205.83 302.49 198.83C308.53 195.4 311.4 190.87 311.4 186.34Z" fill="#00ED64" stroke="black" stroke-linecap="round" stroke-linejoin="round"/>
<path d="M311.4 178.8V186.2C311.4 190.73 308.4 195.26 302.49 198.69C290.57 205.69 271.24 205.69 259.18 198.69C253.18 195.26 250.13 190.59 250.13 186.07V178.66C250.13 183.19 253.13 187.85 259.18 191.28C271.1 198.28 290.57 198.28 302.49 191.28C308.53 187.85 311.4 183.32 311.4 178.8Z" fill="#00ED64" stroke="black" stroke-linecap="round" stroke-linejoin="round"/>
<path d="M302.36 166.17C314.28 173.17 314.42 184.28 302.49 191.28C290.56 198.28 271.24 198.28 259.18 191.28C247.12 184.28 247.11 173.17 259.04 166.17C270.97 159.17 290.43 159.31 302.36 166.17ZM264.8 188.17C273.71 193.39 288.24 193.39 297.01 188.17C305.78 182.95 305.78 174.59 296.87 169.51C287.96 164.43 273.43 164.3 264.66 169.51C255.89 174.72 255.89 182.91 264.8 188.12V188.17Z" fill="white" stroke="black" stroke-linecap="round" stroke-linejoin="round"/>
<path d="M296.87 169.46C305.78 174.68 305.92 183.05 297.01 188.12C288.1 193.34 273.71 193.34 264.8 188.12C255.89 182.9 255.75 174.54 264.66 169.46C273.57 164.38 288 164.25 296.87 169.46Z" fill="#00ED64" stroke="black" stroke-linecap="round" stroke-linejoin="round"/>
<path d="M297.7 153.69C305.78 157.39 305.1 161.23 296.19 162.05C287.28 162.87 273.57 160.55 265.48 156.84C257.39 153.13 258.08 149.29 266.99 148.47C275.9 147.65 289.61 150 297.7 153.69Z" fill="#00ED64" stroke="black" stroke-linecap="round" stroke-linejoin="round"/>
<path d="M311.82 160.41L310.31 169.05C309.9 171.11 306.61 172.76 300.44 173.44C288.1 174.68 268.91 171.39 257.8 166.17C252.18 163.56 249.72 160.96 249.99 158.9L251.5 150.26C251.09 152.31 253.69 154.92 259.31 157.53C270.55 162.74 289.61 166.03 301.95 164.8C308.11 164.11 311.4 162.47 311.82 160.41Z" fill="#00ED64" stroke="black" stroke-linecap="round" stroke-linejoin="round"/>
<path d="M304 153.14C315.24 158.35 314.28 163.56 301.95 164.8C289.62 166.04 270.42 162.74 259.31 157.53C248.2 152.32 249 147.1 261.37 145.86C273.74 144.62 292.76 147.79 304 153.14ZM265.48 156.84C273.57 160.55 287.28 162.84 296.19 162.05C305.1 161.26 305.78 157.39 297.7 153.68C289.62 149.97 275.9 147.68 266.99 148.47C258.08 149.26 257.39 153.14 265.48 156.84Z" fill="white" stroke="black" stroke-linecap="round" stroke-linejoin="round"/>
<path d="M455.34 276.9V284.3C455.34 288.83 452.34 293.36 446.43 296.79C434.51 303.79 415.18 303.79 403.11 296.79C397.11 293.36 394.11 288.7 394.11 284.17V276.76C394.11 281.29 397.11 285.95 403.11 289.38C415.04 296.38 434.51 296.38 446.43 289.38C452.33 286 455.34 281.42 455.34 276.9Z" fill="#B1FF05" stroke="black" stroke-linecap="round" stroke-linejoin="round"/>
<path d="M455.34 269.35V276.76C455.34 281.29 452.34 285.81 446.43 289.24C434.51 296.24 415.18 296.24 403.11 289.24C397.11 285.81 394.11 281.15 394.11 276.62V269.21C394.11 273.74 397.11 278.4 403.11 281.83C415.04 288.83 434.51 288.83 446.43 281.83C452.33 278.4 455.34 273.88 455.34 269.35Z" fill="#B1FF05" stroke="black" stroke-linecap="round" stroke-linejoin="round"/>
<path d="M455.34 261.8V269.21C455.34 273.74 452.34 278.27 446.43 281.7C434.51 288.7 415.18 288.7 403.11 281.7C397.11 278.27 394.11 273.6 394.11 269.07V261.66C394.11 266.19 397.11 270.86 403.11 274.29C415.04 281.29 434.51 281.29 446.43 274.29C452.33 270.86 455.34 266.33 455.34 261.8Z" fill="#B1FF05" stroke="black" stroke-linecap="round" stroke-linejoin="round"/>
<path d="M455.34 254.26V261.66C455.34 266.19 452.34 270.72 446.43 274.15C434.51 281.15 415.18 281.15 403.11 274.15C397.11 270.72 394.11 266.06 394.11 261.53V254.12C394.11 258.65 397.11 263.31 403.11 266.74C415.04 273.74 434.51 273.74 446.43 266.74C452.33 263.31 455.34 258.78 455.34 254.26Z" fill="#B1FF05" stroke="black" stroke-linecap="round" stroke-linejoin="round"/>
<path d="M455.34 246.71V254.12C455.34 258.65 452.34 263.17 446.43 266.6C434.51 273.6 415.18 273.6 403.11 266.6C397.11 263.17 394.11 258.51 394.11 253.98V246.57C394.11 251.1 397.11 255.77 403.11 259.2C415.04 266.2 434.51 266.2 446.43 259.2C452.33 255.77 455.34 251.24 455.34 246.71Z" fill="#B1FF05" stroke="black" stroke-linecap="round" stroke-linejoin="round"/>
<path d="M455.34 239.17V246.57C455.34 251.1 452.34 255.63 446.43 259.06C434.51 266.06 415.18 266.06 403.11 259.06C397.11 255.63 394.11 250.97 394.11 246.44V239C394.11 243.53 397.11 248.19 403.11 251.62C415.04 258.62 434.51 258.62 446.43 251.62C452.33 248.22 455.34 243.69 455.34 239.17Z" fill="#B1FF05" stroke="black" stroke-linecap="round" stroke-linejoin="round"/>
<path d="M455.34 231.62V239C455.34 243.52 452.34 248.05 446.43 251.48C434.51 258.48 415.18 258.48 403.11 251.48C397.11 248.05 394.11 243.39 394.11 238.86V231.45C394.11 235.98 397.11 240.64 403.11 244.07C415.04 251.07 434.51 251.07 446.43 244.07C452.33 240.67 455.34 236.15 455.34 231.62Z" fill="#B1FF05" stroke="black" stroke-linecap="round" stroke-linejoin="round"/>
<path d="M455.34 224.07V231.48C455.34 236.01 452.34 240.54 446.43 243.97C434.51 250.97 415.18 250.97 403.11 243.97C397.11 240.54 394.11 235.87 394.11 231.34V223.93C394.11 228.46 397.11 233.13 403.11 236.56C415.04 243.56 434.51 243.56 446.43 236.56C452.33 233.13 455.34 228.6 455.34 224.07Z" fill="#B1FF05" stroke="black" stroke-linecap="round" stroke-linejoin="round"/>
<path d="M455.34 216.53V223.93C455.34 228.46 452.34 232.99 446.43 236.42C434.51 243.42 415.18 243.42 403.11 236.42C397.11 232.99 394.11 228.32 394.11 223.8V216.39C394.11 220.92 397.11 225.58 403.11 229.01C415.04 236.01 434.51 236.01 446.43 229.01C452.33 225.58 455.34 221.05 455.34 216.53Z" fill="#B1FF05" stroke="black" stroke-linecap="round" stroke-linejoin="round"/>
<path d="M455.34 209V216.41C455.34 220.94 452.34 225.46 446.43 228.89C434.51 235.89 415.18 235.89 403.11 228.89C397.11 225.46 394.11 220.8 394.11 216.27V208.86C394.11 213.39 397.11 218.06 403.11 221.49C415.04 228.49 434.51 228.49 446.43 221.49C452.33 218 455.34 213.51 455.34 209Z" fill="#B1FF05" stroke="black" stroke-linecap="round" stroke-linejoin="round"/>
<path d="M455.34 201.44V208.84C455.34 213.37 452.34 217.9 446.43 221.33C434.51 228.33 415.18 228.33 403.11 221.33C397.11 217.9 394.11 213.23 394.11 208.71V201.3C394.11 205.83 397.11 210.49 403.11 213.92C415.04 220.92 434.51 220.92 446.43 213.92C452.33 210.49 455.34 206 455.34 201.44Z" fill="#B1FF05" stroke="black" stroke-linecap="round" stroke-linejoin="round"/>
<path d="M446.3 188.81C458.22 195.81 458.36 206.92 446.43 213.92C434.5 220.92 415.18 220.92 403.11 213.92C391.04 206.92 391.05 195.81 402.98 188.81C414.91 181.81 434.23 182 446.3 188.81ZM408.6 210.76C417.51 215.98 432.04 215.98 440.81 210.76C449.58 205.54 449.59 197.18 440.68 192.1C431.77 187.02 417.23 186.89 408.46 192.1C399.69 197.31 399.69 205.55 408.6 210.76Z" fill="white" stroke="black" stroke-linecap="round" stroke-linejoin="round"/>
<path d="M440.81 192C449.72 197.21 449.86 205.58 440.95 210.66C432.04 215.74 417.65 215.87 408.73 210.66C399.81 205.45 399.73 197.07 408.6 192C417.47 186.93 431.9 186.89 440.81 192Z" fill="#B1FF05" stroke="black" stroke-linecap="round" stroke-linejoin="round"/>
<path d="M431.49 150.26C444.93 145.18 450.82 147.38 444.65 155.34C438.48 163.3 422.72 173.86 409.42 179.07C396.12 184.28 390.09 182 396.26 174C402.43 166 418.19 155.34 431.49 150.26ZM412.57 175C422.17 171.3 433.57 163.75 437.93 158C442.29 152.25 438.07 150.73 428.48 154.3C418.89 157.87 407.48 165.55 403.11 171.3C398.74 177.05 403 178.66 412.57 175Z" fill="white" stroke="black" stroke-linecap="round" stroke-linejoin="round"/>
<path d="M428.48 154.24C438.07 150.53 442.32 152.18 437.93 157.94C433.54 163.7 422.17 171.25 412.57 174.94C402.97 178.63 398.73 177 403.11 171.38C407.49 165.76 418.74 157.94 428.48 154.24Z" fill="#B1FF05" stroke="black" stroke-linecap="round" stroke-linejoin="round"/>
<path d="M446.84 148.89L451.37 156.43C452.19 157.67 451.51 159.86 449.31 162.74C443.31 170.74 427.38 181.27 414.08 186.48C405.58 189.77 400.08 190.05 398.73 187.71L394.2 180.17C395.57 182.36 401.06 182.09 409.56 178.93C422.99 173.86 438.76 163.15 444.79 155.2C447 152.45 447.53 150.26 446.84 148.89Z" fill="#B1FF05" stroke="black" stroke-linecap="round" stroke-linejoin="round"/>
<path d="M423.54 144.08V117.19" stroke="black" stroke-linecap="round" stroke-linejoin="round"/>
<path d="M337 107.31L330.42 111.84C326.86 114.31 331.79 127.84 341.52 142.3C351.25 156.76 362.09 166.3 365.65 163.84L372.23 159.45L337 107.31Z" fill="#00D2FF" stroke="black" stroke-linecap="round" stroke-linejoin="round"/>
<path d="M348.14 137.77C357.88 152.04 368.71 161.77 372.27 159.31C375.83 156.85 370.9 143.26 361.17 128.85C351.44 114.44 340.6 104.85 337.04 107.31C333.48 109.77 338.41 123.5 348.14 137.77Z" fill="white" stroke="black" stroke-linecap="round" stroke-linejoin="round"/>
<path d="M350.61 136.12C357.61 146.41 365.14 153.41 367.61 151.76C370.08 150.11 366.24 140.51 359.25 130.22C352.26 119.93 344.72 112.94 342.25 114.58C339.78 116.22 343.62 125.83 350.61 136.12Z" fill="#00D2FF" stroke="black" stroke-linecap="round" stroke-linejoin="round"/>
<path d="M383.1 276.89V284.3C383.1 288.83 380.1 293.36 374.19 296.79C362.26 303.79 342.93 303.79 330.87 296.79C324.87 293.36 321.82 288.69 321.82 284.17V276.76C321.82 281.28 324.82 285.95 330.87 289.38C342.8 296.38 362.26 296.38 374.19 289.38C380.08 286 383.1 281.42 383.1 276.89Z" fill="#00D2FF" stroke="black" stroke-linecap="round" stroke-linejoin="round"/>
<path d="M383.1 269.35V276.76C383.1 281.28 380.1 285.81 374.19 289.24C362.26 296.24 342.93 296.24 330.87 289.24C324.87 285.81 321.82 281.15 321.82 276.62V269.21C321.82 273.74 324.82 278.4 330.87 281.83C342.8 288.83 362.26 288.83 374.19 281.83C380.08 278.4 383.1 273.88 383.1 269.35Z" fill="#00D2FF" stroke="black" stroke-linecap="round" stroke-linejoin="round"/>
<path d="M383.1 261.8V269.21C383.1 273.74 380.1 278.26 374.19 281.69C362.26 288.69 342.93 288.69 330.87 281.69C324.87 278.26 321.82 273.6 321.82 269.07V261.66C321.82 266.19 324.82 270.85 330.87 274.28C342.8 281.28 362.26 281.28 374.19 274.28C380.08 270.85 383.1 266.33 383.1 261.8Z" fill="#00D2FF" stroke="black" stroke-linecap="round" stroke-linejoin="round"/>
<path d="M383.1 254.26V261.66C383.1 266.19 380.1 270.72 374.19 274.15C362.26 281.15 342.93 281.15 330.87 274.15C324.87 270.72 321.82 266.06 321.82 261.53V254.12C321.82 258.65 324.82 263.31 330.87 266.74C342.8 273.74 362.26 273.74 374.19 266.74C380.08 263.31 383.1 258.78 383.1 254.26Z" fill="#00D2FF" stroke="black" stroke-linecap="round" stroke-linejoin="round"/>
<path d="M383.1 246.71V254.12C383.1 258.65 380.1 263.17 374.19 266.6C362.26 273.6 342.93 273.6 330.87 266.6C324.87 263.17 321.82 258.51 321.82 253.98V246.57C321.82 251.1 324.82 255.76 330.87 259.19C342.8 266.19 362.26 266.19 374.19 259.19C380.08 255.76 383.1 251.24 383.1 246.71Z" fill="#00D2FF" stroke="black" stroke-linecap="round" stroke-linejoin="round"/>
<path d="M383.1 239.16V246.57C383.1 251.1 380.1 255.63 374.19 259.06C362.26 266.06 342.93 266.06 330.87 259.06C324.87 255.63 321.82 250.96 321.82 246.44V239C321.82 243.52 324.82 248.19 330.87 251.62C342.8 258.62 362.26 258.62 374.19 251.62C380.08 248.22 383.1 243.69 383.1 239.16Z" fill="#00D2FF" stroke="black" stroke-linecap="round" stroke-linejoin="round"/>
<path d="M383.1 231.62V239C383.1 243.53 380.1 248.06 374.19 251.49C362.26 258.49 342.93 258.49 330.87 251.49C324.87 248.06 321.82 243.4 321.82 238.87V231.46C321.82 235.99 324.82 240.65 330.87 244.08C342.8 251.08 362.26 251.08 374.19 244.08C380.08 240.67 383.1 236.14 383.1 231.62Z" fill="#00D2FF" stroke="black" stroke-linecap="round" stroke-linejoin="round"/>
<path d="M374.05 219C385.98 226 386.12 237.11 374.19 244.11C362.26 251.11 342.93 251.11 330.87 244.11C318.81 237.11 318.81 226 330.73 219C342.65 212 362 212.13 374.05 219ZM336.35 240.95C345.26 246.17 359.8 246.17 368.57 240.95C377.34 235.73 377.34 227.37 368.43 222.29C359.52 217.21 344.99 217.08 336.22 222.29C327.45 227.5 327.44 235.73 336.35 240.94V240.95Z" fill="white" stroke="black" stroke-linecap="round" stroke-linejoin="round"/>
<path d="M368.57 222.15C377.48 227.36 377.62 235.73 368.71 240.81C359.8 245.89 345.4 246.02 336.49 240.81C327.58 235.6 327.44 227.22 336.35 222.15C345.26 217.08 359.52 217.07 368.57 222.15Z" fill="#00D2FF" stroke="black" stroke-linecap="round" stroke-linejoin="round"/>
<path d="M369.39 187.16C382.28 188.81 384.2 195.67 373.78 202.67C363.36 209.67 344.44 214.05 331.56 212.41C318.68 210.77 316.75 203.899 327.17 196.899C337.59 189.899 356.64 185.65 369.39 187.16ZM337 208.84C346.18 209.94 359.76 206.78 367.3 201.84C374.84 196.9 373.3 191.84 364.14 190.73C354.98 189.62 341.39 192.79 333.85 197.73C326.31 202.67 327.72 207.74 337 208.84Z" fill="white" stroke="black" stroke-linecap="round" stroke-linejoin="round"/>
<path d="M364.05 190.73C373.23 191.83 374.74 196.9 367.2 201.84C359.66 206.78 346.09 209.94 336.9 208.84C327.71 207.74 326.21 202.66 333.75 197.73C341.29 192.8 354.86 189.63 364.05 190.73Z" fill="#00D2FF" stroke="black" stroke-linecap="round" stroke-linejoin="round"/>
<path d="M380.36 193.2L382.14 201.43C382.83 204.17 380.63 207.6 375.56 211.03C365.14 218.03 346.22 222.42 333.34 220.78C326.76 219.95 323.06 217.78 322.34 214.88L320.56 206.64C321.24 209.52 324.95 211.86 331.56 212.54C344.44 214.19 363.36 209.8 373.78 202.8C378.85 199.23 381 195.94 380.36 193.2Z" fill="#00D2FF" stroke="black" stroke-linecap="round" stroke-linejoin="round"/>
<path d="M375.15 211.17L374.15 206.64L375.15 211.17Z" fill="#00D5FF"/>
<path d="M371.72 208.7L370.72 204.59L371.72 208.7Z" fill="#00D5FF"/>
<path d="M353.35 106.9V88.79" stroke="black" stroke-linecap="round" stroke-linejoin="round"/>
<path d="M353.35 80.8304V73.1504" stroke="black" stroke-linecap="round" stroke-linejoin="round"/>
<path d="M485.19 152.19L486.79 162.19L495.56 155.66L494 145.8L485.19 152.19Z" fill="black" stroke="black" stroke-linejoin="round"/>
<path d="M485.22 152.34L474.85 148.86L483.62 142.32L494 145.8L485.22 152.34Z" fill="white" stroke="black" stroke-linejoin="round"/>
<path d="M474.85 148.86L476.42 158.72L486.79 162.2L485.19 152.2L474.85 148.86Z" fill="white" stroke="black" stroke-linejoin="round"/>
</g>
<defs>
<clipPath id="clip0_3294_56174">
<rect width="388" height="388" fill="white" transform="translate(154 40)"/>
</clipPath>
</defs>
</svg>
