<?xml version="1.0" encoding="utf-8"?>
<svg xmlns="http://www.w3.org/2000/svg" width="698" height="468" viewBox="0 0 698 468" fill="none">
<path d="M562.163 91.4336H275.233C248.404 91.4336 226.655 113.199 226.655 140.048V323.454C226.655 350.303 248.404 372.069 275.233 372.069H562.163C588.992 372.069 610.74 350.303 610.74 323.454V140.048C610.74 113.199 588.992 91.4336 562.163 91.4336Z" fill="black"/>
<path d="M610.68 128.085C609.597 99.2443 585.9 76.1982 556.818 76.1982H280.567C251.486 76.1982 227.789 99.2443 226.706 128.085H226.655V302.88C226.655 332.683 250.797 356.833 280.567 356.833H556.818C586.599 356.833 610.73 332.673 610.73 302.88V128.085H610.68Z" fill="#E3FCF7" stroke="black" stroke-miterlimit="10"/>
<mask id="mask0_5475_7688" style="mask-type:luminance" maskUnits="userSpaceOnUse" x="226" y="76" width="385" height="281">
<path d="M610.68 128.085C609.597 99.2443 585.9 76.1982 556.818 76.1982H280.567C251.486 76.1982 227.789 99.2443 226.706 128.085H226.655V302.88C226.655 332.683 250.797 356.833 280.567 356.833H556.818C586.599 356.833 610.73 332.673 610.73 302.88V128.085H610.68Z" fill="white"/>
</mask>
<g mask="url(#mask0_5475_7688)">
<path d="M437.495 171.31H399.891V356.833H437.495V171.31Z" fill="#006CF8" stroke="black" stroke-miterlimit="10"/>
<path d="M505.488 223.854H467.883V356.833H505.488V223.854Z" fill="#006CF8" stroke="black" stroke-miterlimit="10"/>
<path d="M573.469 192.653H535.864V356.842H573.469V192.653Z" fill="#006CF8" stroke="black" stroke-miterlimit="10"/>
<path d="M369.513 264.416H331.908V356.833H369.513V264.416Z" fill="#006CF8" stroke="black" stroke-miterlimit="10"/>
<path d="M301.531 127.233H263.926V356.833H301.531V127.233Z" fill="#006CF8" stroke="black" stroke-miterlimit="10"/>
</g>
<mask id="mask1_5475_7688" style="mask-type:luminance" maskUnits="userSpaceOnUse" x="226" y="76" width="385" height="281">
<path d="M610.68 128.085C609.597 99.2443 585.9 76.1982 556.818 76.1982H280.567C251.486 76.1982 227.789 99.2443 226.706 128.085H226.655V302.88C226.655 332.683 250.797 356.833 280.567 356.833H556.818C586.599 356.833 610.73 332.673 610.73 302.88V128.085H610.68Z" fill="white"/>
</mask>
<g mask="url(#mask1_5475_7688)">
<path d="M606.934 170.277L596.113 193.516L625.458 192.695L637.109 169.437L606.934 170.277Z" fill="black"/>
<path d="M637.109 169.376L624.183 146.806L594.848 147.616L584.361 170.905L596.114 193.516L606.924 170.216L637.109 169.376Z" fill="black"/>
</g>
<path d="M656.493 268.64V308.441" stroke="black" stroke-miterlimit="10"/>
<path d="M656.493 150.715V246.06" stroke="black" stroke-miterlimit="10"/>
<path d="M640.662 189.625V324.285C640.662 367.348 605.649 402.388 562.618 402.388H498.148" stroke="black" stroke-miterlimit="10"/>
<path d="M562.861 70.3232L550.593 94.7976L519.729 95.6486L531.107 71.2046L562.861 70.3232Z" fill="black" stroke="black" stroke-linejoin="round"/>
<path d="M562.861 70.262L549.257 46.5068L518.394 47.3578L531.107 71.1433L562.861 70.262Z" fill="white" stroke="black" stroke-linejoin="round"/>
<path d="M507.36 71.8622L519.73 95.6477L531.108 71.143L518.394 47.3574L507.36 71.8622Z" fill="white" stroke="black" stroke-linejoin="round"/>
<path d="M258.794 368.675C295.458 378.056 295.873 392.947 259.209 402.317C222.546 411.688 163.158 411.698 126.079 402.317C89.4461 392.947 89.0311 378.056 125.664 368.675C162.317 359.528 221.716 359.528 258.794 368.675Z" fill="black"/>
<path d="M122.314 239.921C122.314 239.921 71.1651 257.922 72.1976 332.085C73.23 406.247 131.009 401.78 173.665 401.78C216.321 401.78 267.064 400.19 267.419 332.085C267.763 263.869 233.944 247.873 227.03 239.921" fill="#00ED64"/>
<path d="M122.314 239.921C122.314 239.921 71.1651 257.922 72.1976 332.085C73.23 406.247 131.009 401.78 173.665 401.78C216.321 401.78 267.064 400.19 267.419 332.085C267.763 263.869 233.944 247.873 227.03 239.921" stroke="black" stroke-miterlimit="10"/>
<path d="M176.114 285.81C187.006 287.157 194.011 294.187 195.114 305.097C195.215 306.283 194.325 307.326 193.14 307.427C193.07 307.427 192.999 307.427 192.928 307.427H192.594C191.46 307.407 190.519 306.536 190.417 305.401C189.314 295.545 182.998 289.892 171.883 289.892C160.769 289.892 153.511 295.565 153.511 305.077C153.511 317.152 165.253 319.503 173.159 321.285C184.142 323.848 196.754 327.485 196.754 342.549C196.754 354.826 188.464 361.705 176.135 363.011C175.011 363.113 174.141 364.055 174.12 365.189V371.673C174.12 372.878 173.139 373.851 171.934 373.861C170.719 373.861 169.737 372.888 169.737 371.673V365.179C169.737 364.055 168.877 363.113 167.753 363.001C154.989 361.532 146.932 353.185 145.929 341.688C145.808 340.462 146.709 339.368 147.934 339.256C147.994 339.256 148.055 339.256 148.116 339.246H148.44C149.614 339.297 150.545 340.239 150.586 341.404C151.507 351.737 159.362 358.959 172.481 358.959C184.435 358.959 192.027 352.972 192.027 342.751C192.027 331.213 182.421 328.539 173.027 326.3C160.961 323.413 148.733 320.1 148.733 305.361C148.733 294.289 155.485 287.461 167.693 285.901C168.796 285.779 169.636 284.847 169.646 283.743V277.138C169.646 275.923 170.638 274.95 171.843 274.95C173.047 274.95 174.019 275.933 174.029 277.138V283.652C174.05 284.807 174.961 285.749 176.104 285.81H176.114Z" fill="black" stroke="black" stroke-linecap="round" stroke-linejoin="round"/>
<path d="M220.167 242.453C220.167 242.453 225.269 242.585 229.116 242.453C239.147 249.149 250.454 261.883 257.205 276.338C263.916 290.703 288.767 378.146 226.615 396.36C226.615 396.36 260.475 383.941 247.974 294.917C243.682 264.324 220.157 242.453 220.157 242.453H220.167Z" fill="black"/>
<path d="M120.37 236.416L110.49 211.252C109.691 209.226 111.675 207.2 113.709 207.97C118.76 209.895 121.848 214.16 137.821 214.16C155.151 214.16 154.847 205.488 173.29 205.549C191.531 205.62 190.417 214.514 206.714 214.717C219.975 214.879 225.026 210.158 229.783 208.041C231.676 207.2 233.701 208.882 233.245 210.898L227.121 237.662" fill="#00ED64"/>
<path d="M120.37 236.416L110.49 211.252C109.691 209.226 111.675 207.2 113.709 207.97C118.76 209.895 121.848 214.16 137.821 214.16C155.151 214.16 154.847 205.488 173.29 205.549C191.531 205.62 190.417 214.514 206.714 214.717C219.975 214.879 225.026 210.158 229.783 208.041C231.676 207.2 233.701 208.882 233.245 210.898L227.121 237.662" stroke="black" stroke-width="1.04" stroke-linecap="round" stroke-linejoin="round"/>
<path d="M227.577 236.111H119.003C117.343 236.111 115.997 237.458 115.997 239.12V239.454C115.997 241.116 117.343 242.463 119.003 242.463H227.577C229.237 242.463 230.583 241.116 230.583 239.454V239.12C230.583 237.458 229.237 236.111 227.577 236.111Z" fill="#B2FD34" stroke="black" stroke-width="1.04" stroke-linecap="round" stroke-linejoin="round"/>
<path d="M85.7211 282.265L74.6168 285.223C70.6893 286.266 67.6222 289.336 66.5695 293.276L63.6137 304.389L60.6377 293.226C60.4049 292.324 60.0506 291.473 59.6154 290.683C58.4007 288.475 56.4774 286.732 54.1391 285.75C53.6634 285.547 53.1674 285.375 52.6613 285.243L41.5063 282.265L52.641 279.297C55.6372 278.496 58.1274 276.511 59.6052 273.867C60.0506 273.057 60.4049 272.195 60.6478 271.274L63.6137 260.141L66.61 271.385C67.1566 273.452 68.2802 275.275 69.7884 276.673C71.0942 277.889 72.6935 278.79 74.4751 279.266L85.7211 282.265Z" fill="#006CFA" stroke="black" stroke-linecap="round" stroke-linejoin="round"/>
<path d="M259.199 390.556L248.044 393.534C244.096 394.587 241.019 397.667 239.966 401.618L236.99 412.781L234.004 401.567C233.771 400.665 233.417 399.804 232.972 399.014C231.747 396.796 229.813 395.043 227.465 394.061C226.989 393.858 226.493 393.686 225.977 393.554L214.771 390.566L225.957 387.577C228.963 386.777 231.473 384.781 232.951 382.127C233.407 381.317 233.761 380.446 234.004 379.524L236.99 368.33L239.997 379.625C240.543 381.702 241.677 383.525 243.195 384.933C244.511 386.159 246.121 387.061 247.902 387.537L259.199 390.556Z" fill="#006CFA" stroke="black" stroke-linecap="round" stroke-linejoin="round"/>
<path d="M320.136 369.222C333.761 377.397 333.913 390.363 320.288 398.528C306.663 406.693 284.586 406.693 270.81 398.528C257.195 390.363 257.043 377.397 270.658 369.222C284.283 361.259 306.36 361.259 320.136 369.222Z" fill="black"/>
<path d="M275.436 221.96L268.907 226.427C265.394 228.869 270.263 242.271 279.859 256.494C289.455 270.585 300.134 280.198 303.657 277.787L310.146 273.451L275.426 221.96H275.436Z" fill="#B2FD34" stroke="black" stroke-linecap="round" stroke-linejoin="round"/>
<path d="M286.378 252.026C295.974 266.117 306.664 275.731 310.176 273.32C313.689 270.919 308.83 257.476 299.224 243.254C289.628 229.163 278.948 219.59 275.426 221.96C271.772 224.401 276.782 237.925 286.368 252.026H286.378Z" fill="white" stroke="black" stroke-linecap="round" stroke-linejoin="round"/>
<path d="M288.818 250.395C295.711 260.556 303.151 267.465 305.59 265.844C307.888 264.223 304.234 254.741 297.341 244.55C290.447 234.359 283.007 227.511 280.578 229.142C278.28 230.763 281.924 240.245 288.818 250.406V250.395Z" fill="#B2FD34" stroke="black" stroke-linecap="round" stroke-linejoin="round"/>
<path d="M320.865 374.762V381.408C320.865 385.47 317.889 389.532 312.069 392.611C300.307 398.892 281.236 398.892 269.332 392.611C263.39 389.532 260.414 385.348 260.414 381.286V374.641C260.414 378.703 263.39 382.887 269.332 385.966C281.094 392.247 300.307 392.247 312.069 385.966C317.889 382.887 320.865 378.834 320.865 374.762Z" fill="#B2FD34" stroke="black" stroke-linecap="round" stroke-linejoin="round"/>
<path d="M320.865 367.996V374.641C320.865 378.703 317.889 382.766 312.069 385.845C300.307 392.116 281.236 392.116 269.332 385.845C263.39 382.766 260.414 378.582 260.414 374.52V367.864C260.414 371.926 263.39 376.11 269.332 379.19C281.094 385.47 300.307 385.47 312.069 379.19C317.889 376.11 320.865 372.048 320.865 367.996Z" fill="#B2FD34" stroke="black" stroke-linecap="round" stroke-linejoin="round"/>
<path d="M320.865 361.228V367.874C320.865 371.936 317.889 375.998 312.069 379.078C300.307 385.358 281.236 385.358 269.332 379.078C263.39 375.998 260.414 371.814 260.414 367.752V361.147C260.414 365.21 263.39 369.393 269.332 372.463C281.094 378.743 300.307 378.743 312.069 372.463C317.889 369.353 320.865 365.291 320.865 361.228Z" fill="#B2FD34" stroke="black" stroke-linecap="round" stroke-linejoin="round"/>
<path d="M320.865 354.462V361.138C320.865 365.2 317.889 369.262 312.069 372.341C300.307 378.612 281.236 378.612 269.332 372.341C263.39 369.262 260.414 365.078 260.414 361.016V354.33C260.414 358.392 263.39 362.576 269.332 365.656C281.094 371.936 300.307 371.936 312.069 365.656C317.889 362.576 320.865 358.514 320.865 354.462Z" fill="#B2FD34" stroke="black" stroke-linecap="round" stroke-linejoin="round"/>
<path d="M320.865 347.685V354.33C320.865 358.393 317.889 362.455 312.069 365.534C300.307 371.815 281.236 371.815 269.332 365.534C263.39 362.455 260.414 358.271 260.414 354.209V347.563C260.414 351.626 263.39 355.809 269.332 358.889C281.094 365.17 300.307 365.17 312.069 358.889C317.889 355.809 320.865 351.747 320.865 347.685Z" fill="#B2FD34" stroke="black" stroke-linecap="round" stroke-linejoin="round"/>
<path d="M320.865 340.917V347.563C320.865 351.625 317.889 355.687 312.069 358.767C300.307 365.047 281.236 365.047 269.332 358.767C263.39 355.687 260.414 351.503 260.414 347.441V340.796C260.414 344.848 263.39 349.042 269.332 352.111C281.094 358.392 300.307 358.392 312.069 352.111C317.889 349.032 320.865 344.97 320.865 340.917Z" fill="#B2FD34" stroke="black" stroke-linecap="round" stroke-linejoin="round"/>
<path d="M320.865 334.151V340.796C320.865 344.858 317.889 348.921 312.069 352C300.307 358.281 281.236 358.281 269.332 352C263.39 348.921 260.414 344.737 260.414 340.675V334.029C260.414 338.091 263.39 342.275 269.332 345.355C281.094 351.625 300.307 351.625 312.069 345.355C317.889 342.275 320.865 338.213 320.865 334.151Z" fill="#B2FD34" stroke="black" stroke-linecap="round" stroke-linejoin="round"/>
<path d="M311.937 322.825C323.7 329.106 323.841 339.074 312.069 345.345C300.307 351.615 281.236 351.625 269.332 345.345C257.57 339.074 257.438 329.106 269.201 322.825C280.963 316.707 300.033 316.707 311.927 322.825H311.937ZM274.758 342.508C283.544 347.178 297.877 347.178 306.532 342.508C315.318 337.828 315.197 330.322 306.4 325.763C297.604 321.093 283.281 321.093 274.626 325.763C265.83 330.322 265.971 337.838 274.758 342.508Z" fill="white" stroke="black" stroke-linecap="round" stroke-linejoin="round"/>
<path d="M306.532 325.652C315.318 330.322 315.45 337.838 306.664 342.387C297.877 347.067 283.676 347.067 274.889 342.387C266.103 337.706 265.971 330.2 274.758 325.652C283.412 321.103 297.604 321.103 306.532 325.652Z" fill="#B2FD34" stroke="black" stroke-linecap="round" stroke-linejoin="round"/>
<path d="M304.265 319.412C312.201 322.106 314.782 324.406 317.11 326.442C315.936 328.296 313.729 330.109 310.47 331.73C299.74 337.19 281.864 338.466 270.466 334.586C266.255 333.148 263.421 331.132 262.064 328.893C265.8 325.297 268.148 322.126 274.91 318.763C285.478 313.445 292.705 315.674 304.265 319.412Z" fill="black"/>
<path d="M307.341 292.932C320.055 294.553 321.948 301.33 311.664 308.239C301.389 315.147 282.724 319.473 270.01 317.852C257.296 316.231 255.403 309.454 265.688 302.546C276.104 295.647 294.759 291.443 307.341 292.932ZM275.425 314.327C284.485 315.411 297.867 312.301 305.307 307.428C312.747 302.414 311.259 297.541 302.199 296.457C293.14 295.373 279.758 298.483 272.318 303.356C264.878 308.37 266.234 313.243 275.435 314.327H275.425Z" fill="white" stroke="black" stroke-linecap="round" stroke-linejoin="round"/>
<path d="M302.067 296.457C311.127 297.541 312.615 302.545 305.175 307.418C297.745 312.432 284.353 315.41 275.293 314.327C266.234 313.243 264.746 308.228 272.186 303.356C279.626 298.483 293.008 295.363 302.067 296.457Z" fill="#B2FD34" stroke="black" stroke-linecap="round" stroke-linejoin="round"/>
<path d="M318.152 298.888L319.914 307.012C320.592 309.717 318.436 313.111 313.425 316.474C303.181 323.383 284.485 327.718 271.771 326.087C265.283 325.297 261.629 323.109 260.961 320.263L259.199 312.128C259.867 314.975 263.522 317.274 270.01 317.953C282.724 319.574 301.389 315.238 311.664 308.339C316.664 304.824 318.83 301.583 318.152 298.878V298.888Z" fill="#B2FD34" stroke="black" stroke-linecap="round" stroke-linejoin="round"/>
<path d="M320.824 336.866L320.865 389.735L314.781 392.916V343.714C314.781 343.714 319.023 341.668 320.834 336.876L320.824 336.866Z" fill="black"/>
<path d="M318.617 300.661L320.034 307.752C320.034 307.752 319.923 312.838 314.781 315.512C313.819 312.159 312.574 307.499 312.574 307.499C312.574 307.499 316.815 305.453 318.627 300.661H318.617Z" fill="black"/>
<path d="M127.264 173.741L140.625 202.197" stroke="black" stroke-linecap="round" stroke-linejoin="round"/>
<path d="M215.065 172.667L202.21 200.008" stroke="black" stroke-linecap="round" stroke-linejoin="round"/>
<path d="M171.347 153.207L172.308 192.117" stroke="black" stroke-linecap="round" stroke-linejoin="round"/>
<path d="M218.386 236.112H227.415C227.415 236.112 232.456 214.788 233.256 210.909C234.055 207.019 230.836 207.555 229.794 208.052C228.761 208.548 221.038 212.185 221.038 212.185L218.396 236.122L218.386 236.112Z" fill="black"/>
</svg>