<svg width="500" height="500" viewBox="0 0 696 696" fill="none" xmlns="http://www.w3.org/2000/svg">
<mask id="mask0_617_735" style="mask-type:luminance" maskUnits="userSpaceOnUse" x="11" y="84" width="673" height="529">
<path d="M683.663 84H11V613H683.663V84Z" fill="white"/>
</mask>
<g mask="url(#mask0_617_735)">
<path d="M189.065 216.25V282.375C189.057 299.91 182.084 316.725 169.676 329.125C157.267 341.523 140.44 348.493 122.893 348.5C105.343 348.5 88.5117 355.467 76.102 367.867C63.6924 380.269 56.7207 397.088 56.7207 414.625C56.7207 432.162 63.6924 448.981 76.102 461.383C88.5117 473.783 105.343 480.75 122.893 480.75H255.237C272.784 480.757 289.611 487.727 302.02 500.125C314.428 512.525 321.401 529.34 321.409 546.875C321.416 564.41 328.391 581.225 340.798 593.625C353.206 606.023 370.033 612.993 387.581 613H519.925C537.473 612.993 554.299 606.023 566.708 593.625C579.116 581.225 586.089 564.41 586.098 546.875V414.625C586.089 397.09 579.116 380.275 566.708 367.875C554.299 355.477 537.473 348.507 519.925 348.5C502.376 348.5 485.545 341.533 473.134 329.133C460.725 316.731 453.753 299.912 453.753 282.375C453.753 264.838 460.725 248.019 473.134 235.617C485.545 223.217 502.376 216.25 519.925 216.25C537.475 216.25 554.306 209.283 566.715 196.882C579.126 184.482 586.098 167.662 586.098 150.125C586.098 132.588 579.126 115.768 566.715 103.368C554.306 90.9667 537.475 84 519.925 84H320.836C248.32 84.5317 189.065 143.772 189.065 216.25Z" fill="#00ED64"/>
<path d="M376.147 197.885H520.607C524.874 197.885 528.965 199.579 531.982 202.594C534.999 205.608 536.693 209.697 536.693 213.96V263.969" stroke="black" stroke-miterlimit="10"/>
<path d="M591.35 441.866V492.612C591.35 494.725 590.934 496.816 590.125 498.767C589.315 500.718 588.129 502.491 586.634 503.984C585.138 505.477 583.363 506.66 581.411 507.467C579.457 508.274 577.364 508.689 575.251 508.686H460.111" stroke="black" stroke-miterlimit="10"/>
<path d="M388.263 281.243V445.615C388.276 448.339 389.366 450.947 391.296 452.873C393.225 454.798 395.838 455.884 398.564 455.895H672.639C675.366 455.888 677.98 454.803 679.91 452.877C681.84 450.952 682.929 448.341 682.94 445.615V281.243H388.263Z" fill="white" stroke="black" stroke-miterlimit="10"/>
<path d="M682.967 259.156C682.956 256.429 681.868 253.817 679.938 251.889C678.009 249.961 675.395 248.873 672.666 248.863H398.632C395.905 248.873 393.292 249.961 391.364 251.891C389.438 253.819 388.352 256.431 388.345 259.156V281.243H682.967V259.156Z" fill="#00ED64" stroke="black" stroke-linejoin="round"/>
<path d="M476.511 308.907H443.029V428.245H476.511V308.907Z" fill="#00D2FF" stroke="black" stroke-miterlimit="10"/>
<path d="M529.189 328.062H495.707V428.245H529.189V328.062Z" fill="#00D2FF" stroke="black" stroke-miterlimit="10"/>
<path d="M581.322 347.218H547.84V428.245H581.322V347.218Z" fill="#00D2FF" stroke="black" stroke-miterlimit="10"/>
<path d="M633.973 366.374H600.491V428.245H633.973V366.374Z" fill="#00D2FF" stroke="black" stroke-miterlimit="10"/>
<path d="M118.963 360.771C113.988 369.886 110.945 379.929 110.025 390.272C109.105 400.616 110.327 411.038 113.616 420.887C116.904 430.738 122.189 439.804 129.139 447.524C136.09 455.243 144.558 461.448 154.014 465.752" stroke="black" stroke-linecap="round" stroke-linejoin="round"/>
<path d="M163.605 446.665C156.67 443.62 150.45 439.159 145.346 433.567C140.241 427.974 136.365 421.376 133.968 414.197C131.571 407.016 130.706 399.415 131.428 391.879C132.149 384.345 134.443 377.045 138.159 370.451" stroke="black" stroke-linecap="round" stroke-linejoin="round"/>
<path d="M174.057 425.778C169.855 424.11 166.067 421.546 162.96 418.263C159.854 414.981 157.503 411.058 156.074 406.772C154.645 402.485 154.17 397.938 154.683 393.449C155.197 388.96 156.687 384.638 159.049 380.785" stroke="black" stroke-linecap="round" stroke-linejoin="round"/>
<path d="M138.159 370.383C134.428 376.979 132.123 384.284 131.394 391.826C130.663 399.368 131.524 406.979 133.921 414.168C136.318 421.356 140.197 427.963 145.308 433.561C150.419 439.158 156.647 443.622 163.592 446.665" stroke="black" stroke-linecap="round" stroke-linejoin="round"/>
<path d="M159.048 380.785C156.684 384.637 155.193 388.96 154.677 393.45C154.163 397.94 154.636 402.487 156.066 406.775C157.496 411.061 159.848 414.984 162.956 418.267C166.063 421.55 169.852 424.113 174.057 425.778" stroke="black" stroke-linecap="round" stroke-linejoin="round"/>
<path d="M428.716 455.909H399.178H398.523L397.158 451.369L407.978 448.151C407.975 448.128 407.975 448.106 407.978 448.083L407.214 445.52C407.155 445.326 407.136 445.123 407.157 444.922C407.177 444.721 407.237 444.526 407.334 444.348C407.431 444.171 407.56 444.014 407.719 443.888C407.876 443.761 408.057 443.667 408.251 443.611L403.885 428.941L397.063 431.667C397.157 433.436 397.107 435.21 396.913 436.971V437.067L392.206 438.43C391.87 442.298 391.002 446.102 389.627 449.733C389.08 448.462 388.794 447.094 388.781 445.711V404.277L389.327 405.081L396.34 403.718L391.974 389.048H391.906C391.712 389.108 391.507 389.129 391.304 389.11C391.102 389.09 390.906 389.03 390.725 388.934C390.547 388.838 390.388 388.707 390.26 388.547C390.133 388.389 390.038 388.206 389.982 388.011L389.409 386.048L388.781 386.239V331.485L391.401 330.721L406.409 380.976L395.589 384.18L395.985 385.544L396.081 385.871L396.176 386.184C396.278 386.531 396.255 386.903 396.111 387.234C395.966 387.567 395.71 387.837 395.385 387.998C395.24 388.1 395.085 388.187 394.921 388.257L399.314 403.036L398.796 403.186L402.725 402.382C403.149 402.3 403.589 402.345 403.987 402.512C404.386 402.68 404.725 402.962 404.963 403.322C405.195 403.677 405.467 404.113 405.754 404.618C408.127 404.099 410.606 404.496 412.699 405.727C414.79 406.959 416.34 408.933 417.037 411.257C417.037 411.257 417.037 411.394 417.133 411.639C417.681 413.78 417.47 416.046 416.533 418.047L416.314 418.511C416.318 418.542 416.318 418.575 416.314 418.606C415.924 419.346 415.427 420.025 414.841 420.624C414.058 421.457 413.134 422.144 412.112 422.655L411.334 423.024C411.334 423.596 411.334 424.087 411.334 424.51C411.333 424.942 411.202 425.363 410.959 425.72C410.716 426.078 410.371 426.353 409.97 426.514L406.245 427.986L406.75 427.836L411.102 442.575C411.274 442.542 411.45 442.542 411.621 442.575C411.981 442.527 412.347 442.609 412.652 442.806C412.957 443.004 413.182 443.304 413.285 443.652L413.381 443.965L413.654 444.879L413.927 445.806L414.049 446.215V446.297L424.883 443.079L428.703 455.895L428.716 455.909Z" fill="black"/>
<path d="M394.624 413.394L328.034 433.496L364.455 553.977L431.046 533.875L394.624 413.394Z" fill="#E3FCF7" stroke="black" stroke-width="1.00285" stroke-miterlimit="10"/>
<path d="M352.571 526.274L419.057 506.505" stroke="black" stroke-miterlimit="10"/>
<path d="M343.348 495.297L409.847 475.542" stroke="black" stroke-miterlimit="10"/>
<path d="M334.139 464.348L400.625 444.579" stroke="black" stroke-miterlimit="10"/>
<path d="M381.905 549.315L346.104 429.022" stroke="black" stroke-miterlimit="10"/>
<path d="M407.091 541.831L371.29 421.538" stroke="black" stroke-miterlimit="10"/>
<path d="M313.138 144.407L246.549 164.509L282.969 284.99L349.56 264.888L313.138 144.407Z" fill="#E3FCF7" stroke="black" stroke-width="1.00285" stroke-miterlimit="10"/>
<path d="M272.496 257.302L338.996 237.533" stroke="black" stroke-miterlimit="10"/>
<path d="M263.272 226.325L329.772 206.57" stroke="black" stroke-miterlimit="10"/>
<path d="M254.063 195.362L320.549 175.593" stroke="black" stroke-miterlimit="10"/>
<path d="M301.83 280.33L266.029 160.051" stroke="black" stroke-miterlimit="10"/>
<path d="M327.016 272.845L291.215 152.552" stroke="black" stroke-miterlimit="10"/>
<path d="M360.009 414.163L351.469 416.701C349.772 417.206 348.806 418.99 349.311 420.687L351.412 427.744C351.917 429.438 353.701 430.405 355.399 429.9L363.938 427.36C365.635 426.856 366.603 425.073 366.097 423.377L363.995 416.32C363.491 414.623 361.706 413.658 360.009 414.163Z" fill="#00ED64" stroke="black" stroke-miterlimit="10"/>
<path d="M350.758 377.077L343.882 379.152L354.669 414.832L361.545 412.757L350.758 377.077Z" fill="#00ED64" stroke="black" stroke-width="1.00285" stroke-miterlimit="10"/>
<path d="M348.366 378.837L344.94 379.856L355.547 415.479L358.973 414.46L348.366 378.837Z" fill="black"/>
<path d="M359.637 428.503V428.491L359.625 428.503H359.637Z" fill="black"/>
<path d="M365.969 422.124L364.782 418.129L364.619 417.57C364.246 416.346 363.406 415.318 362.279 414.707C361.153 414.097 359.832 413.956 358.602 414.311L355.873 415.743C358.111 415.075 358.438 416.725 359.148 419.097L359.366 419.847L359.83 421.456L360.539 423.828C361.235 426.2 361.904 427.768 359.639 428.423L362.709 428.123C363.935 427.757 364.967 426.92 365.578 425.795C366.189 424.672 366.33 423.352 365.969 422.124Z" fill="black"/>
<path d="M317.244 270.374L308.704 272.913C307.007 273.417 306.039 275.202 306.546 276.898L308.647 283.955C309.152 285.651 310.936 286.617 312.633 286.112L321.173 283.573C322.87 283.068 323.836 281.284 323.331 279.588L321.23 272.531C320.726 270.835 318.94 269.87 317.244 270.374Z" fill="#00ED64" stroke="black" stroke-miterlimit="10"/>
<path d="M320.1 283.887L313.234 285.928L323.841 321.551L330.707 319.51L320.1 283.887Z" fill="#00ED64" stroke="black" stroke-miterlimit="10"/>
<path d="M320.089 283.869L316.663 284.888L327.27 320.511L330.696 319.492L320.089 283.869Z" fill="black"/>
<path d="M323.264 278.189L321.9 273.622C321.53 272.392 320.69 271.357 319.56 270.745C318.43 270.132 317.104 269.99 315.869 270.35L313.141 271.713C315.378 271.059 315.719 272.709 316.415 275.095L317.125 277.467L317.848 279.839C318.544 282.211 319.212 283.793 316.947 284.447L320.017 284.147C321.233 283.778 322.253 282.946 322.86 281.832C323.468 280.719 323.612 279.41 323.264 278.189Z" fill="black"/>
<path d="M351.057 368.787C363.784 368.787 374.101 358.477 374.101 345.76C374.101 333.042 363.784 322.732 351.057 322.732C338.33 322.732 328.013 333.042 328.013 345.76C328.013 358.477 338.33 368.787 351.057 368.787Z" fill="#00ED64" stroke="black" stroke-miterlimit="10"/>
<path d="M310.385 357.853L318.353 384.603C318.559 385.284 318.903 385.917 319.365 386.46C319.826 387.002 320.395 387.443 321.037 387.755C321.676 388.069 322.375 388.244 323.087 388.274C323.799 388.304 324.51 388.187 325.175 387.929L356.023 375.659C356.986 375.274 357.81 374.61 358.393 373.751C358.974 372.894 359.284 371.882 359.284 370.846C358.644 352.942 353.451 335.496 344.194 320.155C343.626 319.288 342.813 318.611 341.857 318.212C340.9 317.814 339.847 317.712 338.832 317.919L306.401 324.559C305.697 324.7 305.03 324.988 304.443 325.403C303.855 325.817 303.361 326.349 302.991 326.964C302.622 327.58 302.384 328.266 302.296 328.979C302.205 329.69 302.265 330.414 302.472 331.103L310.426 357.853H310.385Z" fill="#00ED64" stroke="black" stroke-miterlimit="10"/>
<path d="M357.824 355.317C364.441 353.735 371.141 347.218 373.132 339.147C373.132 339.147 378.904 358.616 359.216 367.288L357.824 355.317Z" fill="black"/>
<path d="M313.795 404.086L325.051 400.746C327.78 379.476 318.229 333.393 299.647 315.424L288.391 318.764L313.795 404.086Z" fill="#00ED64" stroke="black" stroke-miterlimit="10"/>
<path d="M313.796 404.086L325.052 400.746C325.935 390.373 325.314 379.925 323.21 369.728L306.688 374.637L313.796 404.086Z" fill="black"/>
<path d="M261.376 372.414C276.507 423.228 277.258 468.016 263.273 473.756C263.982 473.579 264.637 473.415 265.401 473.21C304.873 461.485 324.369 410.017 308.966 358.276C293.562 306.535 249.097 274.086 209.653 285.784C208.943 285.988 208.289 286.247 207.579 286.479C222.423 283.657 246.286 321.559 261.417 372.373L261.376 372.414Z" fill="#00ED64" stroke="black" stroke-miterlimit="10"/>
<path d="M311.394 366.306C316.851 384.562 289.564 416.657 272.059 422.71C276.07 448.083 268.089 472.106 263.313 473.756C290.874 467.975 324.11 429.418 311.394 366.306Z" fill="black"/>
<path d="M261.376 372.414C246.245 321.586 222.382 283.67 207.538 286.52C206.706 286.792 205.873 287.092 205.068 287.406C192.025 294.673 193.075 338.615 207.865 388.298C222.655 437.98 245.836 475.378 260.735 474.342C261.581 474.165 262.427 473.96 263.272 473.742C277.257 468.002 276.507 423.214 261.376 372.387V372.414Z" fill="#00ED64" stroke="black" stroke-miterlimit="10"/>
<path d="M257.856 360.471C255.714 353.272 247.855 340.32 234.594 344.246C219.517 348.732 212.395 388.775 226.571 436.412C212.927 406.908 200.648 374.105 196.555 330.844C192.462 287.583 207.347 281.925 216.775 289.028C226.203 296.132 241.334 313.761 257.87 360.471H257.856Z" fill="black"/>
<path d="M195.286 399.287L265.087 385.721L261.417 372.414L193.308 392.661L195.286 399.287Z" fill="black" stroke="black" stroke-linejoin="round"/>
<path d="M191.329 386.007L257.201 359.257L261.417 372.414L193.307 392.661L191.329 386.007Z" fill="#00ED64" stroke="black" stroke-linejoin="round"/>
<path d="M195.304 399.279C196.208 399.01 196.053 395.82 194.962 392.153C193.87 388.487 192.254 385.733 191.35 386.002C190.449 386.27 190.601 389.459 191.693 393.126C192.784 396.792 194.401 399.547 195.304 399.279Z" fill="black" stroke="black" stroke-linejoin="round"/>
<path d="M186.24 397.105L193.417 395.851C193.57 394.816 193.447 393.758 193.062 392.783L185.872 394.856L186.24 397.051V397.105Z" fill="black" stroke="black" stroke-linejoin="round"/>
<path d="M185.04 393.083L191.753 390.22C192.408 391.014 192.874 391.946 193.117 392.947L185.913 395.088L185.04 393.083Z" fill="#00ED64" stroke="black" stroke-linejoin="round"/>
<path d="M178.204 406.049C182.966 406.049 186.827 402.192 186.827 397.433C186.827 392.674 182.966 388.816 178.204 388.816C173.442 388.816 169.581 392.674 169.581 397.433C169.581 402.192 173.442 406.049 178.204 406.049Z" fill="#00ED64" stroke="black" stroke-miterlimit="10"/>
<path d="M186.459 394.978C184.317 400.759 174.289 404.018 169.937 399.887C170.609 402.064 172.109 403.891 174.113 404.978C176.117 406.063 178.468 406.321 180.66 405.695C184.194 404.631 187.864 399.696 186.459 394.965V394.978Z" fill="black"/>
<path d="M323.21 369.742L358.247 359.298L358.861 370.042C358.935 371.326 358.6 372.601 357.907 373.685C357.214 374.77 356.196 375.608 355 376.082L324.52 388.039L323.155 369.783L323.21 369.742Z" fill="black"/>
<path d="M484.097 166.512H554.034C558.301 166.512 562.393 168.206 565.409 171.221C568.426 174.235 570.12 178.324 570.12 182.587V248.863" stroke="black" stroke-miterlimit="10"/>
<path d="M539.203 538.667H609.141C611.254 538.667 613.347 538.252 615.3 537.443C617.252 536.635 619.027 535.448 620.52 533.954C622.014 532.46 623.199 530.687 624.007 528.735C624.813 526.783 625.228 524.691 625.227 522.579V456.318" stroke="black" stroke-miterlimit="10"/>
<path d="M477.943 178.525L466.933 166.309L477.943 154.501" stroke="black" stroke-linecap="round" stroke-linejoin="round"/>
<path d="M533.051 526.642L522.04 538.885L533.051 550.679" stroke="black" stroke-linecap="round" stroke-linejoin="round"/>
<path d="M453.22 520.698L442.224 508.468L453.22 496.675" stroke="black" stroke-linecap="round" stroke-linejoin="round"/>
<path d="M374.169 209.896L363.158 197.666L374.169 185.873" stroke="black" stroke-linecap="round" stroke-linejoin="round"/>
<path d="M628.375 175.19L620.184 192.085L637.091 200.271L645.283 183.376L628.375 175.19Z" fill="#001F2C" stroke="black" stroke-linecap="round" stroke-linejoin="round"/>
<path d="M620.773 177.814L612.581 194.71L629.49 202.896L637.681 186L620.773 177.814Z" fill="#FFB200" stroke="black" stroke-linecap="round" stroke-linejoin="round"/>
<path d="M628.375 175.19L620.184 192.085L637.091 200.271L645.283 183.376L628.375 175.19Z" fill="black" stroke="black" stroke-linecap="round" stroke-linejoin="round"/>
<path d="M620.773 177.814L612.581 194.71L629.49 202.896L637.681 186L620.773 177.814Z" fill="white" stroke="black" stroke-linejoin="round"/>
<path d="M123.165 431.436H11.6826V447.756H123.165V431.436Z" fill="black" stroke="black" stroke-miterlimit="10"/>
<path d="M67.4309 503.464C98.2199 503.464 123.179 478.524 123.179 447.756C123.179 416.989 98.2199 392.047 67.4309 392.047C36.6419 392.047 11.6826 416.989 11.6826 447.756C11.6826 478.524 36.6419 503.464 67.4309 503.464Z" fill="black" stroke="black" stroke-miterlimit="10"/>
<path d="M67.4309 487.144C98.2199 487.144 123.179 462.202 123.179 431.436C123.179 400.668 98.2199 375.727 67.4309 375.727C36.6419 375.727 11.6826 400.668 11.6826 431.436C11.6826 462.202 36.6419 487.144 67.4309 487.144Z" fill="#00D2FF" stroke="black" stroke-miterlimit="10"/>
<path d="M67.4312 439.793C78.5381 439.793 87.542 430.796 87.542 419.697C87.542 408.599 78.5381 399.6 67.4312 399.6C56.3242 399.6 47.3203 408.599 47.3203 419.697C47.3203 430.796 56.3242 439.793 67.4312 439.793Z" fill="#001E2B"/>
<path d="M103.013 474.301C93.0196 482.61 80.4302 487.158 67.4305 487.158C54.4307 487.158 41.8414 482.61 31.8477 474.301C33.5642 466.141 38.0374 458.82 44.5164 453.564C50.9954 448.309 59.086 445.442 67.4305 445.442C75.775 445.442 83.8656 448.309 90.3446 453.564C96.8236 458.82 101.297 466.141 103.013 474.301Z" fill="#001E2B"/>
<path d="M67.4309 487.144C98.2199 487.144 123.179 462.202 123.179 431.436C123.179 400.668 98.2199 375.727 67.4309 375.727C36.6419 375.727 11.6826 400.668 11.6826 431.436C11.6826 462.202 36.6419 487.144 67.4309 487.144Z" stroke="black" stroke-miterlimit="10"/>
</g>
</svg>
