<?xml version="1.0" encoding="utf-8"?>
<svg xmlns="http://www.w3.org/2000/svg" width="556.8" height="371.2" viewBox="0 0 696 464" fill="none">
<g clip-path="url(#clip0_635_808)">
<g clip-path="url(#clip1_635_808)">
<mask id="mask0_635_808" style="mask-type:luminance" maskUnits="userSpaceOnUse" x="-13" y="-10" width="723" height="485">
<path d="M710 -10H-13V475H710V-10Z" fill="white"/>
</mask>
<g mask="url(#mask0_635_808)">
<path d="M235.337 112.716C235.337 146.11 208.248 173.212 174.871 173.212C141.494 173.212 114.405 200.314 114.405 233.707V354.698C114.405 388.092 141.494 415.194 174.871 415.194C208.248 415.194 235.337 388.092 235.337 354.698C235.337 321.305 262.426 294.203 295.803 294.203H416.734C450.111 294.203 477.2 267.101 477.2 233.707C477.2 200.314 504.289 173.212 537.666 173.212C571.043 173.212 598.132 146.11 598.132 112.716C598.132 79.3229 571.043 52.2209 537.666 52.2209H295.803C262.426 52.2209 235.337 79.3229 235.337 112.716Z" fill="#E3FCF7"/>
<mask id="mask1_635_808" style="mask-type:luminance" maskUnits="userSpaceOnUse" x="79" y="31" width="539" height="403">
<path d="M617.812 31.4529H79.1875V433.547H617.812V31.4529Z" fill="white"/>
</mask>
<g mask="url(#mask1_635_808)">
<path d="M405.938 128.131L403.245 194.577L335.736 227.369L336.483 161.865L405.938 128.131Z" fill="black" stroke="black" stroke-linejoin="round"/>
<path d="M405.865 127.988L351.986 89.019L284.477 121.822L336.422 161.722L405.865 127.988Z" fill="#B2FD34" stroke="black" stroke-linejoin="round"/>
<path d="M284.549 187.09L335.736 227.369L336.422 161.722L284.477 121.823L284.549 187.09Z" fill="#B2FD34" stroke="black" stroke-linejoin="round"/>
<path d="M376.674 202.984L373.705 213.768C370.531 225.27 390.917 240.918 419.239 248.732C447.561 256.547 473.088 253.556 476.252 242.055L479.222 231.271L376.674 202.984Z" fill="black" stroke="black" stroke-miterlimit="10"/>
<path d="M386.206 168.41L375.117 208.618C371.943 220.119 392.33 235.767 420.651 243.581C448.973 251.395 474.501 248.405 477.665 236.904L488.754 196.697C491.928 185.196 471.542 169.547 443.219 161.732C414.897 153.918 389.37 156.909 386.206 168.41Z" fill="#00EB64"/>
<path d="M488.754 196.696L477.665 236.903C474.491 248.405 448.963 251.395 420.651 243.582C392.33 235.767 371.943 220.118 375.117 208.617L386.206 168.41" stroke="black" stroke-miterlimit="10"/>
<path d="M483.091 217.25C479.918 228.751 454.391 231.742 426.079 223.928C397.757 216.114 377.37 200.465 380.543 188.964" stroke="black" stroke-miterlimit="10"/>
<path d="M482.181 181.601L464.282 246.489C471.511 244.769 476.396 241.522 477.665 236.903L488.754 196.696C490.024 192.077 487.495 186.782 482.181 181.601Z" fill="black" stroke="black" stroke-miterlimit="10"/>
<path d="M488.752 196.705C491.923 185.206 471.536 169.551 443.215 161.738C414.895 153.925 389.366 156.914 386.194 168.413C383.023 179.912 403.41 195.568 431.732 203.38C460.052 211.193 485.581 208.204 488.752 196.705Z" fill="white" stroke="black" stroke-miterlimit="10"/>
<path d="M429.611 174.042L427.563 181.488C426.98 183.618 430.748 186.516 435.991 187.96C441.233 189.404 445.953 188.851 446.547 186.721L448.596 179.275C449.179 177.146 445.411 174.247 440.168 172.804C434.926 171.359 430.205 171.912 429.611 174.042Z" fill="#AFFF05" stroke="black" stroke-miterlimit="10"/>
<path d="M444.601 174.534L438.785 188.544C442.82 189.138 446.066 188.452 446.536 186.711L448.584 179.265C448.984 177.811 447.345 175.988 444.591 174.524L444.601 174.534Z" fill="black" stroke="black" stroke-miterlimit="10"/>
<path d="M505.066 137.532C508.24 126.031 487.853 110.382 459.531 102.569C431.209 94.7537 405.682 97.7445 402.518 109.246" stroke="black" stroke-miterlimit="10"/>
<path d="M403.5 105.702L392.412 145.91C389.237 157.411 409.624 173.059 437.946 180.873C466.269 188.687 491.795 185.697 494.959 174.196L506.048 133.989C509.223 122.488 488.836 106.839 460.514 99.0254C432.191 91.2109 406.665 94.2014 403.5 105.702Z" fill="#00EB64"/>
<path d="M499.465 118.893L481.567 183.782C488.796 182.062 493.68 178.815 494.95 174.196L506.04 133.989C507.31 129.37 504.78 124.075 499.465 118.893Z" fill="black" stroke="black" stroke-miterlimit="10"/>
<path d="M506.051 133.995C509.222 122.496 488.835 106.84 460.514 99.0274C432.193 91.2143 406.665 94.2023 403.493 105.702C400.322 117.201 420.709 132.857 449.031 140.67C477.351 148.483 502.88 145.494 506.051 133.995Z" fill="white" stroke="black" stroke-miterlimit="10"/>
<path d="M506.048 133.989L494.959 174.196C491.785 185.697 466.258 188.687 437.946 180.873C409.624 173.059 389.237 157.411 392.412 145.91L403.5 105.702" stroke="black" stroke-miterlimit="10"/>
<path d="M446.905 111.335L444.857 118.781C444.274 120.911 448.042 123.809 453.285 125.253C458.527 126.697 463.247 126.144 463.842 124.013L465.89 116.568C466.473 114.438 462.704 111.54 457.462 110.096C452.22 108.652 447.5 109.205 446.905 111.335Z" fill="#AFFF05" stroke="black" stroke-miterlimit="10"/>
<path d="M461.896 111.826L456.08 125.836C460.115 126.43 463.361 125.744 463.832 124.003L465.88 116.558C466.279 115.104 464.641 113.281 461.886 111.816L461.896 111.826Z" fill="black" stroke="black" stroke-miterlimit="10"/>
<path d="M420.785 42.9945L409.696 83.2018C406.522 94.7028 426.908 110.351 455.23 118.165C483.553 125.98 509.079 122.989 512.244 111.488L523.333 71.2809C526.507 59.7799 506.121 44.1312 477.799 36.3171C449.476 28.503 423.949 31.4935 420.785 42.9945Z" fill="#00EB64"/>
<path d="M523.344 71.2809C526.518 59.7799 506.132 44.1312 477.809 36.3171C449.487 28.503 423.959 31.4935 420.796 42.9945" stroke="black" stroke-miterlimit="10"/>
<path d="M523.343 71.2811L512.254 111.488C509.079 122.989 483.552 125.98 455.24 118.165C426.918 110.351 406.531 94.7029 409.706 83.202L420.795 42.9946" stroke="black" stroke-miterlimit="10"/>
<path d="M517.792 91.3846C514.619 102.886 489.092 105.876 460.78 98.0616C432.458 90.2479 412.071 74.5992 415.245 63.0981" stroke="black" stroke-miterlimit="10"/>
<path d="M500.499 154.093C497.325 165.594 471.797 168.584 443.485 160.77C415.163 152.956 394.777 137.307 397.951 125.806" stroke="black" stroke-miterlimit="10"/>
<path d="M516.76 56.1855L498.861 121.074C506.09 119.354 510.975 116.107 512.244 111.488L523.334 71.2813C524.603 66.6624 522.074 61.3677 516.76 56.1855Z" fill="black" stroke="black" stroke-miterlimit="10"/>
<path d="M523.34 71.2848C526.512 59.7854 506.124 44.1298 477.804 36.3169C449.484 28.5041 423.954 31.4925 420.783 42.9919C417.612 54.4912 437.999 70.1468 466.32 77.9598C494.64 85.7726 520.17 82.7841 523.34 71.2848Z" fill="white" stroke="black" stroke-miterlimit="10"/>
<path d="M236.783 217.567C268.428 217.567 294.082 191.909 294.082 160.258C294.082 128.606 268.428 102.947 236.783 102.947C205.136 102.947 179.482 128.606 179.482 160.258C179.482 191.909 205.136 217.567 236.783 217.567Z" fill="#00ED64" stroke="black" stroke-miterlimit="10"/>
<path d="M234.355 219.073C234.355 219.073 281.324 159.223 260.517 108.958C279.747 115.861 301.915 144.178 293.191 176.653C283.955 211.033 254.865 219.298 234.355 219.073Z" fill="black"/>
<path d="M425.383 361.919L424.44 371.024H424.513L446.179 366.641H446.2L454.289 365.012L454.617 364.951L425.393 361.93L425.383 361.919Z" fill="white" stroke="black" stroke-linecap="round" stroke-linejoin="round"/>
<path d="M425.455 361.93L424.512 371.013H424.441L409.348 374.065L374.298 381.121L374.482 379.309C374.738 376.8 375.425 374.373 376.49 372.099V372.078C376.674 371.689 376.868 371.29 377.073 370.9C377.943 369.303 378.988 367.828 380.206 366.486L380.288 366.404C381.036 365.586 381.824 364.848 382.694 364.141C384.989 362.278 387.63 360.875 390.466 360.024C393.302 359.174 396.261 358.908 399.2 359.215L425.464 361.93H425.455Z" fill="#00EB64" stroke="black" stroke-linecap="round" stroke-linejoin="round"/>
<path d="M495.452 373.379C494.222 385.239 483.625 393.872 471.747 392.643C461.63 391.599 453.859 383.722 452.569 374.065L421.062 381.377L420.99 381.398L265.423 412.941L267.512 392.725L407.823 365.821L422.916 362.779H422.987L444.653 358.396H444.674L452.764 356.768L453.091 356.707L457.095 357.116C457.126 357.259 457.156 357.393 457.207 357.536C458.61 362.994 462.009 367.715 466.689 370.757C469.597 372.683 472.996 373.952 476.704 374.331C483.881 375.078 490.608 372.365 495.257 367.531C495.36 368.095 495.441 368.647 495.492 369.232V369.251C495.605 370.593 495.595 371.965 495.452 373.369V373.379Z" fill="black" stroke="black" stroke-linecap="round" stroke-linejoin="round"/>
<path d="M497.571 373.184L497.55 373.205L492.287 382.596C492.235 382.023 494.693 377.578 494.591 377.025C489.953 381.849 483.215 384.563 476.037 383.825C472.32 383.435 468.931 382.176 466.023 380.251C461.354 377.199 457.954 372.477 456.541 367.029C456.49 366.886 456.459 366.742 456.428 366.61L452.425 366.199L452.098 366.261C452.098 366.261 452.077 366.19 452.098 366.169C452.077 366.148 452.077 366.117 452.098 366.128C452.333 364.254 452.825 362.4 453.561 360.629L455.118 357.567L457.647 352.568C457.647 352.568 457.678 352.476 457.709 352.436L458.804 350.234C458.804 350.234 458.804 350.192 458.835 350.192L458.947 349.978H458.968L460.924 351.186L467.446 355.129L472.965 358.447C472.852 358.641 472.76 358.857 472.669 359.082C472.535 359.43 472.453 359.788 472.422 360.178C472.351 360.854 472.443 361.529 472.659 362.144C473.221 363.803 474.696 365.053 476.549 365.247C478.402 365.442 479.98 364.592 480.86 363.199L489.02 368.135L491.396 369.549L492.082 369.958L492.748 370.368L496.649 372.713L497.213 373L497.581 373.194L497.571 373.184Z" fill="black" stroke="black" stroke-linecap="round" stroke-linejoin="round"/>
<path d="M492.513 346.445C497.755 351.083 500.735 358.099 499.957 365.596C499.701 368.084 499.046 370.44 498.042 372.58C498.042 372.672 497.981 372.754 497.95 372.846C497.633 373.502 497.315 374.127 496.926 374.731L496.752 375.059L496.732 375.079C495.881 376.451 494.898 377.752 493.772 378.889C489.134 383.712 482.396 386.426 475.219 385.689C471.501 385.3 468.112 384.04 465.205 382.115C460.535 379.063 457.136 374.342 455.723 368.894C455.671 368.75 455.641 368.606 455.61 368.474C455.507 368.095 455.436 367.705 455.385 367.306C455.364 367.285 455.364 367.255 455.364 367.234C454.975 365.206 454.903 363.107 455.119 360.967C455.354 358.652 455.947 356.45 456.829 354.412C456.829 354.372 456.859 354.32 456.89 354.279L457.986 352.077C457.986 352.077 457.986 352.036 458.016 352.036C458.047 351.943 458.098 351.882 458.15 351.821C459.511 349.497 461.283 347.458 463.331 345.789C467.825 342.153 473.672 340.228 479.857 340.863C481.167 340.996 482.427 341.241 483.645 341.58H483.666C483.953 341.682 484.198 341.754 484.485 341.845L478.505 350.725L472.341 359.901L472.362 359.922C472.28 360.044 472.197 360.157 472.136 360.291C472.023 360.485 471.931 360.7 471.839 360.925C471.706 361.273 471.624 361.632 471.593 362.022C471.522 362.697 471.614 363.373 471.83 363.988" fill="#AFFF05"/>
<path d="M492.513 346.445C497.755 351.083 500.735 358.099 499.957 365.596C499.701 368.084 499.046 370.44 498.042 372.58C498.042 372.672 497.981 372.754 497.95 372.846C497.633 373.502 497.315 374.127 496.926 374.731L496.752 375.059L496.732 375.079C495.881 376.451 494.898 377.752 493.772 378.889C489.134 383.712 482.396 386.426 475.219 385.689C471.501 385.3 468.112 384.04 465.205 382.115C460.535 379.063 457.136 374.342 455.723 368.894C455.671 368.75 455.641 368.606 455.61 368.474C455.507 368.095 455.436 367.705 455.385 367.306C455.364 367.285 455.364 367.255 455.364 367.234C454.975 365.206 454.903 363.107 455.119 360.967C455.354 358.652 455.947 356.45 456.829 354.412C456.829 354.372 456.859 354.32 456.89 354.279L457.986 352.077C457.986 352.077 457.986 352.036 458.016 352.036C458.047 351.943 458.098 351.882 458.15 351.821C459.511 349.497 461.283 347.458 463.331 345.789C467.825 342.153 473.672 340.228 479.857 340.863C481.167 340.996 482.427 341.241 483.645 341.58H483.666C483.953 341.682 484.198 341.754 484.485 341.845L478.505 350.725L472.341 359.901L472.362 359.922C472.28 360.044 472.197 360.157 472.136 360.291C472.023 360.485 471.931 360.7 471.839 360.925C471.706 361.273 471.624 361.632 471.593 362.022C471.522 362.697 471.614 363.373 471.83 363.988" stroke="black" stroke-linecap="round" stroke-linejoin="round"/>
<path d="M475.157 357.188C475.044 357.382 474.952 357.598 474.86 357.823C474.726 358.171 474.644 358.53 474.614 358.918C474.542 359.595 474.634 360.271 474.849 360.885" fill="#AFFF05"/>
<path d="M475.157 357.188C475.044 357.382 474.952 357.598 474.86 357.823C474.726 358.171 474.644 358.53 474.614 358.918C474.542 359.595 474.634 360.271 474.849 360.885" stroke="black" stroke-linecap="round" stroke-linejoin="round"/>
<path d="M486.891 354.811C489.216 357.362 490.475 360.854 490.096 364.571C489.952 365.995 489.584 367.337 489 368.556C488.786 369.058 488.509 369.538 488.212 369.979C488.017 370.306 487.803 370.624 487.567 370.921C487.382 371.198 487.168 371.454 486.932 371.699C484.321 374.587 480.42 376.247 476.252 375.816C472.105 375.386 468.634 372.97 466.668 369.61C466.259 368.924 465.921 368.208 465.675 367.449C465.398 366.753 465.224 366.056 465.112 365.33C464.938 364.326 464.886 363.291 464.999 362.226C464.989 362.134 464.999 362.062 464.999 361.97C465.194 360.137 465.747 358.458 466.638 356.973C468.982 352.887 473.549 350.316 478.516 350.716" fill="#AFFF05"/>
<path d="M486.891 354.811C489.216 357.362 490.475 360.854 490.096 364.571C489.952 365.995 489.584 367.337 489 368.556C488.786 369.058 488.509 369.538 488.212 369.979C488.017 370.306 487.803 370.624 487.567 370.921C487.382 371.198 487.168 371.454 486.932 371.699C484.321 374.587 480.42 376.247 476.252 375.816C472.105 375.386 468.634 372.97 466.668 369.61C466.259 368.924 465.921 368.208 465.675 367.449C465.398 366.753 465.224 366.056 465.112 365.33C464.938 364.326 464.886 363.291 464.999 362.226C464.989 362.134 464.999 362.062 464.999 361.97C465.194 360.137 465.747 358.458 466.638 356.973C468.982 352.887 473.549 350.316 478.516 350.716" stroke="black" stroke-linecap="round" stroke-linejoin="round"/>
<path d="M270.818 395.981C272.825 398.429 274.289 401.277 275.119 404.329C275.948 407.38 276.111 410.586 275.62 413.71L239.936 392.161C244.584 388.69 250.39 387.154 256.145 387.861C261.9 388.567 267.163 391.475 270.818 395.972V395.981Z" fill="#001E2B" stroke="black" stroke-linecap="round" stroke-linejoin="round"/>
<path d="M276.522 414.263L273.778 419.793L273.399 420.602C270.778 425.836 266.221 429.84 260.692 431.775C255.173 433.711 249.111 433.415 243.797 430.956C238.483 428.498 234.335 424.064 232.237 418.605C230.137 413.146 230.24 407.073 232.534 401.686L234.09 398.624L237.94 391.036L239.916 392.244L275.6 413.792L276.533 414.274L276.522 414.263Z" fill="black" stroke="black" stroke-linecap="round" stroke-linejoin="round"/>
<path d="M255.009 424.903C267.388 426.183 278.457 417.181 279.737 404.81C281.017 392.428 272.026 381.358 259.647 380.077C247.267 378.797 236.199 387.789 234.919 400.17C233.639 412.552 242.629 423.623 255.009 424.903Z" fill="#AFFF05" stroke="black" stroke-linecap="round" stroke-linejoin="round"/>
<path d="M256.032 415.031C262.955 415.747 269.159 410.709 269.876 403.786C270.593 396.862 265.556 390.657 258.633 389.94C251.702 389.222 245.506 394.261 244.79 401.185C244.073 408.118 249.111 414.314 256.032 415.031Z" fill="#AFFF05" stroke="black" stroke-linecap="round" stroke-linejoin="round"/>
<path d="M171.446 216.011L202.655 170.868L289.169 360.107L257.466 404.636L171.436 216.021L171.446 216.011Z" fill="#00EB64" stroke="black" stroke-linecap="round" stroke-linejoin="round"/>
<path d="M510.78 313.846L504.094 315.239L494.017 317.349C492.522 313.918 491.867 310.077 492.277 306.073C492.491 304.015 492.963 302.049 493.69 300.205L491.529 304.486L489.973 307.547C488.632 311.019 488.171 314.778 488.642 318.465L474.449 321.435L439.912 328.635L399.804 337.002V337.023L359.584 345.399L324.759 352.661L312.41 355.251L307.527 356.256L302.243 357.361L295.782 358.734L295.598 358.765L289.168 360.116L285.86 352.906V352.886L285.768 352.692L282.245 344.96L280.403 340.924L278.068 335.834L268.372 314.604H268.351L245.957 265.62L223.175 215.776L202.654 170.878L251.384 161.026L302.888 150.611L360.055 139.047L415.819 127.772L467.446 117.326L516.473 107.412L515.142 156.335L513.637 211.105L512.121 265.804L511.578 286.092L511.302 296.293L511.015 306.36L510.81 313.867L510.78 313.846Z" fill="#FFE012" stroke="black" stroke-linecap="round" stroke-linejoin="round"/>
<path d="M479.498 360.055L468.112 362.216L462.552 363.353L461.62 363.527L460.668 363.701L460.647 363.722L458.405 364.172L454.616 364.92L454.289 364.982L446.199 366.62H446.179L424.512 370.993H424.441L409.348 374.045L374.298 381.101L369.905 381.971L333.197 389.366L333.177 389.386L292.986 397.466L279.737 400.119L274.054 401.267L269.918 402.096L262.811 403.54L262.043 403.683L259.78 404.134H259.688L259.667 404.144L259.084 404.287L257.477 404.605L258.143 403.663L258.357 403.345L258.409 403.304L260.743 399.996L265.72 393.032L266.518 391.926L271.474 384.931L273.112 382.627L273.778 381.715L275.273 379.606L277.792 376.042L278.836 374.598L280.249 372.611L284.642 366.425L289.167 360.076L295.598 358.724L295.782 358.693L302.244 357.321L307.527 356.214L312.411 355.211L324.76 352.62L359.584 345.359L399.805 336.981V336.962L439.913 328.594L474.45 321.394L488.642 318.425C488.857 320.349 489.348 322.255 490.096 324.088C490.935 326.167 499.178 326.833 500.571 328.553L479.426 360.015" fill="#00EB64"/>
<path d="M479.498 360.055L468.112 362.216L462.552 363.353L461.62 363.527L460.668 363.701L460.647 363.722L458.405 364.172L454.616 364.92L454.289 364.982L446.199 366.62H446.179L424.512 370.993H424.441L409.348 374.045L374.298 381.101L369.905 381.971L333.197 389.366L333.177 389.386L292.986 397.466L279.737 400.119L274.054 401.267L269.918 402.096L262.811 403.54L262.043 403.683L259.78 404.134H259.688L259.667 404.144L259.084 404.287L257.477 404.605L258.143 403.663L258.357 403.345L258.409 403.304L260.743 399.996L265.72 393.032L266.518 391.926L271.474 384.931L273.112 382.627L273.778 381.715L275.273 379.606L277.792 376.042L278.836 374.598L280.249 372.611L284.642 366.425L289.167 360.076L295.598 358.724L295.782 358.693L302.244 357.321L307.527 356.214L312.411 355.211L324.76 352.62L359.584 345.359L399.805 336.981V336.962L439.913 328.594L474.45 321.394L488.642 318.425C488.857 320.349 489.348 322.255 490.096 324.088C490.935 326.167 499.178 326.833 500.571 328.553L479.426 360.015" stroke="black" stroke-linecap="round" stroke-linejoin="round"/>
<path d="M510.78 313.846L507.544 318.773L502.107 327.068C498.533 324.682 495.708 321.282 494.008 317.349L504.083 315.239L510.769 313.846H510.78Z" fill="#00EB64" stroke="black" stroke-linecap="round" stroke-linejoin="round"/>
<path d="M266.682 351.052L265.126 354.115C265.556 353.05 266.078 352.025 266.682 351.052Z" fill="#001E2B" stroke="black" stroke-linecap="round" stroke-linejoin="round"/>
<path d="M303.39 348.482C305.397 350.93 306.852 353.777 307.68 356.839C308.51 359.891 308.684 363.086 308.192 366.22L272.487 344.673C277.136 341.211 282.952 339.674 288.707 340.381C294.461 341.088 299.724 343.997 303.39 348.492V348.482Z" fill="#001E2B" stroke="black" stroke-linecap="round" stroke-linejoin="round"/>
<path d="M533.901 320.176L533.88 320.196C529.498 327.344 521.265 331.728 512.378 330.807C508.578 330.417 505.077 329.085 502.128 327.067C498.555 324.682 495.728 321.282 494.028 317.349C492.534 313.919 491.878 310.078 492.288 306.074C492.502 304.014 492.974 302.049 493.701 300.205C493.722 300.184 493.732 300.144 493.762 300.092L495.37 296.897L497.346 298.105L503.828 302.028L510.995 306.34L525.402 315.035L533.051 319.643L533.911 320.166L533.901 320.176Z" fill="black" stroke="black" stroke-linecap="round" stroke-linejoin="round"/>
<path d="M537.095 310.712C536.737 314.194 535.601 317.4 533.901 320.176C533.901 320.196 533.88 320.196 533.88 320.196C529.498 327.344 521.265 331.728 512.378 330.806C508.578 330.417 505.077 329.085 502.128 327.068C498.555 324.682 495.728 321.282 494.028 317.349C492.534 313.918 491.878 310.078 492.288 306.074C492.502 304.015 492.974 302.049 493.701 300.205C493.722 300.184 493.732 300.144 493.762 300.092C496.711 292.595 503.562 287.189 511.569 286.072C513.33 285.816 515.173 285.786 517.026 285.97C529.405 287.25 538.396 298.321 537.116 310.702L537.095 310.712Z" fill="#AFFF05" stroke="black" stroke-linecap="round" stroke-linejoin="round"/>
<path d="M513.401 320.934C520.323 321.651 526.527 316.612 527.244 309.689C527.961 302.766 522.923 296.56 516.001 295.842C509.07 295.125 502.875 300.165 502.158 307.088C501.441 314.01 506.479 320.217 513.401 320.934Z" fill="#AFFF05" stroke="black" stroke-linecap="round" stroke-linejoin="round"/>
<path d="M275.876 379.739C278.416 380.005 280.689 378.151 280.944 375.622C281.211 373.081 279.358 370.809 276.828 370.553C274.289 370.286 272.016 372.139 271.76 374.669C271.494 377.209 273.347 379.483 275.876 379.739Z" fill="#001E2B"/>
<path d="M272.539 372.559L254.191 399.351C252.768 401.46 253.33 404.328 255.44 405.752C257.549 407.175 260.416 406.612 261.839 404.502L280.189 377.711L272.539 372.569V372.559Z" fill="black" stroke="black" stroke-linecap="round" stroke-linejoin="round"/>
<path d="M152.882 202.124L171.446 216.011" stroke="black" stroke-linecap="round" stroke-linejoin="round"/>
<path d="M179.523 153.55L202.644 170.868" stroke="black" stroke-linecap="round" stroke-linejoin="round"/>
<path d="M181.982 156.366L151.55 202.831L151.53 202.984C151.079 203.691 150.485 204.295 149.789 204.767C149.093 205.237 148.315 205.565 147.485 205.719C146.666 205.883 145.816 205.862 144.997 205.688C144.178 205.503 143.4 205.166 142.713 204.674C142.027 204.182 141.453 203.557 141.024 202.841C140.594 202.124 140.307 201.325 140.194 200.486C140.082 199.656 140.133 198.806 140.359 197.996C140.583 197.188 140.963 196.429 141.485 195.774L173.114 147.968L181.992 156.345L181.982 156.366Z" fill="#AFFF05" stroke="black" stroke-linecap="round" stroke-linejoin="round"/>
<path d="M177.425 157.728C180.824 158.076 183.865 155.608 184.224 152.208C184.572 148.807 182.104 145.766 178.705 145.407C175.305 145.059 172.264 147.528 171.906 150.928C171.558 154.328 174.025 157.37 177.425 157.728Z" fill="#AFFF05" stroke="black" stroke-linecap="round" stroke-linejoin="round"/>
<path d="M302.889 150.6L359.942 344.826L333.187 389.407" stroke="black" stroke-linecap="round" stroke-linejoin="round"/>
<path d="M446.169 366.661L446.179 366.63" stroke="black" stroke-linecap="round" stroke-linejoin="round"/>
<path d="M446.199 366.64L446.394 366.292L447.685 364.223L460.401 343.915L474.44 321.435L472.792 273.66L470.938 219.78L469.095 165.695L467.416 117.305" stroke="black" stroke-linecap="round" stroke-linejoin="round"/>
<path d="M409.358 374.055L439.913 328.635L415.809 127.751" stroke="black" stroke-linecap="round" stroke-linejoin="round"/>
<path d="M369.916 381.981L399.805 337.022L360.045 139.027" stroke="black" stroke-linecap="round" stroke-linejoin="round"/>
<path d="M292.987 397.477L324.76 352.661L251.373 161.005" stroke="black" stroke-linecap="round" stroke-linejoin="round"/>
<path d="M191.709 260.469L223.175 215.755L515.121 156.314" stroke="black" stroke-linecap="round" stroke-linejoin="round"/>
<path d="M215.024 311.562L245.957 265.61L513.626 211.096" stroke="black" stroke-linecap="round" stroke-linejoin="round"/>
<path d="M237.315 360.434L268.352 314.583L512.111 265.784" stroke="black" stroke-linecap="round" stroke-linejoin="round"/>
<path d="M493.455 329.874C492.051 328.154 490.926 326.207 490.096 324.129C489.349 322.285 488.857 320.38 488.643 318.465C488.182 314.779 488.642 311.031 489.974 307.548L491.529 304.486L493.69 300.205C492.973 302.059 492.492 304.015 492.277 306.074C491.857 310.078 492.512 313.928 494.017 317.349C495.717 321.282 498.544 324.682 502.118 327.068C505.066 329.085 508.568 330.417 512.367 330.806C521.265 331.728 529.497 327.334 533.869 320.196L531.146 325.706L530.746 326.515C528.003 331.544 523.477 335.323 518.029 337.125C512.581 338.917 506.674 338.558 501.493 336.142C501.206 335.999 500.929 335.875 500.642 335.732" fill="black"/>
<path d="M493.455 329.874C492.051 328.154 490.926 326.207 490.096 324.129C489.349 322.285 488.857 320.38 488.643 318.465C488.182 314.779 488.642 311.031 489.974 307.548L491.529 304.486L493.69 300.205C492.973 302.059 492.492 304.015 492.277 306.074C491.857 310.078 492.512 313.928 494.017 317.349C495.717 321.282 498.544 324.682 502.118 327.068C505.066 329.085 508.568 330.417 512.367 330.806C521.265 331.728 529.497 327.334 533.869 320.196L531.146 325.706L530.746 326.515C528.003 331.544 523.477 335.323 518.029 337.125C512.581 338.917 506.674 338.558 501.493 336.142C501.206 335.999 500.929 335.875 500.642 335.732" stroke="black" stroke-linecap="round" stroke-linejoin="round"/>
<path d="M490.804 337.606L486.687 338.466H486.656L466.342 342.676L460.403 343.894V343.915L424.657 351.289L384.836 359.553L346.304 367.511L308.705 375.294L303.801 376.318L277.465 381.756L274.711 382.319L273.103 382.657L272.162 380.62L270.113 376.164L263.345 361.509L252.481 338.006L229.996 289.308L206.773 239.053L186.252 194.596" stroke="black" stroke-linecap="round" stroke-linejoin="round"/>
<path d="M309.094 366.763L306.238 372.283L305.838 373.093C303.165 378.243 298.619 382.176 293.121 384.051C287.632 385.925 281.621 385.618 276.358 383.18C271.095 380.743 266.969 376.359 264.849 370.962C262.73 365.555 262.781 359.543 264.983 354.177L266.539 351.114L270.389 343.525L272.345 344.734L308.049 366.282L309.094 366.784V366.763Z" fill="black" stroke="black" stroke-linecap="round" stroke-linejoin="round"/>
<path d="M287.561 377.394C299.94 378.674 311.008 369.683 312.289 357.301C313.568 344.919 304.578 333.847 292.199 332.568C279.819 331.288 268.75 340.279 267.47 352.661C266.191 365.043 275.18 376.114 287.561 377.394Z" fill="#AFFF05" stroke="black" stroke-linecap="round" stroke-linejoin="round"/>
<path d="M288.584 367.531C295.516 368.248 301.711 363.21 302.428 356.286C303.145 349.363 298.106 343.157 291.185 342.441C284.253 341.723 278.058 346.762 277.341 353.685C276.625 360.619 281.663 366.814 288.584 367.531Z" fill="#AFFF05" stroke="black" stroke-linecap="round" stroke-linejoin="round"/>
<path d="M503.199 333.702C504.648 331.555 504.084 328.641 501.94 327.193C499.795 325.746 496.883 326.312 495.434 328.46L473.996 360.223C472.547 362.37 473.111 365.284 475.255 366.732C477.4 368.18 480.313 367.613 481.762 365.466L503.199 333.702Z" fill="black" stroke="black" stroke-linecap="round" stroke-linejoin="round"/>
<path d="M599.596 128.295C609.374 128.295 617.3 120.367 617.3 110.588C617.3 100.808 609.374 92.8804 599.596 92.8804C589.819 92.8804 581.892 100.808 581.892 110.588C581.892 120.367 589.819 128.295 599.596 128.295Z" fill="white" stroke="black" stroke-miterlimit="10"/>
<path d="M586.5 122.447C586.5 122.447 609.784 119.262 615.969 103.634C618.753 109.298 618.068 121.259 608.668 125.684C599.269 130.108 591.772 126.738 586.5 122.447Z" fill="black"/>
<path d="M537.207 143.595L532.375 271.294" stroke="black" stroke-linecap="round" stroke-linejoin="round"/>
<path d="M548.685 169.812L545.695 248.578" stroke="black" stroke-linecap="round" stroke-linejoin="round"/>
<path d="M216.683 361.018L226.912 382.914" stroke="black" stroke-linecap="round" stroke-linejoin="round"/>
<path d="M178.377 278.944L189.988 303.821L211.235 349.343" stroke="black" stroke-linecap="round" stroke-linejoin="round"/>
<path d="M122.029 285.386L100.342 294.491L79.6992 277.767L100.803 268.181L122.029 285.386Z" fill="black" stroke="black" stroke-linejoin="round"/>
<path d="M122.07 285.345L126.472 262.231L105.829 245.507L100.843 268.14L122.07 285.345Z" fill="white" stroke="black" stroke-linejoin="round"/>
<path d="M84.9316 255.318L79.6992 277.767L100.843 268.14L105.831 245.507L84.9316 255.318Z" fill="white" stroke="black" stroke-linejoin="round"/>
</g>
</g>
</g>
</g>
<defs>
<clipPath id="clip0_635_808">
<rect width="696" height="464" fill="white"/>
</clipPath>
<clipPath id="clip1_635_808">
<rect width="723" height="485" fill="white" transform="translate(-13 -10)"/>
</clipPath>
</defs>
</svg>