<?xml version="1.0" encoding="utf-8"?>
<svg xmlns="http://www.w3.org/2000/svg" width="696" height="464" viewBox="0 0 696 464" fill="none">
<g clip-path="url(#clip0_849_617)">
<g clip-path="url(#clip1_849_617)">
<mask id="mask0_849_617" style="mask-type:luminance" maskUnits="userSpaceOnUse" x="137" y="27" width="423" height="411">
<path d="M559.801 27H137V438H559.801V27Z" fill="white"/>
</mask>
<g mask="url(#mask0_849_617)">
<path d="M299.537 40.0273H403.248C419.386 40.026 435.365 43.2005 450.274 49.3698C465.182 55.539 478.729 64.5822 490.139 75.9826C501.551 87.3832 510.603 100.918 516.778 115.814C522.953 130.71 526.133 146.675 526.133 162.8V345.815H176.653V162.8C176.653 130.238 189.599 99.0105 212.642 75.9863C235.685 52.9622 266.939 40.0273 299.527 40.0273H299.537Z" fill="white" stroke="black" stroke-linecap="round" stroke-linejoin="round"/>
<path d="M303.947 57.9999H398.84C427.446 57.9999 454.879 69.3541 475.107 89.5646C495.334 109.775 506.697 137.187 506.697 165.769V210.651H196.11V165.737C196.11 137.155 207.474 109.743 227.701 89.533C247.928 69.3223 275.362 57.9683 303.968 57.9683L303.947 57.9999Z" fill="#FFE212" stroke="black" stroke-linecap="round" stroke-linejoin="round"/>
<path d="M335.469 274.942C346.892 274.942 356.152 265.69 356.152 254.276C356.152 242.862 346.892 233.609 335.469 233.609C324.046 233.609 314.785 242.862 314.785 254.276C314.785 265.69 324.046 274.942 335.469 274.942Z" fill="white" stroke="black" stroke-linecap="round" stroke-linejoin="round"/>
<path d="M335.468 266.627C337.799 266.627 339.688 264.74 339.688 262.411C339.688 260.083 337.799 258.195 335.468 258.195C333.138 258.195 331.25 260.083 331.25 262.411C331.25 264.74 333.138 266.627 335.468 266.627Z" fill="#00ED64" stroke="black" stroke-linecap="round" stroke-linejoin="round"/>
<path d="M348.38 243.235L338.038 258.195" stroke="black" stroke-linecap="round" stroke-linejoin="round"/>
<path d="M318.074 254.392H322.674" stroke="black" stroke-linecap="round" stroke-linejoin="round"/>
<path d="M348.263 254.392H352.852" stroke="black" stroke-linecap="round" stroke-linejoin="round"/>
<path d="M335.204 236.811V241.396" stroke="black" stroke-linecap="round" stroke-linejoin="round"/>
<path d="M325.909 246.066L322.674 242.833" stroke="black" stroke-linecap="round" stroke-linejoin="round"/>
<path d="M317.154 263.87C318.906 267.21 321.539 270.007 324.768 271.959C327.998 273.911 331.7 274.942 335.474 274.942C339.248 274.942 342.95 273.911 346.179 271.959C349.408 270.007 352.042 267.21 353.794 263.87H317.154Z" fill="#FF9F10" stroke="black" stroke-linecap="round" stroke-linejoin="round"/>
<path d="M554.885 247.334H438.356V308.868H554.885V247.334Z" fill="black" stroke="black" stroke-linecap="round" stroke-linejoin="round"/>
<path d="M559.262 251.096H442.734V312.629H559.262V251.096Z" fill="white" stroke="black" stroke-linecap="round" stroke-linejoin="round"/>
<path d="M400.574 274.942C411.997 274.942 421.258 265.69 421.258 254.276C421.258 242.862 411.997 233.609 400.574 233.609C389.151 233.609 379.891 242.862 379.891 254.276C379.891 265.69 389.151 274.942 400.574 274.942Z" fill="white" stroke="black" stroke-linecap="round" stroke-linejoin="round"/>
<path d="M400.574 266.627C402.904 266.627 404.793 264.74 404.793 262.411C404.793 260.083 402.904 258.195 400.574 258.195C398.244 258.195 396.355 260.083 396.355 262.411C396.355 264.74 398.244 266.627 400.574 266.627Z" fill="#00ED64" stroke="black" stroke-linecap="round" stroke-linejoin="round"/>
<path d="M413.485 243.235L403.144 258.195" stroke="black" stroke-linecap="round" stroke-linejoin="round"/>
<path d="M383.19 254.392H387.78" stroke="black" stroke-linecap="round" stroke-linejoin="round"/>
<path d="M413.38 254.392H417.969" stroke="black" stroke-linecap="round" stroke-linejoin="round"/>
<path d="M400.31 236.811V241.396" stroke="black" stroke-linecap="round" stroke-linejoin="round"/>
<path d="M391.026 246.066L387.78 242.833" stroke="black" stroke-linecap="round" stroke-linejoin="round"/>
<path d="M382.238 263.87C383.991 267.21 386.624 270.007 389.853 271.959C393.083 273.911 396.785 274.942 400.559 274.942C404.333 274.942 408.035 273.911 411.264 271.959C414.493 270.007 417.127 267.21 418.878 263.87H382.238Z" fill="#FF9F10" stroke="black" stroke-linecap="round" stroke-linejoin="round"/>
<path d="M559.272 281.863V297.173H442.734V281.863" fill="#FF9F10"/>
<path d="M559.272 281.863V297.173H442.734V281.863" stroke="black" stroke-linecap="round" stroke-linejoin="round"/>
<path d="M442.734 281.862V266.553H559.272V281.862" fill="#FFEEA9"/>
<path d="M442.734 281.862V266.553H559.272V281.862" stroke="black" stroke-linecap="round" stroke-linejoin="round"/>
<path d="M443.306 281.863H559.273" stroke="black" stroke-miterlimit="10" stroke-dasharray="2 2"/>
<path d="M443.306 270.272C452.97 270.272 452.97 293.453 462.635 293.453C472.3 293.453 472.3 270.272 481.954 270.272C491.608 270.272 491.619 293.453 501.284 293.453C510.949 293.453 510.949 270.272 520.614 270.272C530.278 270.272 530.278 293.453 539.944 293.453C549.608 293.453 549.608 270.272 559.273 270.272" stroke="black" stroke-linecap="round" stroke-linejoin="round"/>
<path d="M303.947 57.9999H398.84C427.446 57.9999 454.879 69.3541 475.107 89.5646C495.334 109.775 506.697 137.187 506.697 165.769V210.651H196.11V165.737C196.11 137.155 207.474 109.743 227.701 89.533C247.928 69.3223 275.362 57.9683 303.968 57.9683L303.947 57.9999Z" stroke="black" stroke-miterlimit="10"/>
<path d="M254.544 239.157L238.894 256.865C252.906 266.247 262.999 280.425 267.275 296.729L231.978 292.058C213.636 289.629 195.074 289.332 176.664 291.17V345.815H220.452L241.315 320.892H269.125C268.276 329.596 265.762 338.057 261.723 345.815H287.387C294.276 326.884 294.792 306.223 288.856 286.973C282.921 267.721 270.858 250.932 254.501 239.157H254.544Z" fill="black" stroke="black" stroke-linecap="round" stroke-linejoin="round"/>
<path d="M412.586 305.942H331.937V311.784H412.586V305.942Z" fill="white" stroke="black" stroke-linecap="round" stroke-linejoin="round"/>
<path d="M355.516 295.503H352.735V322.223H355.516V295.503Z" fill="black" stroke="black" stroke-linecap="round" stroke-linejoin="round"/>
<path d="M366.884 295.503H355.834V322.223H366.884V295.503Z" fill="#FF9F10" stroke="black" stroke-linecap="round" stroke-linejoin="round"/>
<path d="M294.113 296.886L255.972 291.837C236.017 289.195 215.801 289.195 195.847 291.837L157.716 296.886V319.392H186.901L211.793 349.144V381.898H240.026V349.144L264.928 319.392H294.113V296.886Z" fill="#00ED64" stroke="black" stroke-linecap="round" stroke-linejoin="round"/>
<path d="M277.553 241.291L262.591 258.196C274.34 266.053 283.249 277.476 288.004 290.779C292.759 304.083 293.107 318.56 288.998 332.076C284.889 345.593 276.539 357.431 265.182 365.844C253.826 374.256 240.062 378.798 225.924 378.798C211.787 378.798 198.024 374.256 186.666 365.844C175.309 357.431 166.96 345.593 162.851 332.076C158.741 318.56 159.09 304.083 163.845 290.779C168.6 277.476 177.509 266.053 189.258 258.196L174.296 241.291C159.12 252.205 147.8 267.646 141.962 285.394C136.125 303.142 136.072 322.283 141.81 340.065C147.548 357.846 158.782 373.349 173.897 384.348C189.011 395.345 207.227 401.271 225.924 401.271C244.623 401.271 262.838 395.345 277.953 384.348C293.067 373.349 304.301 357.846 310.039 340.065C315.778 322.283 315.724 303.142 309.886 285.394C304.049 267.646 292.729 252.205 277.553 241.291Z" fill="#B1FF05" stroke="black" stroke-linecap="round" stroke-linejoin="round"/>
<path d="M225.909 331.922C234.027 331.922 240.607 325.347 240.607 317.236C240.607 309.125 234.027 302.549 225.909 302.549C217.792 302.549 211.211 309.125 211.211 317.236C211.211 325.347 217.792 331.922 225.909 331.922Z" fill="#B1FF05" stroke="black" stroke-linecap="round" stroke-linejoin="round"/>
<path d="M287.99 420.568C291.015 418.551 293.927 416.372 296.714 414.037" stroke="black" stroke-miterlimit="10" stroke-dasharray="2 2"/>
<path d="M186.044 426.199C200.159 433.526 215.817 437.389 231.723 437.467C247.628 437.547 263.324 433.839 277.511 426.653" stroke="black" stroke-miterlimit="10" stroke-dasharray="2 2"/>
<path d="M199.156 153.259C193.564 153.235 188.034 152.075 182.905 149.849C177.775 147.622 173.152 144.378 169.317 140.31C165.482 136.244 162.515 131.44 160.596 126.191C158.677 120.942 157.847 115.358 158.156 109.779C158.464 104.2 159.906 98.7413 162.392 93.7359C164.878 88.7305 168.357 84.2826 172.617 80.6627C176.878 77.0428 181.831 74.3266 187.175 72.6792C192.519 71.032 198.142 70.4878 203.703 71.0801H204.02L204.179 70.8053C210.207 60.232 219.566 51.9483 230.798 47.2455C242.031 42.5428 254.504 41.6852 266.275 44.8065C278.046 47.9276 288.454 54.8523 295.874 64.5011C303.295 74.1498 307.312 85.9805 307.299 98.149V98.7089H307.796C315.037 98.7089 321.982 101.577 327.11 106.685C332.237 111.792 335.129 118.723 335.151 125.957V126.454H335.648C337.472 126.349 339.297 126.623 341.01 127.257C344.051 128.348 346.597 130.498 348.178 133.314C349.76 136.129 350.272 139.419 349.62 142.582C348.968 145.744 347.196 148.565 344.629 150.527C342.062 152.488 338.873 153.458 335.648 153.259H199.156Z" fill="black" stroke="black" stroke-linecap="round" stroke-linejoin="round"/>
<path d="M199.155 136.861C193.804 136.875 188.501 135.837 183.551 133.804C178.601 131.771 174.101 128.784 170.306 125.013C166.511 121.242 163.497 116.761 161.436 111.826C159.374 106.892 158.306 101.6 158.291 96.2521C158.277 90.9048 159.316 85.6069 161.351 80.6609C163.385 75.715 166.375 71.218 170.149 67.4265C173.923 63.635 178.407 60.6234 183.346 58.5636C188.285 56.5037 193.581 55.4361 198.933 55.4216C200.509 55.4145 202.084 55.5026 203.649 55.6857H204.273L204.411 55.4321L204.569 55.1468C210.54 44.6663 219.815 36.4548 230.946 31.7929C242.077 27.131 254.44 26.2807 266.105 29.3748C277.771 32.4688 288.084 39.3332 295.436 48.8974C302.787 58.4615 306.765 70.1878 306.748 82.2475V83.304H307.753C311.281 83.2985 314.776 83.9875 318.037 85.3317C321.299 86.6759 324.263 88.6489 326.761 91.1381C329.259 93.6273 331.242 96.5839 332.597 99.8389C333.95 103.094 334.649 106.584 334.653 110.109V111.091H335.711C338.353 110.951 340.975 111.622 343.225 113.014C345.473 114.406 347.243 116.452 348.294 118.878C348.98 120.494 349.333 122.232 349.333 123.987C349.333 125.742 348.98 127.479 348.294 129.095C347.595 130.692 346.576 132.13 345.303 133.321C344.027 134.529 342.519 135.464 340.87 136.069C339.22 136.674 337.465 136.936 335.711 136.84L199.155 136.861Z" fill="white" stroke="black" stroke-linecap="round" stroke-linejoin="round"/>
<path d="M373.875 210.619H506.656" stroke="black" stroke-linecap="round" stroke-linejoin="round"/>
<path d="M323.35 384.307L321.299 398.02L319.194 411.639L308.313 403.028L297.506 394.354L310.502 389.346L323.35 384.307Z" fill="white" stroke="black" stroke-linecap="round" stroke-linejoin="round"/>
<path d="M313.674 396.477L297.506 394.354L319.194 411.639L313.674 396.477Z" fill="black" stroke="black" stroke-linecap="round" stroke-linejoin="round"/>
<path d="M313.146 397.132L323.351 384.307" stroke="black" stroke-linecap="round" stroke-linejoin="round"/>
<path d="M505.364 149.032C497.02 132.587 482.536 120.081 465.041 114.215C447.547 108.349 428.445 109.594 411.862 117.681C395.278 125.768 382.542 140.048 376.406 157.436C370.27 174.825 371.225 193.928 379.065 210.619H506.412L506.665 210.058V165.683C506.66 160.108 506.224 154.542 505.364 149.032Z" fill="#00ED64" stroke="black" stroke-miterlimit="10"/>
<path d="M505.365 149.032C499.724 137.999 491.278 128.642 480.875 121.9C490.055 135.307 494.299 151.481 492.882 167.665C491.464 183.849 484.475 199.04 473.103 210.651H506.411L506.666 210.09V165.715C506.667 160.129 506.232 154.551 505.365 149.032Z" fill="black" stroke="black" stroke-miterlimit="10"/>
</g>
</g>
</g>
<defs>
<clipPath id="clip0_849_617">
<rect width="696" height="464" fill="white"/>
</clipPath>
<clipPath id="clip1_849_617">
<rect width="423" height="411" fill="white" transform="translate(137 27)"/>
</clipPath>
</defs>
</svg>