<?xml version="1.0" encoding="utf-8"?>
<svg xmlns="http://www.w3.org/2000/svg" width="696" height="468" viewBox="0 0 696 468" fill="none">
<path d="M251 88.5C251 115.27 229.27 137 202.5 137C175.73 137 154 158.73 154 185.5V331C154 384.541 197.459 428 251 428C304.541 428 348 384.541 348 331C348 277.459 391.459 234 445 234C498.541 234 542 190.541 542 137C542 83.4594 498.549 40 445 40H299.5C272.73 40 251 61.7297 251 88.5Z" fill="#F9EBFF"/>
<g clip-path="url(#clip0_4953_16971)">
<path d="M500.543 193.831C500.593 193.039 500.627 192.239 500.627 191.431C500.627 170.42 483.561 153.383 462.514 153.383C445.929 153.383 431.824 163.96 426.586 178.714C416.792 179.245 408.474 185.3 404.703 193.822C396.141 195.195 389.595 202.606 389.595 211.541C389.595 221.452 397.643 229.486 407.572 229.486H497.599C507.528 229.486 515.575 221.452 515.575 211.541C515.575 202.631 509.071 195.237 500.543 193.839V193.831Z" fill="#011F2B"/>
<path d="M500.543 183.717C500.593 182.925 500.627 182.125 500.627 181.317C500.627 160.305 483.561 143.269 462.514 143.269C445.929 143.269 431.824 153.846 426.586 168.6C416.792 169.131 408.474 175.186 404.703 183.708C396.141 185.081 389.595 192.492 389.595 201.427C389.595 211.338 397.643 219.372 407.572 219.372H497.599C507.528 219.372 515.575 211.338 515.575 201.427C515.575 192.517 509.071 185.123 500.543 183.725V183.717Z" fill="white" stroke="#001E2B" stroke-linecap="round" stroke-linejoin="round"/>
<path d="M290.212 315.105V328.655C290.212 343.097 319.105 354.811 354.738 354.811C390.37 354.811 419.263 343.106 419.263 328.655V315.105H290.212Z" fill="#001E2B" stroke="#001E2B" stroke-width="0.75" stroke-linecap="round" stroke-linejoin="round"/>
<path d="M290.212 271.677V322.179C290.212 336.621 319.105 348.335 354.738 348.335C390.37 348.335 419.263 336.63 419.263 322.179V271.677C419.263 257.234 390.37 245.52 354.738 245.52C319.105 245.52 290.212 257.226 290.212 271.677Z" fill="#00ED64"/>
<path d="M419.263 271.677V322.179C419.263 336.622 390.37 348.336 354.738 348.336C319.105 348.336 290.212 336.63 290.212 322.179V271.677" stroke="#231F20" stroke-linecap="round" stroke-linejoin="round"/>
<path d="M419.263 297.488C419.263 311.93 390.37 323.644 354.738 323.644C319.105 323.644 290.212 311.939 290.212 297.488" stroke="#231F20" stroke-linecap="round" stroke-linejoin="round"/>
<path d="M406.703 256.173V337.682C414.599 333.346 419.264 327.981 419.264 322.179V271.677C419.264 265.874 414.599 260.51 406.703 256.173Z" fill="#011E2A" stroke="#001E2B" stroke-linecap="round" stroke-linejoin="round"/>
<path d="M354.738 297.833C390.374 297.833 419.263 286.123 419.263 271.677C419.263 257.231 390.374 245.52 354.738 245.52C319.101 245.52 290.212 257.231 290.212 271.677C290.212 286.123 319.101 297.833 354.738 297.833Z" fill="white" stroke="#231F20" stroke-linecap="round" stroke-linejoin="round"/>
<path d="M289.681 221.175V271.677C289.681 286.119 318.573 297.833 354.206 297.833C389.839 297.833 418.732 286.128 418.732 271.677V221.175C418.732 206.732 389.839 195.018 354.206 195.018C318.573 195.018 289.681 206.724 289.681 221.175Z" fill="#00ED64"/>
<path d="M406.171 205.671V287.18C414.067 282.843 418.732 277.479 418.732 271.677V221.174C418.732 215.372 414.067 210.008 406.171 205.671Z" fill="#001E2B" stroke="#001E2B" stroke-linecap="round" stroke-linejoin="round"/>
<path d="M354.206 247.331C389.843 247.331 418.732 235.62 418.732 221.175C418.732 206.729 389.843 195.018 354.206 195.018C318.57 195.018 289.681 206.729 289.681 221.175C289.681 235.62 318.57 247.331 354.206 247.331Z" fill="white" stroke="#231F20" stroke-linecap="round" stroke-linejoin="round"/>
<path d="M418.732 221.174V271.677C418.732 286.119 389.839 297.833 354.206 297.833C318.573 297.833 289.681 286.128 289.681 271.677V221.174" stroke="#231F20" stroke-linecap="round" stroke-linejoin="round"/>
<path d="M418.732 246.43C418.732 260.872 389.839 272.586 354.206 272.586C318.573 272.586 289.681 260.881 289.681 246.43" stroke="#231F20" stroke-linecap="round" stroke-linejoin="round"/>
<path d="M289.681 170.672V221.174C289.681 235.617 318.573 247.331 354.206 247.331C389.839 247.331 418.732 235.625 418.732 221.174V170.672C418.732 156.23 389.839 144.516 354.206 144.516C318.573 144.516 289.681 156.221 289.681 170.672Z" fill="#00ED64"/>
<path d="M406.171 155.168V236.678C414.067 232.341 418.732 226.977 418.732 221.174V170.672C418.732 164.87 414.067 159.505 406.171 155.168Z" fill="#001E2B" stroke="#001E2B" stroke-linecap="round" stroke-linejoin="round"/>
<path d="M354.206 196.828C389.843 196.828 418.732 185.118 418.732 170.672C418.732 156.226 389.843 144.516 354.206 144.516C318.57 144.516 289.681 156.226 289.681 170.672C289.681 185.118 318.57 196.828 354.206 196.828Z" fill="white" stroke="#231F20" stroke-linecap="round" stroke-linejoin="round"/>
<path d="M418.732 170.672V221.174C418.732 235.617 389.839 247.331 354.206 247.331C318.573 247.331 289.681 235.625 289.681 221.174V170.672" stroke="#231F20" stroke-linecap="round" stroke-linejoin="round"/>
<path d="M418.732 195.927C418.732 210.37 389.839 222.084 354.206 222.084C318.573 222.084 289.681 210.378 289.681 195.927" stroke="#231F20" stroke-linecap="round" stroke-linejoin="round"/>
<path d="M289.681 120.17V170.672C289.681 185.115 318.573 196.829 354.206 196.829C389.839 196.829 418.732 185.123 418.732 170.672V120.17C418.732 105.727 389.839 94.0134 354.206 94.0134C318.573 94.0134 289.681 105.719 289.681 120.17Z" fill="#00ED64"/>
<path d="M406.171 104.666V186.176C414.067 181.839 418.732 176.474 418.732 170.672V120.17C418.732 114.368 414.067 109.003 406.171 104.666Z" fill="#001E2B" stroke="#001E2B" stroke-linecap="round" stroke-linejoin="round"/>
<path d="M354.206 146.326C389.843 146.326 418.732 134.616 418.732 120.17C418.732 105.724 389.843 94.0134 354.206 94.0134C318.57 94.0134 289.681 105.724 289.681 120.17C289.681 134.616 318.57 146.326 354.206 146.326Z" fill="white" stroke="#231F20" stroke-linecap="round" stroke-linejoin="round"/>
<path d="M418.732 120.17V170.672C418.732 185.115 389.839 196.829 354.206 196.829C318.573 196.829 289.681 185.123 289.681 170.672V120.17" stroke="#231F20" stroke-linecap="round" stroke-linejoin="round"/>
<path d="M418.732 145.425C418.732 159.868 389.839 171.582 354.206 171.582C318.573 171.582 289.681 159.876 289.681 145.425" stroke="#231F20" stroke-linecap="round" stroke-linejoin="round"/>
<path d="M280.849 100.792C280.756 100.792 280.655 100.792 280.562 100.792C275.155 91.0743 264.77 84.4973 252.842 84.4973C235.337 84.4973 221.148 98.6619 221.148 116.136C221.148 133.61 235.337 147.775 252.842 147.775H280.849C293.848 147.775 304.385 137.257 304.385 124.279C304.385 111.302 293.848 100.784 280.849 100.784V100.792Z" fill="#011F2B"/>
<path d="M280.849 91.8996C280.756 91.8996 280.655 91.8996 280.562 91.8996C275.155 82.1815 264.77 75.6045 252.842 75.6045C235.337 75.6045 221.148 89.7691 221.148 107.243C221.148 124.717 235.337 138.882 252.842 138.882H280.849C293.848 138.882 304.385 128.364 304.385 115.387C304.385 102.409 293.848 91.8912 280.849 91.8912V91.8996Z" fill="white" stroke="#001E2B" stroke-linecap="round" stroke-linejoin="round"/>
<path d="M337.428 64.4211L335.386 74.6277L333.353 84.8427L325.517 77.9794L317.68 71.1076L327.55 67.7644L337.428 64.4211Z" fill="white" stroke="#001E2B" stroke-linecap="round" stroke-linejoin="round"/>
<path d="M329.709 73.2043L317.68 71.1074L333.353 84.8425L329.709 73.2043Z" fill="#001E2B"/>
<path d="M329.709 73.2045L337.428 64.4211" stroke="#001E2B" stroke-linecap="round" stroke-linejoin="round"/>
<path d="M467.002 200.812C472.281 200.812 476.56 196.54 476.56 191.271C476.56 186.001 472.281 181.729 467.002 181.729C461.723 181.729 457.444 186.001 457.444 191.271C457.444 196.54 461.723 200.812 467.002 200.812Z" fill="white" stroke="#001E2B" stroke-linecap="round" stroke-linejoin="round"/>
<path d="M461.206 198.85C461.206 198.85 473.244 194.841 474.965 185.999C477.023 188.761 477.808 195.085 473.303 198.437C468.798 201.797 464.437 200.635 461.206 198.85Z" fill="#001E2B"/>
<path d="M163.422 200.635V225.958" stroke="black" stroke-miterlimit="10" stroke-linecap="square" stroke-dasharray="2 2"/>
<path d="M163.422 184.205V196.601" stroke="black" stroke-miterlimit="10" stroke-linecap="square" stroke-dasharray="2 2"/>
<path d="M163.422 289.42V361.111" stroke="black" stroke-miterlimit="10" stroke-linecap="square" stroke-dasharray="2 2"/>
<path d="M402.527 363.991V377.541C402.527 391.983 431.42 403.697 467.053 403.697C502.686 403.697 531.579 391.991 531.579 377.541V363.991H402.527Z" fill="#001E2B" stroke="#001E2B" stroke-width="0.75" stroke-linecap="round" stroke-linejoin="round"/>
<path d="M402.527 320.571V371.073C402.527 385.515 431.42 397.229 467.053 397.229C502.686 397.229 531.579 385.524 531.579 371.073V320.571C531.579 306.128 502.686 294.414 467.053 294.414C431.42 294.414 402.527 306.12 402.527 320.571Z" fill="#00D2FF"/>
<path d="M531.579 320.562V371.064C531.579 385.507 502.686 397.221 467.053 397.221C431.42 397.221 402.527 385.515 402.527 371.064V320.562" stroke="#231F20" stroke-linecap="round" stroke-linejoin="round"/>
<path d="M531.579 346.373C531.579 360.816 502.686 372.53 467.053 372.53C431.42 372.53 402.527 360.824 402.527 346.373" stroke="#231F20" stroke-linecap="round" stroke-linejoin="round"/>
<path d="M519.018 305.067V386.577C526.914 382.24 531.579 376.875 531.579 371.073V320.571C531.579 314.768 526.914 309.404 519.018 305.067Z" fill="#011E2A" stroke="#001E2B" stroke-linecap="round" stroke-linejoin="round"/>
<path d="M467.053 346.719C502.69 346.719 531.579 335.008 531.579 320.562C531.579 306.116 502.69 294.406 467.053 294.406C431.416 294.406 402.527 306.116 402.527 320.562C402.527 335.008 431.416 346.719 467.053 346.719Z" fill="white" stroke="#231F20" stroke-linecap="round" stroke-linejoin="round"/>
<path d="M402.527 270.068V320.571C402.527 335.013 431.42 346.727 467.053 346.727C502.686 346.727 531.579 335.022 531.579 320.571V270.068C531.579 255.626 502.686 243.912 467.053 243.912C431.42 243.912 402.527 255.617 402.527 270.068Z" fill="#00D2FF"/>
<path d="M519.018 254.565V336.074C526.914 331.737 531.579 326.373 531.579 320.571V270.068C531.579 264.266 526.914 258.902 519.018 254.565Z" fill="#001E2B" stroke="#001E2B" stroke-linecap="round" stroke-linejoin="round"/>
<path d="M467.053 296.216C502.69 296.216 531.579 284.506 531.579 270.06C531.579 255.614 502.69 243.903 467.053 243.903C431.416 243.903 402.527 255.614 402.527 270.06C402.527 284.506 431.416 296.216 467.053 296.216Z" fill="white" stroke="#231F20" stroke-linecap="round" stroke-linejoin="round"/>
<path d="M531.579 270.06V320.562C531.579 335.005 502.686 346.719 467.053 346.719C431.42 346.719 402.527 335.013 402.527 320.562V270.06" stroke="#231F20" stroke-linecap="round" stroke-linejoin="round"/>
<path d="M531.579 295.315C531.579 309.758 502.686 321.472 467.053 321.472C431.42 321.472 402.527 309.766 402.527 295.315" stroke="#231F20" stroke-linecap="round" stroke-linejoin="round"/>
<path d="M252.85 138.882H279.912V126.233C279.912 123.825 276.209 121.761 270.979 120.936V81.3056C267.925 79.1751 264.483 77.575 260.771 76.615V120.936C255.541 121.761 251.838 123.825 251.838 126.233V138.857C252.175 138.865 252.504 138.882 252.842 138.882H252.85Z" fill="#001E2B" stroke="#001E2B" stroke-linecap="round" stroke-linejoin="round"/>
<path d="M177.366 363.991V377.541C177.366 391.983 206.259 403.697 241.892 403.697C277.525 403.697 306.417 391.991 306.417 377.541V363.991H177.366Z" fill="#001E2B" stroke="#001E2B" stroke-width="0.75" stroke-linecap="round" stroke-linejoin="round"/>
<path d="M177.366 320.571V371.073C177.366 385.515 206.259 397.229 241.892 397.229C277.525 397.229 306.417 385.524 306.417 371.073V320.571C306.417 306.128 277.525 294.414 241.892 294.414C206.259 294.414 177.366 306.12 177.366 320.571Z" fill="#00D2FF"/>
<path d="M306.417 320.562V371.064C306.417 385.507 277.525 397.221 241.892 397.221C206.259 397.221 177.366 385.515 177.366 371.064V320.562" stroke="#231F20" stroke-linecap="round" stroke-linejoin="round"/>
<path d="M306.417 346.373C306.417 360.816 277.525 372.53 241.892 372.53C206.259 372.53 177.366 360.824 177.366 346.373" stroke="#231F20" stroke-linecap="round" stroke-linejoin="round"/>
<path d="M293.856 305.067V386.577C301.752 382.24 306.417 376.875 306.417 371.073V320.571C306.417 314.768 301.752 309.404 293.856 305.067Z" fill="#011E2A" stroke="#001E2B" stroke-linecap="round" stroke-linejoin="round"/>
<path d="M241.892 346.719C277.528 346.719 306.417 335.008 306.417 320.562C306.417 306.116 277.528 294.406 241.892 294.406C206.255 294.406 177.366 306.116 177.366 320.562C177.366 335.008 206.255 346.719 241.892 346.719Z" fill="white" stroke="#231F20" stroke-linecap="round" stroke-linejoin="round"/>
<path d="M220.119 331.047L263.665 310.078" stroke="#001E2B" stroke-linecap="round" stroke-linejoin="round"/>
<path d="M263.665 331.047L220.119 310.078" stroke="#001E2B" stroke-linecap="round" stroke-linejoin="round"/>
<path d="M177.366 270.068V320.571C177.366 335.013 206.259 346.727 241.892 346.727C277.525 346.727 306.417 335.022 306.417 320.571V270.068C306.417 255.626 277.525 243.912 241.892 243.912C206.259 243.912 177.366 255.617 177.366 270.068V270.068Z" stroke="#001E2B" stroke-linecap="round" stroke-linejoin="round" stroke-dasharray="2 2"/>
<path d="M241.892 296.216C277.528 296.216 306.417 284.506 306.417 270.06C306.417 255.614 277.528 243.903 241.892 243.903C206.255 243.903 177.366 255.614 177.366 270.06C177.366 284.506 206.255 296.216 241.892 296.216Z" stroke="#001E2B" stroke-linecap="round" stroke-linejoin="round" stroke-dasharray="2 2"/>
<path d="M177.366 183.961V234.463C177.366 248.906 206.259 260.62 241.892 260.62C277.525 260.62 306.417 248.914 306.417 234.463V183.961C306.417 169.518 277.525 157.804 241.892 157.804C206.259 157.804 177.366 169.51 177.366 183.961Z" fill="#00D2FF"/>
<path d="M293.856 168.457V249.967C301.752 245.63 306.417 240.265 306.417 234.463V183.961C306.417 178.159 301.752 172.794 293.856 168.457Z" fill="#001E2B" stroke="#001E2B" stroke-linecap="round" stroke-linejoin="round"/>
<path d="M241.892 210.117C277.528 210.117 306.417 198.407 306.417 183.961C306.417 169.515 277.528 157.804 241.892 157.804C206.255 157.804 177.366 169.515 177.366 183.961C177.366 198.407 206.255 210.117 241.892 210.117Z" fill="white" stroke="#231F20" stroke-linecap="round" stroke-linejoin="round"/>
<path d="M306.417 183.961V234.463C306.417 248.906 277.525 260.62 241.892 260.62C206.259 260.62 177.366 248.914 177.366 234.463V183.961" stroke="#231F20" stroke-linecap="round" stroke-linejoin="round"/>
<path d="M306.417 209.208C306.417 223.65 277.525 235.364 241.892 235.364C206.259 235.364 177.366 223.659 177.366 209.208" stroke="#231F20" stroke-linecap="round" stroke-linejoin="round"/>
<path d="M199.671 160.188L201.628 162.141L201.839 163.287L200.38 163.767L199.671 160.188Z" fill="#00684A" stroke="#001E2B" stroke-width="0.75" stroke-linecap="round" stroke-linejoin="round"/>
<path d="M199.671 160.188L214.644 154.545L240.062 160.878L227.231 167.059L199.671 160.188Z" fill="#00ED64" stroke="black" stroke-linecap="round" stroke-linejoin="round"/>
<path d="M199.671 160.188L201.628 162.141L227.948 168.668L227.231 167.059L199.671 160.188Z" fill="#00684A" stroke="#001E2B" stroke-width="0.75" stroke-linecap="round" stroke-linejoin="round"/>
<path d="M244.887 168.457L232.056 162.276L193.563 196.399L206.394 202.58L244.887 168.457Z" fill="#00ED64" stroke="black" stroke-linecap="round" stroke-linejoin="round"/>
<path d="M244.886 168.457L246.506 169.148L208.013 203.271L206.394 202.58L244.886 168.457Z" fill="#00684A" stroke="#001E2B" stroke-width="0.75" stroke-linecap="round" stroke-linejoin="round"/>
<path d="M208.283 216.939H209.81L208.013 203.271L206.394 202.58L208.283 216.939Z" fill="#00684A" stroke="#001E2B" stroke-width="0.75" stroke-linecap="round" stroke-linejoin="round"/>
<path d="M208.284 216.939L195.453 210.757L193.563 196.399L206.394 202.58L208.284 216.939Z" fill="#00ED64" stroke="black" stroke-linecap="round" stroke-linejoin="round"/>
<path d="M237.108 168.457L249.939 162.276L288.432 196.399L275.601 202.58L237.108 168.457Z" fill="#00ED64" stroke="black" stroke-linecap="round" stroke-linejoin="round"/>
<path d="M237.108 168.457L235.497 169.148L273.981 203.271L275.601 202.58L237.108 168.457Z" fill="#00684A" stroke="#001E2B" stroke-width="0.75" stroke-linecap="round" stroke-linejoin="round"/>
<path d="M273.711 216.939H272.185L273.981 203.271L275.601 202.58L273.711 216.939Z" fill="#00684A" stroke="#001E2B" stroke-width="0.75" stroke-linecap="round" stroke-linejoin="round"/>
<path d="M273.712 216.939L286.543 210.757L288.432 196.399L275.602 202.58L273.712 216.939Z" fill="#00ED64" stroke="black" stroke-linecap="round" stroke-linejoin="round"/>
<path d="M209.811 216.939L211.641 201.679L244.887 177.476L240.998 173.763L208.014 203.271L209.811 216.939Z" fill="#001E2B"/>
<path d="M265.614 169.569L292.009 191.245L286.543 210.757L288.433 196.399L257.347 168.845L265.614 169.569Z" fill="#001E2B"/>
<path d="M201.839 163.455L201.628 162.141L225.527 168.07L221.823 171.354L201.839 163.455Z" fill="#001E2B"/>
<path d="M283.573 160.188L281.625 162.141L281.405 163.287L282.865 163.767L283.573 160.188Z" fill="#00684A" stroke="#001E2B" stroke-width="0.75" stroke-linecap="round" stroke-linejoin="round"/>
<path d="M283.574 160.188L268.609 154.545L243.191 160.878L256.022 167.059L283.574 160.188Z" fill="#00ED64" stroke="black" stroke-linecap="round" stroke-linejoin="round"/>
<path d="M283.573 160.188L281.624 162.141L255.305 168.668L256.022 167.059L283.573 160.188Z" fill="#00684A" stroke="#001E2B" stroke-width="0.75" stroke-linecap="round" stroke-linejoin="round"/>
<path d="M281.406 163.455L281.625 162.141L256.739 168.314L261.421 171.354L281.406 163.455Z" fill="#001E2B"/>
<path d="M226.446 135.69V167.683C226.446 171.043 233.161 173.763 241.454 173.763C249.746 173.763 256.461 171.043 256.461 167.683V135.69H226.455H226.446Z" fill="#00ED64" stroke="black" stroke-linecap="round" stroke-linejoin="round"/>
<path d="M241.454 141.77C249.742 141.77 256.461 139.048 256.461 135.69C256.461 132.332 249.742 129.61 241.454 129.61C233.165 129.61 226.446 132.332 226.446 135.69C226.446 139.048 233.165 141.77 241.454 141.77Z" fill="#00684A" stroke="#001E2B" stroke-width="0.75" stroke-linecap="round" stroke-linejoin="round"/>
<path d="M235.995 73.2129V135.421C235.995 136.642 238.442 137.636 241.453 137.636C244.465 137.636 246.911 136.642 246.911 135.421V73.2129H236.004H235.995Z" fill="#00ED64" stroke="black" stroke-linecap="round" stroke-linejoin="round"/>
<path d="M241.453 75.4276C244.467 75.4276 246.911 74.436 246.911 73.2128C246.911 71.9896 244.467 70.998 241.453 70.998C238.439 70.998 235.995 71.9896 235.995 73.2128C235.995 74.436 238.439 75.4276 241.453 75.4276Z" fill="#00684A" stroke="#001E2B" stroke-width="0.75" stroke-linecap="round" stroke-linejoin="round"/>
<path d="M324.875 96.8682L336.702 107.226L338.735 97.0198L339.19 94.7292C334.162 95.2177 329.363 95.9335 324.866 96.8682H324.875Z" fill="#001E2B" stroke="#001E2B" stroke-linecap="round" stroke-linejoin="round"/>
<path d="M467.027 206.681V270.06" stroke="black" stroke-miterlimit="10" stroke-linecap="square" stroke-dasharray="2 2"/>
</g>
<defs>
<clipPath id="clip0_4953_16971">
<rect width="369" height="340" fill="white" transform="translate(163 64)"/>
</clipPath>
</defs>
</svg>