<svg width="688" height="440" viewBox="0 0 688 440" fill="none" xmlns="http://www.w3.org/2000/svg">
<path d="M262.33 79.53C262.4 78.43 262.44 77.32 262.44 76.21C262.44 47.13 238.86 23.55 209.78 23.55C186.87 23.55 167.39 38.18 160.14 58.6101C146.61 59.34 135.12 67.7301 129.91 79.5101C118.08 81.4101 109.04 91.66 109.04 104.03C109.04 117.75 120.16 128.87 133.88 128.87H258.26C271.98 128.87 283.1 117.75 283.1 104.03C283.1 91.7 274.11 81.47 262.33 79.53Z" fill="#001F2C"/>
<path d="M262.33 67.23C262.4 66.13 262.44 65.02 262.44 63.91C262.44 34.83 238.86 11.25 209.78 11.25C186.87 11.25 167.39 25.88 160.14 46.31C146.61 47.04 135.12 55.43 129.91 67.21C118.08 69.11 109.04 79.36 109.04 91.73C109.04 105.45 120.16 116.57 133.88 116.57H258.26C271.98 116.57 283.1 105.45 283.1 91.73C283.1 79.4 274.11 69.17 262.33 67.23Z" fill="white"/>
<path d="M258.26 116.8H133.88C120.06 116.8 108.81 105.56 108.81 91.73C108.81 79.39 117.61 69.02 129.75 67.01C135.17 54.86 146.73 46.86 159.98 46.09C167.49 25.11 187.48 11.02 209.78 11.02C238.94 11.02 262.67 34.75 262.67 63.91C262.67 64.86 262.64 65.86 262.57 67.04C274.61 69.12 283.33 79.47 283.33 91.73C283.33 105.55 272.09 116.8 258.26 116.8ZM209.78 11.48C187.62 11.48 167.76 25.51 160.36 46.39L160.31 46.53H160.16C146.98 47.25 135.47 55.21 130.12 67.31L130.07 67.42L129.95 67.44C117.97 69.36 109.27 79.58 109.27 91.73C109.27 105.3 120.31 116.34 133.88 116.34H258.26C271.83 116.34 282.87 105.3 282.87 91.73C282.87 79.63 274.21 69.42 262.29 67.45L262.09 67.42V67.21C262.18 65.95 262.22 64.9 262.22 63.9C262.22 34.99 238.7 11.47 209.79 11.47L209.78 11.48Z" fill="#001E2B"/>
<path d="M503.05 98.54H196.64C180.508 98.54 167.43 111.618 167.43 127.75V335.7C167.43 351.832 180.508 364.91 196.64 364.91H503.05C519.182 364.91 532.26 351.832 532.26 335.7V127.75C532.26 111.618 519.182 98.54 503.05 98.54Z" fill="#001F2C"/>
<path d="M503.05 84.08H196.64C180.508 84.08 167.43 97.1578 167.43 113.29V321.24C167.43 337.372 180.508 350.45 196.64 350.45H503.05C519.182 350.45 532.26 337.372 532.26 321.24V113.29C532.26 97.1578 519.182 84.08 503.05 84.08Z" fill="#00D2FF"/>
<path d="M503.05 350.75H196.65C180.37 350.75 167.13 337.51 167.13 321.23V113.29C167.13 97.01 180.37 83.77 196.65 83.77H503.05C519.33 83.77 532.57 97.01 532.57 113.29V321.24C532.57 337.51 519.33 350.76 503.05 350.76V350.75ZM196.65 84.38C180.71 84.38 167.74 97.35 167.74 113.29V321.24C167.74 337.18 180.71 350.15 196.65 350.15H503.05C518.99 350.15 531.96 337.18 531.96 321.24V113.29C531.96 97.35 518.99 84.38 503.05 84.38H196.65Z" fill="#001E2B"/>
<path d="M167.43 133.33H532.26V321.24C532.26 337.36 519.17 350.45 503.05 350.45H196.65C180.53 350.45 167.44 337.36 167.44 321.24V133.33H167.43Z" fill="white"/>
<path d="M503.05 350.75H196.65C180.37 350.75 167.13 337.51 167.13 321.23V133.02H532.57V321.23C532.57 337.5 519.33 350.75 503.05 350.75ZM167.74 133.63V321.23C167.74 337.17 180.71 350.14 196.65 350.14H503.05C518.99 350.14 531.96 337.17 531.96 321.23V133.63H167.74Z" fill="#001E2B"/>
<path d="M532.26 133.02H167.43V133.63H532.26V133.02Z" fill="#231F20"/>
<path d="M198.02 116.78C201.919 116.78 205.08 113.619 205.08 109.72C205.08 105.821 201.919 102.66 198.02 102.66C194.121 102.66 190.96 105.821 190.96 109.72C190.96 113.619 194.121 116.78 198.02 116.78Z" fill="white"/>
<path d="M198.02 117.03C193.99 117.03 190.72 113.76 190.72 109.73C190.72 105.7 193.99 102.43 198.02 102.43C202.05 102.43 205.32 105.7 205.32 109.73C205.32 113.76 202.04 117.03 198.02 117.03ZM198.02 102.92C194.26 102.92 191.21 105.98 191.21 109.73C191.21 113.48 194.27 116.54 198.02 116.54C201.77 116.54 204.83 113.48 204.83 109.73C204.83 105.98 201.77 102.92 198.02 102.92Z" fill="#001E2B"/>
<path d="M217.57 116.78C221.469 116.78 224.63 113.619 224.63 109.72C224.63 105.821 221.469 102.66 217.57 102.66C213.671 102.66 210.51 105.821 210.51 109.72C210.51 113.619 213.671 116.78 217.57 116.78Z" fill="white"/>
<path d="M217.57 117.03C213.54 117.03 210.27 113.76 210.27 109.73C210.27 105.7 213.54 102.43 217.57 102.43C221.6 102.43 224.87 105.7 224.87 109.73C224.87 113.76 221.59 117.03 217.57 117.03ZM217.57 102.92C213.81 102.92 210.76 105.98 210.76 109.73C210.76 113.48 213.82 116.54 217.57 116.54C221.32 116.54 224.38 113.48 224.38 109.73C224.38 105.98 221.32 102.92 217.57 102.92Z" fill="#001E2B"/>
<path d="M237.13 116.78C241.029 116.78 244.19 113.619 244.19 109.72C244.19 105.821 241.029 102.66 237.13 102.66C233.231 102.66 230.07 105.821 230.07 109.72C230.07 113.619 233.231 116.78 237.13 116.78Z" fill="white"/>
<path d="M237.13 117.03C233.1 117.03 229.83 113.76 229.83 109.73C229.83 105.7 233.1 102.43 237.13 102.43C241.16 102.43 244.43 105.7 244.43 109.73C244.43 113.76 241.15 117.03 237.13 117.03ZM237.13 102.92C233.37 102.92 230.32 105.98 230.32 109.73C230.32 113.48 233.38 116.54 237.13 116.54C240.88 116.54 243.94 113.48 243.94 109.73C243.94 105.98 240.88 102.92 237.13 102.92Z" fill="#001E2B"/>
<path d="M367.71 245.89H331.99V350.45H367.71V245.89Z" fill="#006CFA"/>
<path d="M368.01 350.75H331.68V245.58H368.01V350.75ZM332.29 350.14H367.4V246.19H332.29V350.14Z" fill="#001E2B"/>
<path d="M432.29 201.71H396.57V350.45H432.29V201.71Z" fill="#006CFA"/>
<path d="M432.59 350.75H396.26V201.4H432.59V350.75ZM396.87 350.14H431.98V202.01H396.87V350.14Z" fill="#001E2B"/>
<path d="M496.87 162.46H461.15V350.45H496.87V162.46Z" fill="#006CFA"/>
<path d="M497.17 350.75H460.84V162.15H497.17V350.75ZM461.45 350.14H496.56V162.76H461.45V350.14Z" fill="#001E2B"/>
<path d="M303.13 271.92H267.41V350.44H303.13V271.92Z" fill="#006CFA"/>
<path d="M303.43 350.75H267.1V271.62H303.43V350.75ZM267.71 350.14H302.82V272.22H267.71V350.14Z" fill="#001E2B"/>
<path d="M238.56 293.81H202.84V350.45H238.56V293.81Z" fill="#006CFA"/>
<path d="M238.86 350.75H202.53V293.5H238.86V350.75ZM203.14 350.14H238.25V294.11H203.14V350.14Z" fill="#001E2B"/>
<path d="M547.46 202.04L558.82 209.35L570.18 216.66L558.17 222.84L546.16 229.03L546.81 215.53L547.46 202.04Z" fill="white"/>
<path d="M545.83 229.54L547.18 201.49L570.79 216.68L545.82 229.53L545.83 229.54ZM547.74 202.57L546.49 228.51L569.58 216.62L547.74 202.57Z" fill="#001E2B"/>
<path d="M554.4 215.52L546.16 229.03L570.18 216.66L554.4 215.52Z" fill="#001E2B"/>
<path d="M547.725 201.909L547.183 202.188L554.127 215.676L554.669 215.397L547.725 201.909Z" fill="#001E2B"/>
<path d="M281.38 96.11C288.692 96.11 294.62 90.1823 294.62 82.87C294.62 75.5578 288.692 69.63 281.38 69.63C274.068 69.63 268.14 75.5578 268.14 82.87C268.14 90.1823 274.068 96.11 281.38 96.11Z" fill="white"/>
<path d="M281.38 96.42C273.91 96.42 267.83 90.34 267.83 82.87C267.83 75.4 273.91 69.32 281.38 69.32C288.85 69.32 294.93 75.4 294.93 82.87C294.93 90.34 288.85 96.42 281.38 96.42ZM281.38 69.94C274.25 69.94 268.44 75.74 268.44 82.88C268.44 90.02 274.24 95.82 281.38 95.82C288.52 95.82 294.32 90.02 294.32 82.88C294.32 75.74 288.52 69.94 281.38 69.94Z" fill="#001E2B"/>
<path d="M273.93 93.82C276.05 95.27 278.62 96.12 281.38 96.12C288.69 96.12 294.62 90.19 294.62 82.88C294.62 80.11 293.77 77.55 292.32 75.43C287.65 82.86 281.35 89.15 273.92 93.83L273.93 93.82Z" fill="#001E2B"/>
<path d="M281.38 96.42C278.65 96.42 276.01 95.61 273.75 94.07L273.37 93.81L273.76 93.56C281.11 88.94 287.44 82.61 292.06 75.26L292.31 74.87L292.57 75.25C294.11 77.5 294.92 80.14 294.92 82.88C294.92 90.35 288.84 96.43 281.37 96.43L281.38 96.42ZM274.49 93.82C276.56 95.12 278.93 95.81 281.38 95.81C288.51 95.81 294.32 90.01 294.32 82.87C294.32 80.41 293.63 78.04 292.33 75.98C287.77 83.1 281.61 89.26 274.49 93.82Z" fill="#001E2B"/>
<path d="M212.07 408.94L226.45 415.14L239.01 405.79L237.19 390.23L222.81 384.03L210.25 393.38L212.07 408.94Z" fill="white"/>
<path d="M226.49 415.49L211.79 409.15L211.77 408.98L209.93 393.25L222.77 383.69L237.47 390.03L237.49 390.2L239.33 405.93L226.49 415.49ZM212.35 408.73L226.41 414.79L238.69 405.65L236.91 390.44L222.85 384.38L210.57 393.52L212.35 408.73Z" fill="#001E2B"/>
<path d="M237.19 390.23L222.81 384.03L224.63 399.59L239.01 405.79L237.19 390.23Z" fill="#001E2B"/>
<path d="M239.1 405.91L238.98 405.86L224.56 399.64V399.6L222.72 383.91L222.84 383.96L237.26 390.18V390.22L239.1 405.91ZM224.7 399.53L238.92 405.66L237.12 390.28L222.9 384.15L224.7 399.53Z" fill="#001E2B"/>
<path d="M224.459 399.308L211.902 408.665L212.266 409.154L224.824 399.797L224.459 399.308Z" fill="#001E2B"/>
<path d="M122.18 304.9V304.29C122.58 304.29 122.98 304.29 123.39 304.28V304.89C122.99 304.89 122.58 304.9 122.18 304.9ZM120.96 304.89C120.55 304.89 120.14 304.87 119.74 304.85L119.77 304.24C120.17 304.26 120.57 304.27 120.98 304.28V304.89H120.96ZM124.62 304.85L124.6 304.24C125 304.22 125.4 304.2 125.81 304.18L125.85 304.79C125.44 304.81 125.03 304.84 124.63 304.85H124.62ZM118.5 304.77C118.09 304.74 117.68 304.7 117.28 304.66L117.34 304.05C117.73 304.09 118.14 304.13 118.54 304.16L118.49 304.77H118.5ZM127.06 304.7L127.01 304.09C127.41 304.06 127.81 304.02 128.22 303.99L128.28 304.6C127.87 304.64 127.46 304.67 127.06 304.7ZM116.06 304.51C115.65 304.45 115.24 304.39 114.85 304.32L114.96 303.72C115.35 303.79 115.75 303.85 116.15 303.91L116.07 304.51H116.06ZM129.49 304.47L129.42 303.86C129.82 303.82 130.22 303.77 130.63 303.72L130.7 304.32C130.29 304.37 129.89 304.42 129.49 304.46V304.47ZM131.91 304.17L131.83 303.57C132.23 303.52 132.63 303.46 133.03 303.4L133.12 304C132.71 304.06 132.31 304.12 131.91 304.17ZM113.63 304.07C113.22 303.98 112.82 303.88 112.43 303.78L112.59 303.19C112.97 303.29 113.36 303.39 113.76 303.48L113.63 304.07ZM134.32 303.81L134.22 303.21C134.62 303.15 135.02 303.08 135.42 303.01L135.52 303.61C135.12 303.68 134.71 303.75 134.32 303.81ZM111.25 303.43C110.85 303.3 110.46 303.16 110.09 303.02L110.31 302.45C110.68 302.59 111.05 302.73 111.44 302.85L111.25 303.43ZM136.73 303.39L136.62 302.79C137.02 302.72 137.41 302.64 137.81 302.57L137.93 303.17C137.53 303.25 137.13 303.32 136.73 303.4V303.39ZM139.13 302.93L139.01 302.33C139.4 302.25 139.8 302.17 140.2 302.08L140.33 302.68C139.93 302.77 139.53 302.85 139.14 302.93H139.13ZM108.96 302.53C108.58 302.35 108.21 302.16 107.86 301.97L108.16 301.44C108.5 301.63 108.86 301.81 109.22 301.98L108.96 302.53ZM141.52 302.42L141.39 301.83C141.78 301.74 142.18 301.65 142.58 301.56L142.72 302.15C142.32 302.24 141.92 302.33 141.53 302.42H141.52ZM143.9 301.87L143.76 301.28C144.15 301.19 144.55 301.09 144.94 300.99L145.09 301.58C144.69 301.68 144.3 301.77 143.9 301.87ZM106.8 301.31C106.45 301.08 106.12 300.83 105.8 300.58L106.18 300.11C106.48 300.35 106.81 300.59 107.14 300.81L106.8 301.32V301.31ZM146.27 301.28L146.12 300.69C146.51 300.59 146.9 300.49 147.3 300.39L147.45 300.98C147.05 301.08 146.66 301.19 146.27 301.29V301.28ZM148.63 300.66L148.47 300.07C148.86 299.96 149.25 299.86 149.64 299.75L149.8 300.34C149.41 300.45 149.01 300.56 148.62 300.66H148.63ZM150.98 300.01L150.81 299.42C151.2 299.31 151.59 299.2 151.98 299.08L152.15 299.66C151.76 299.77 151.37 299.89 150.98 300V300.01ZM104.86 299.75C104.56 299.46 104.28 299.15 104.01 298.84L104.48 298.45C104.73 298.75 105 299.04 105.29 299.32L104.87 299.76L104.86 299.75ZM153.32 299.32L153.15 298.74C153.54 298.62 153.93 298.51 154.31 298.39L154.49 298.97C154.1 299.09 153.71 299.21 153.32 299.32ZM155.65 298.61L155.47 298.03C155.86 297.91 156.24 297.79 156.63 297.67L156.81 298.25C156.42 298.37 156.03 298.49 155.65 298.61ZM157.97 297.87L157.78 297.29L158.94 296.91L159.13 297.49L157.97 297.87ZM103.25 297.84C103.11 297.64 102.98 297.43 102.86 297.22C102.77 297.07 102.69 296.93 102.6 296.78L103.13 296.48C103.21 296.62 103.29 296.77 103.38 296.91C103.5 297.11 103.62 297.3 103.75 297.5L103.25 297.84ZM160.28 297.11L160.09 296.53L161.24 296.14L161.44 296.72L160.28 297.11ZM162.59 296.33L162.39 295.75L163.54 295.35L163.74 295.92L162.59 296.32V296.33ZM102.02 295.69C101.84 295.32 101.67 294.95 101.5 294.57L102.06 294.33C102.22 294.7 102.38 295.06 102.56 295.42L102.01 295.69H102.02ZM164.89 295.53L164.69 294.96L165.84 294.55L166.05 295.12L164.9 295.53H164.89ZM167.18 294.7L166.97 294.13L168.11 293.71L168.32 294.28L167.18 294.7ZM169.47 293.85L169.26 293.28L170.4 292.85L170.62 293.42L169.48 293.85H169.47ZM101.05 293.42C100.91 293.03 100.78 292.64 100.66 292.25L101.24 292.07C101.36 292.45 101.48 292.83 101.62 293.21L101.05 293.42ZM171.75 292.98L171.53 292.41L172.66 291.97L172.88 292.54L171.74 292.98H171.75ZM174.02 292.1L173.8 291.53L174.93 291.08L175.16 291.65L174.03 292.1H174.02ZM176.28 291.2L176.05 290.64L177.18 290.18L177.41 290.74L176.28 291.2ZM100.32 291.06C100.22 290.66 100.13 290.26 100.05 289.86L100.65 289.74C100.73 290.13 100.81 290.53 100.91 290.91L100.32 291.06ZM178.53 290.28L178.3 289.72L179.42 289.26L179.65 289.82L178.52 290.29L178.53 290.28ZM180.78 289.34L180.54 288.78L181.66 288.31L181.9 288.87L180.78 289.34ZM99.8401 288.64C99.7801 288.24 99.7301 287.83 99.6901 287.42L100.3 287.36C100.34 287.76 100.39 288.16 100.45 288.55L99.8501 288.64H99.8401ZM183.02 288.39L182.78 287.83L183.9 287.35L184.14 287.91L183.02 288.39ZM185.26 287.42L185.02 286.86L186.13 286.37L186.37 286.93L185.25 287.42H185.26ZM187.49 286.44L187.24 285.88L188.35 285.38L188.6 285.94L187.49 286.44ZM99.6001 286.19C99.5801 285.78 99.5701 285.37 99.5601 284.96H100.17C100.17 285.36 100.19 285.76 100.21 286.16L99.6001 286.19ZM189.72 285.45L189.47 284.9L190.58 284.4L190.83 284.95L189.72 285.45ZM191.94 284.44L191.69 283.89L192.8 283.38L193.06 283.93L191.95 284.44H191.94ZM100.19 283.75L99.5801 283.73C99.5901 283.32 99.6101 282.91 99.6401 282.5L100.25 282.54C100.22 282.94 100.2 283.34 100.19 283.74V283.75ZM194.16 283.42L193.9 282.87L195 282.35L195.26 282.9L194.16 283.42ZM196.36 282.38L196.1 281.83L197.2 281.31L197.46 281.86L196.36 282.38ZM100.35 281.35L99.7401 281.29C99.7801 280.89 99.8301 280.48 99.8901 280.07L100.49 280.15C100.44 280.55 100.39 280.95 100.35 281.35ZM198.56 281.33L198.3 280.78L199.39 280.25L199.66 280.8L198.56 281.33ZM200.75 280.27L200.48 279.72L201.57 279.18L201.84 279.73L200.75 280.27ZM202.94 279.19L202.67 278.64L203.76 278.1L204.03 278.64L202.94 279.18V279.19ZM100.68 278.96L100.08 278.86C100.15 278.46 100.22 278.06 100.3 277.65L100.9 277.77C100.82 278.17 100.75 278.56 100.68 278.96ZM205.12 278.1L204.85 277.56L205.94 277.01L206.21 277.55L205.12 278.1ZM207.29 277L207.01 276.46L208.09 275.91L208.37 276.45L207.29 277.01V277ZM101.15 276.59L100.56 276.45C100.65 276.05 100.75 275.66 100.85 275.26L101.44 275.41C101.34 275.8 101.24 276.19 101.15 276.58V276.59ZM209.46 275.89L209.18 275.35L210.26 274.79L210.54 275.33L209.46 275.89ZM211.62 274.76L211.34 274.22L212.42 273.65L212.7 274.19L211.62 274.76ZM101.75 274.25L101.16 274.08C101.27 273.69 101.39 273.3 101.51 272.91L102.09 273.09C101.97 273.48 101.86 273.86 101.75 274.25ZM213.78 273.63L213.49 273.09L214.56 272.52L214.85 273.06L213.78 273.63ZM215.93 272.48L215.64 271.94L216.71 271.36L217 271.89L215.93 272.47V272.48ZM102.47 271.94L101.89 271.75C102.02 271.37 102.15 270.98 102.29 270.59L102.86 270.79C102.72 271.17 102.59 271.55 102.47 271.93V271.94ZM218.07 271.32L217.78 270.79L218.84 270.21L219.13 270.74L218.06 271.32H218.07ZM220.2 270.15L219.91 269.62L220.97 269.03L221.27 269.56L220.21 270.15H220.2ZM103.29 269.66L102.72 269.44C102.86 269.06 103.01 268.68 103.16 268.3L103.72 268.53C103.57 268.91 103.42 269.28 103.28 269.66H103.29ZM222.32 268.97L222.02 268.44L223.08 267.85L223.38 268.38L222.32 268.98V268.97ZM224.44 267.78L224.14 267.25L225.2 266.65L225.5 267.18L224.44 267.78ZM104.19 267.41L103.63 267.17C103.79 266.8 103.95 266.42 104.11 266.05L104.67 266.3C104.51 266.67 104.35 267.04 104.19 267.41ZM226.56 266.57L226.26 266.04L227.31 265.43L227.61 265.96L226.56 266.57ZM228.67 265.35L228.36 264.82L229.41 264.21L229.72 264.74L228.67 265.35ZM105.17 265.19L104.62 264.94C104.79 264.57 104.96 264.2 105.14 263.83L105.69 264.09C105.51 264.46 105.34 264.82 105.17 265.19ZM230.77 264.12L230.46 263.6L231.51 262.98L231.82 263.5L230.77 264.12ZM106.22 263L105.67 262.73C105.85 262.37 106.03 262 106.22 261.64L106.76 261.92C106.57 262.28 106.39 262.64 106.21 263H106.22ZM232.87 262.88L232.56 262.36L233.6 261.73L233.91 262.25L232.86 262.88H232.87ZM234.96 261.62L234.64 261.1L235.68 260.47L236 260.99L234.96 261.62ZM107.33 260.84L106.79 260.55C106.98 260.19 107.17 259.83 107.37 259.48L107.9 259.77C107.7 260.13 107.51 260.48 107.32 260.84H107.33ZM237.05 260.35L236.73 259.83L237.77 259.19L238.09 259.71L237.05 260.35ZM239.13 259.07L238.81 258.55L239.85 257.91L240.17 258.43L239.13 259.08V259.07ZM108.5 258.71L107.97 258.41C108.17 258.06 108.37 257.7 108.58 257.35L109.11 257.66C108.91 258.01 108.71 258.36 108.51 258.71H108.5ZM241.21 257.77L240.89 257.25L241.92 256.6L242.24 257.11L241.2 257.76L241.21 257.77ZM109.72 256.61L109.2 256.3C109.41 255.95 109.62 255.6 109.83 255.25L110.35 255.57C110.14 255.92 109.93 256.26 109.72 256.61ZM243.28 256.47L242.95 255.96L243.98 255.31L244.31 255.82L243.28 256.47ZM245.33 255.16L245 254.65L246.02 253.99L246.35 254.5L245.33 255.16ZM110.99 254.54L110.47 254.22C110.69 253.88 110.9 253.53 111.12 253.19L111.63 253.52C111.41 253.86 111.19 254.2 110.98 254.55L110.99 254.54ZM247.38 253.83L247.05 253.32L248.07 252.65L248.4 253.16L247.38 253.83ZM249.42 252.49L249.08 251.98L250.1 251.31L250.44 251.82L249.42 252.49ZM112.3 252.49L111.79 252.16C112.01 251.82 112.24 251.48 112.46 251.14L112.97 251.48C112.74 251.82 112.52 252.16 112.3 252.49ZM251.45 251.15L251.11 250.64L252.12 249.96L252.46 250.46L251.45 251.14V251.15ZM113.65 250.47L113.15 250.13C113.38 249.8 113.61 249.46 113.84 249.12L114.34 249.47C114.11 249.8 113.88 250.14 113.65 250.47ZM253.48 249.79L253.14 249.29L254.15 248.61L254.49 249.11L253.48 249.79ZM115.04 248.47L114.54 248.12C114.77 247.79 115.01 247.46 115.25 247.13L115.74 247.49C115.5 247.82 115.27 248.15 115.04 248.48V248.47ZM255.49 248.42L255.15 247.92L256.15 247.23L256.5 247.73L255.5 248.42H255.49ZM257.5 247.04L257.15 246.54L258.15 245.84L258.5 246.34L257.5 247.04ZM116.46 246.5L115.97 246.14C116.21 245.81 116.45 245.49 116.69 245.16L117.18 245.52C116.94 245.85 116.7 246.17 116.46 246.5ZM259.5 245.64L259.15 245.14L260.14 244.44L260.49 244.94L259.49 245.64H259.5ZM117.91 244.55L117.42 244.18C117.66 243.86 117.91 243.53 118.16 243.21L118.64 243.58C118.39 243.9 118.15 244.23 117.9 244.55H117.91ZM261.49 244.23L261.14 243.73L262.13 243.02L262.48 243.51L261.49 244.22V244.23ZM263.47 242.81L263.11 242.32L264.09 241.61L264.45 242.1L263.46 242.82L263.47 242.81ZM119.39 242.62L118.91 242.25C119.16 241.93 119.41 241.61 119.66 241.29L120.14 241.67C119.89 241.99 119.64 242.31 119.39 242.63V242.62ZM265.44 241.37L265.08 240.88L266.06 240.16L266.42 240.65L265.44 241.37ZM120.9 240.71L120.42 240.33C120.67 240.01 120.93 239.7 121.18 239.38L121.65 239.76C121.39 240.08 121.14 240.39 120.89 240.71H120.9ZM267.4 239.92L267.04 239.43L268.01 238.7L268.37 239.19L267.39 239.92H267.4ZM122.43 238.82L121.96 238.43C122.22 238.12 122.48 237.8 122.74 237.49L123.21 237.88C122.95 238.19 122.69 238.5 122.43 238.82ZM269.35 238.46L268.98 237.97L269.95 237.24L270.32 237.72L269.35 238.46ZM271.29 236.98L270.92 236.5L271.88 235.76L272.25 236.24L271.28 236.98H271.29ZM123.98 236.95L123.52 236.56C123.78 236.25 124.04 235.94 124.31 235.63L124.77 236.03C124.51 236.34 124.24 236.65 123.98 236.96V236.95ZM273.22 235.49L272.85 235.01L273.81 234.26L274.19 234.74L273.23 235.49H273.22ZM125.56 235.1L125.1 234.7C125.37 234.39 125.63 234.09 125.9 233.78L126.36 234.18C126.09 234.49 125.83 234.79 125.56 235.1ZM275.14 233.99L274.76 233.51L275.71 232.75L276.09 233.23L275.14 233.99ZM127.17 233.27L126.71 232.87C126.98 232.57 127.25 232.26 127.52 231.96L127.97 232.37C127.7 232.67 127.43 232.98 127.16 233.28L127.17 233.27ZM277.05 232.47L276.67 232L277.62 231.24L278 231.71L277.05 232.47ZM128.79 231.46L128.34 231.05C128.61 230.75 128.89 230.45 129.16 230.15L129.61 230.56C129.34 230.86 129.06 231.16 128.79 231.46ZM278.94 230.94L278.55 230.47L279.49 229.7L279.88 230.17L278.94 230.94ZM130.43 229.67L129.98 229.26L130.81 228.37L131.25 228.79L130.42 229.68L130.43 229.67ZM280.82 229.39L280.43 228.92L281.36 228.14L281.75 228.61L280.81 229.39H280.82ZM132.09 227.89L131.65 227.47L132.49 226.59L132.93 227.01L132.09 227.89ZM282.69 227.82L282.3 227.35C282.61 227.09 282.92 226.83 283.23 226.56L283.62 227.02C283.31 227.28 283 227.55 282.69 227.81V227.82ZM284.55 226.24L284.15 225.78C284.46 225.52 284.77 225.25 285.07 224.99L285.47 225.45C285.16 225.72 284.86 225.98 284.55 226.25V226.24ZM133.78 226.13L133.34 225.71C133.62 225.42 133.9 225.13 134.19 224.83L134.63 225.25C134.35 225.54 134.06 225.83 133.78 226.12V226.13ZM286.39 224.64L285.99 224.18L286.9 223.38L287.3 223.84L286.38 224.65L286.39 224.64ZM135.47 224.39L135.04 223.96L135.9 223.09L136.33 223.52L135.48 224.39H135.47ZM288.21 223.03L287.8 222.58L288.7 221.77L289.11 222.22L288.2 223.03H288.21ZM137.18 222.66L136.75 222.23C137.04 221.94 137.33 221.66 137.62 221.37L138.05 221.8C137.76 222.09 137.47 222.37 137.18 222.66ZM290.02 221.39L289.61 220.94C289.91 220.67 290.21 220.39 290.51 220.12L290.92 220.57C290.62 220.84 290.32 221.12 290.02 221.39ZM138.92 220.94L138.49 220.5C138.78 220.22 139.07 219.93 139.37 219.65L139.79 220.09C139.5 220.37 139.21 220.66 138.92 220.94ZM291.82 219.74L291.41 219.29L292.05 218.69L292.47 219.13L291.83 219.73L291.82 219.74ZM140.67 219.25L140.25 218.81L141.13 217.97L141.55 218.41L140.67 219.25ZM142.44 217.57L142.02 217.13L142.91 216.3L143.33 216.74L142.44 217.57ZM144.22 215.91L143.81 215.46L144.71 214.63L145.12 215.08L144.23 215.9L144.22 215.91ZM146.01 214.27L145.6 213.82L146.5 213L146.91 213.45L146.01 214.26V214.27ZM147.82 212.64L147.41 212.19C147.71 211.92 148.02 211.65 148.32 211.38L148.72 211.84C148.42 212.11 148.11 212.38 147.81 212.65L147.82 212.64ZM149.64 211.03L149.24 210.57L150.16 209.77L150.56 210.23L149.65 211.03H149.64ZM151.47 209.44L151.07 208.98L152 208.19L152.39 208.65L151.47 209.44ZM153.32 207.86L152.93 207.4C153.24 207.14 153.55 206.88 153.86 206.61L154.25 207.08C153.94 207.34 153.63 207.6 153.32 207.86ZM155.18 206.3L154.79 205.83L155.73 205.05L156.12 205.52L155.18 206.3ZM157.06 204.75L156.68 204.28L157.63 203.51L158.01 203.98L157.06 204.75ZM158.95 203.22L158.57 202.75L159.52 201.99L159.9 202.47L158.95 203.23V203.22ZM160.86 201.71L160.48 201.23L161.44 200.48L161.81 200.96L160.85 201.71H160.86ZM162.78 200.22L162.41 199.74C162.73 199.49 163.06 199.24 163.38 199L163.75 199.48C163.43 199.73 163.11 199.97 162.79 200.22H162.78ZM164.71 198.74L164.34 198.25L165.31 197.52L165.67 198.01L164.7 198.74H164.71ZM166.66 197.28L166.3 196.79L167.28 196.07L167.64 196.56L166.66 197.28Z" fill="#001E2B"/>
<path d="M424.5 84.08C406.21 95.07 390.19 110.35 378.28 128.12L351.54 123.46C356.16 117.95 360 112.17 362.46 106.73C346.89 113.77 328.6 132.06 321.56 147.63C327.24 145.06 333.29 140.98 339.02 136.09L366.87 148.68C364.57 153.82 362.61 159.08 361.02 164.43L335.36 182.68L333.74 191.76C331.29 192.64 327.58 194.71 323.65 199.62C316.82 208.15 316.6 224.79 311.52 229.87C316.6 224.79 333.23 224.57 341.77 217.74C346.68 213.81 348.75 210.1 349.63 207.65L358.71 206.03L358.82 205.88H358.87L367.25 194.09L377.02 180.36C380.17 179.42 383.29 178.36 386.37 177.18C387.24 176.85 388.1 176.5 388.96 176.15C390.22 175.63 391.47 175.09 392.71 174.53L405.3 202.38C400.41 208.11 396.33 214.16 393.76 219.84C409.33 212.8 427.62 194.51 434.66 178.94C429.22 181.4 423.44 185.24 417.93 189.86L413.27 163.12C431.31 151.02 446.8 134.69 457.83 116.05C458.31 115.24 458.77 114.43 459.23 113.62C460.15 111.99 461.04 110.35 461.89 108.68C462.74 107.02 463.56 105.34 464.33 103.65C467.25 97.31 469.65 90.76 471.48 84.08H424.49H424.5Z" fill="#001E2B"/>
<path d="M311.74 230.08L311.31 229.65C313.66 227.3 314.99 222.22 316.41 216.85C318 210.81 319.79 203.97 323.42 199.43C327.31 194.57 331.01 192.46 333.48 191.54L335.09 182.51L335.19 182.44L360.76 164.25C362.3 159.07 364.22 153.89 366.47 148.84L339.07 136.45C333.16 141.47 327.15 145.43 321.68 147.91L320.94 148.24L321.27 147.5C328.32 131.91 346.73 113.5 362.32 106.45L363.06 106.12L362.73 106.86C360.4 112.01 356.73 117.67 352.11 123.26L378.14 127.79C390.11 110 406.08 94.8 424.35 83.82L424.42 83.78H471.9L471.79 84.16C469.97 90.81 467.56 97.41 464.62 103.77C463.85 105.45 463.02 107.14 462.17 108.81C461.32 110.47 460.43 112.13 459.51 113.76C459.05 114.58 458.58 115.39 458.1 116.2C447.09 134.82 431.71 151.09 413.61 163.26L418.14 189.29C423.72 184.66 429.38 180.99 434.54 178.66L435.28 178.33L434.95 179.06C427.9 194.65 409.49 213.06 393.9 220.11L393.16 220.44L393.49 219.7C395.96 214.23 399.92 208.22 404.95 202.31L392.56 174.91C391.25 175.49 390.14 175.97 389.07 176.41C388.21 176.76 387.35 177.11 386.48 177.44C383.48 178.6 380.36 179.66 377.2 180.6L359.04 206.13H358.99L358.88 206.29L349.85 207.9C348.93 210.37 346.82 214.07 341.96 217.96C337.43 221.59 330.58 223.38 324.54 224.97C319.17 226.38 314.09 227.71 311.74 230.07V230.08ZM335.64 182.86L334.01 191.99L333.84 192.05C331.45 192.91 327.77 194.95 323.89 199.81C320.34 204.24 318.56 211.02 317 217C315.86 221.36 314.76 225.53 313.11 228.29C315.87 226.64 320.04 225.54 324.4 224.4C330.38 222.83 337.16 221.05 341.59 217.51C346.45 213.62 348.49 209.95 349.35 207.56L349.41 207.39L358.54 205.76L358.65 205.61H358.7L376.83 180.1L376.93 180.07C380.1 179.13 383.24 178.06 386.26 176.89C387.12 176.56 387.98 176.22 388.84 175.86C389.97 175.39 391.16 174.88 392.59 174.25L392.87 174.13L393 174.41L405.67 202.44L405.54 202.59C400.72 208.23 396.88 213.97 394.4 219.23C409.46 212.11 426.93 194.64 434.05 179.58C429.02 181.96 423.54 185.58 418.14 190.11L417.74 190.45L412.96 162.99L413.12 162.88C431.21 150.74 446.59 134.5 457.59 115.9C458.07 115.1 458.53 114.29 458.99 113.48C459.9 111.86 460.8 110.21 461.64 108.56C462.49 106.9 463.31 105.21 464.08 103.54C466.94 97.33 469.31 90.89 471.11 84.4H424.6C406.38 95.37 390.46 110.55 378.55 128.31L378.44 128.47L350.98 123.69L351.32 123.29C355.84 117.89 359.47 112.4 361.85 107.38C346.79 114.5 329.32 131.97 322.2 147.03C327.46 144.54 333.2 140.7 338.84 135.89L338.99 135.76L367.29 148.56L367.17 148.84C364.87 153.99 362.91 159.28 361.34 164.56L361.31 164.66L335.67 182.9L335.64 182.86Z" fill="#001E2B"/>
<path d="M328.15 114.46L364.93 131.09L378.2 109.49L339.77 102.8L328.15 114.46Z" fill="#00ED64"/>
<path d="M364.93 131.39C364.93 131.39 364.85 131.39 364.8 131.36L328.02 114.73C327.93 114.69 327.86 114.61 327.85 114.51C327.83 114.41 327.86 114.31 327.93 114.24L339.55 102.58C339.62 102.51 339.72 102.48 339.82 102.5L378.25 109.19C378.35 109.21 378.43 109.27 378.48 109.36C378.53 109.45 378.51 109.56 378.46 109.64L365.18 131.23C365.12 131.32 365.02 131.37 364.92 131.37L364.93 131.39ZM328.68 114.36L364.81 130.7L377.71 109.72L339.87 103.13L328.67 114.36H328.68Z" fill="#001E2B"/>
<path d="M314.74 127.83C321.78 112.26 340.07 93.97 355.64 86.93C348.6 102.5 330.31 120.79 314.74 127.83Z" fill="#00ED64"/>
<path d="M314.74 128.13C314.66 128.13 314.58 128.1 314.52 128.04C314.43 127.95 314.41 127.81 314.46 127.7C321.51 112.11 339.92 93.7 355.51 86.65C355.63 86.6 355.76 86.62 355.85 86.71C355.94 86.8 355.96 86.94 355.91 87.05C348.86 102.64 330.45 121.05 314.86 128.1C314.82 128.12 314.78 128.13 314.73 128.13H314.74ZM355.01 87.55C339.95 94.67 322.48 112.14 315.36 127.2C330.42 120.08 347.89 102.61 355.01 87.55Z" fill="#001E2B"/>
<path d="M350.08 164.7C356.76 106.14 409.56 53.35 468.11 46.67C461.43 105.23 408.63 158.02 350.08 164.7Z" fill="#B1FF05"/>
<path d="M349.73 165.05L349.77 164.67C353.01 136.28 367.09 108.35 389.42 86.02C411.75 63.69 439.68 49.61 468.07 46.37L468.45 46.33L468.41 46.71C465.17 75.1 451.09 103.03 428.76 125.36C406.43 147.69 378.5 161.77 350.11 165.01L349.73 165.05ZM467.76 47.02C439.64 50.33 411.98 64.32 389.85 86.45C367.72 108.58 353.72 136.24 350.42 164.36C378.54 161.05 406.2 147.06 428.33 124.93C450.46 102.8 464.46 75.14 467.76 47.02Z" fill="#001E2B"/>
<path d="M468.11 46.67C465.78 46.94 464.78 47.06 462.47 47.47C452.99 100.88 404.96 149.56 351.56 159.03C351.15 161.34 350.35 162.37 350.08 164.7C408.64 158.02 461.43 105.22 468.11 46.67Z" fill="#001E2B"/>
<path d="M349.73 165.05L349.77 164.67C349.92 163.37 350.22 162.49 350.54 161.55C350.8 160.8 351.06 160.01 351.25 158.98L351.29 158.77L351.5 158.73C377.22 154.17 402.71 140.24 423.27 119.51C443.77 98.84 457.59 73.23 462.17 47.41L462.21 47.2L462.42 47.16C464.75 46.75 465.78 46.62 468.08 46.36L468.46 46.32L468.42 46.7C465.18 75.09 451.1 103.02 428.77 125.35C406.44 147.68 378.51 161.76 350.12 165L349.74 165.04L349.73 165.05ZM351.81 159.3C351.62 160.28 351.36 161.03 351.12 161.75C350.84 162.56 350.58 163.32 350.43 164.36C378.55 161.05 406.2 147.06 428.33 124.93C450.46 102.8 464.46 75.14 467.76 47.02C465.79 47.25 464.76 47.38 462.72 47.73C458.08 73.6 444.23 99.24 423.69 119.94C403.1 140.7 377.57 154.67 351.8 159.3H351.81Z" fill="#001E2B"/>
<path d="M400.32 186.63L383.7 149.86L405.29 136.58L411.98 175.01L400.32 186.63Z" fill="#001E2B"/>
<path d="M400.23 187.16L383.31 149.74L405.51 136.09L412.31 175.12L400.23 187.16ZM384.08 149.97L400.42 186.1L411.65 174.9L405.06 137.06L384.08 149.96V149.97Z" fill="#001E2B"/>
<path d="M386.95 200.04C402.52 193 420.81 174.71 427.85 159.14C412.28 166.18 393.99 184.47 386.95 200.04Z" fill="#001E2B"/>
<path d="M386.34 200.65L386.67 199.91C393.72 184.32 412.13 165.91 427.72 158.86L428.46 158.53L428.13 159.27C421.08 174.86 402.67 193.27 387.08 200.32L386.34 200.65ZM427.22 159.77C412.16 166.89 394.69 184.36 387.57 199.42C402.63 192.3 420.1 174.83 427.22 159.77Z" fill="#001E2B"/>
<path d="M343.46 184.92C343.46 184.92 343.49 191.11 334.96 197.94C326.43 204.77 309.79 204.99 304.71 210.07C309.79 204.99 310.01 188.36 316.84 179.82C323.67 171.29 329.86 171.32 329.86 171.32" fill="#B1FF05"/>
<path d="M304.93 210.28L304.5 209.85C306.85 207.5 308.19 202.42 309.6 197.05C311.19 191.01 312.98 184.17 316.61 179.63C323.45 171.08 329.62 171.02 329.87 171.02V171.63C329.8 171.63 323.73 171.72 317.09 180.02C313.54 184.45 311.77 191.23 310.2 197.21C309.06 201.57 307.96 205.74 306.31 208.5C309.07 206.85 313.24 205.75 317.6 204.61C323.58 203.04 330.36 201.26 334.79 197.72C343.09 191.08 343.18 185 343.18 184.94H343.79C343.79 185.2 343.73 191.35 335.17 198.19C330.64 201.82 323.79 203.61 317.75 205.2C312.38 206.61 307.3 207.94 304.95 210.3L304.93 210.28Z" fill="#001E2B"/>
<path d="M338.93 183.15C338.93 183.15 338.75 188.88 332.41 194.12C326.07 199.35 315.35 199.43 311.52 203.26C315.35 199.43 315.42 188.72 320.66 182.37C325.89 176.03 331.63 175.85 331.63 175.85" fill="#B1FF05"/>
<path d="M311.74 203.47L311.31 203.04C313.06 201.29 314.04 197.91 315.08 194.33C316.27 190.23 317.62 185.58 320.42 182.18C325.68 175.81 331.37 175.56 331.61 175.55L331.63 176.16C331.57 176.16 325.96 176.42 320.89 182.57C318.17 185.87 316.84 190.45 315.66 194.5C314.87 197.24 314.1 199.86 312.99 201.79C314.92 200.68 317.54 199.92 320.27 199.12C324.32 197.95 328.9 196.61 332.2 193.89C338.35 188.81 338.61 183.2 338.61 183.15L339.22 183.17C339.22 183.41 338.96 189.1 332.59 194.36C329.19 197.16 324.54 198.51 320.44 199.7C316.86 200.74 313.48 201.72 311.73 203.47H311.74Z" fill="#001E2B"/>
<path d="M441.084 83.1092C447.098 77.0952 449.865 70.1114 447.264 67.5105C444.663 64.9096 437.679 67.6765 431.665 73.6906C425.651 79.7047 422.884 86.6885 425.485 89.2894C428.086 91.8902 435.07 89.1233 441.084 83.1092Z" fill="#00ED64"/>
<path d="M428.25 90.57C427 90.57 425.99 90.21 425.28 89.5C422.52 86.74 425.23 79.7 431.46 73.47C434.4 70.53 437.66 68.26 440.64 67.08C443.71 65.87 446.14 65.94 447.49 67.29C448.84 68.64 448.91 71.07 447.7 74.14C446.52 77.12 444.25 80.38 441.31 83.32C438.37 86.26 435.11 88.53 432.13 89.71C430.68 90.28 429.37 90.57 428.26 90.57H428.25ZM444.51 66.83C443.48 66.83 442.24 67.1 440.86 67.65C437.95 68.8 434.77 71.02 431.89 73.9C426.01 79.78 423.23 86.59 425.71 89.06C426.88 90.23 429.07 90.25 431.9 89.13C434.81 87.98 437.99 85.76 440.87 82.88C443.75 80 445.97 76.81 447.12 73.91C448.24 71.08 448.21 68.89 447.05 67.72C446.45 67.12 445.59 66.83 444.51 66.83Z" fill="#001E2B"/>
<path d="M351.9 186.23L370.36 160.27C370.36 160.27 369.71 155.63 364.43 150.35C359.15 145.07 354.51 144.42 354.51 144.42L328.55 162.88L351.9 186.23Z" fill="#00ED64"/>
<path d="M351.9 186.54C351.82 186.54 351.74 186.51 351.68 186.45L328.33 163.1C328.27 163.04 328.23 162.95 328.24 162.86C328.24 162.77 328.29 162.69 328.37 162.64L354.33 144.18C354.39 144.13 354.47 144.12 354.55 144.13C354.74 144.16 359.35 144.86 364.64 150.15C369.93 155.44 370.63 160.05 370.66 160.24C370.67 160.32 370.66 160.4 370.61 160.46L352.15 186.42C352.1 186.49 352.02 186.54 351.93 186.55H351.9V186.54ZM329.02 162.93L351.86 185.77L370.04 160.21C369.9 159.47 368.9 155.26 364.21 150.58C359.53 145.9 355.32 144.9 354.58 144.75L329.02 162.93Z" fill="#001E2B"/>
<path d="M364.211 150.134L340.007 174.338L340.438 174.769L364.642 150.565L364.211 150.134Z" fill="#001E2B"/>
<path d="M359.836 146.578L333.774 168.085L334.162 168.556L360.224 147.049L359.836 146.578Z" fill="#001E2B"/>
<path d="M367.739 154.547L346.242 180.616L346.712 181.004L368.21 154.935L367.739 154.547Z" fill="#001E2B"/>
<path d="M351.9 186.23L342.77 187.86C342.77 187.86 339.64 185.7 334.36 180.42C329.08 175.14 326.92 172.01 326.92 172.01L328.55 162.88L351.9 186.23Z" fill="#00ED64"/>
<path d="M342.77 188.17C342.71 188.17 342.65 188.15 342.6 188.12C342.57 188.1 339.39 185.88 334.15 180.64C328.91 175.4 326.69 172.22 326.67 172.19C326.62 172.12 326.61 172.04 326.62 171.96L328.25 162.83C328.27 162.72 328.35 162.63 328.46 162.59C328.57 162.56 328.69 162.59 328.77 162.67L352.12 186.02C352.2 186.1 352.23 186.22 352.19 186.33C352.16 186.44 352.07 186.52 351.95 186.54L342.82 188.17C342.82 188.17 342.78 188.17 342.77 188.17ZM327.24 171.94C327.66 172.52 329.9 175.53 334.58 180.21C339.26 184.89 342.27 187.13 342.85 187.55L351.28 186.04L328.76 163.52L327.25 171.95L327.24 171.94Z" fill="#001E2B"/>
<path d="M340.01 174.341L334.148 180.203L334.579 180.634L340.441 174.772L340.01 174.341Z" fill="#001E2B"/>
<path d="M333.663 168.142L330.189 176.195L330.75 176.437L334.223 168.384L333.663 168.142Z" fill="#001E2B"/>
<path d="M346.371 180.54L338.32 184.016L338.561 184.576L346.613 181.1L346.371 180.54Z" fill="#001E2B"/>
<path d="M386.732 131.959L382.822 128.048C381.978 127.205 380.61 127.205 379.767 128.048L373 134.815C372.156 135.659 372.156 137.027 373 137.87L376.91 141.78C377.754 142.624 379.121 142.624 379.965 141.78L386.732 135.013C387.575 134.17 387.575 132.802 386.732 131.959Z" fill="#00ED64"/>
<path d="M378.44 142.72C377.78 142.72 377.16 142.46 376.7 142L372.78 138.08C371.82 137.12 371.82 135.56 372.78 134.6L379.55 127.83C380.51 126.87 382.07 126.87 383.03 127.83L386.94 131.75C387.41 132.21 387.66 132.83 387.66 133.49C387.66 134.15 387.4 134.77 386.94 135.23L380.17 142C379.7 142.46 379.09 142.72 378.43 142.72H378.44ZM373.21 137.65L377.13 141.57C377.83 142.27 379.05 142.27 379.75 141.57L386.52 134.8C386.87 134.45 387.06 133.98 387.06 133.49C387.06 133 386.87 132.53 386.52 132.18L382.61 128.26C381.89 127.54 380.71 127.54 379.99 128.26L373.22 135.03C372.5 135.75 372.5 136.93 373.22 137.65H373.21Z" fill="#001E2B"/>
<path d="M383.22 135.52C382.79 135.52 382.39 135.35 382.08 135.05L379.73 132.7C379.1 132.07 379.1 131.05 379.73 130.43L379.95 130.21C380.56 129.6 381.62 129.61 382.22 130.21L384.57 132.56C384.87 132.86 385.04 133.27 385.04 133.7C385.04 134.13 384.87 134.53 384.57 134.84L384.35 135.06C384.05 135.36 383.64 135.53 383.21 135.53L383.22 135.52ZM381.09 130.34C380.82 130.34 380.57 130.44 380.38 130.63L380.16 130.85C379.77 131.24 379.77 131.87 380.16 132.26L382.51 134.61C382.88 134.98 383.55 134.99 383.92 134.61L384.14 134.39C384.33 134.2 384.43 133.95 384.43 133.68C384.43 133.41 384.33 133.16 384.14 132.97L381.79 130.62C381.6 130.43 381.35 130.33 381.08 130.33L381.09 130.34Z" fill="#001E2B"/>
<path d="M475.31 39.47L465.79 59.94C465.79 59.94 461.69 59.52 458.47 56.31C455.25 53.09 454.84 48.99 454.84 48.99L475.31 39.47Z" fill="#00ED64"/>
<path d="M465.98 60.26L465.76 60.24C465.59 60.22 461.51 59.77 458.26 56.52C455 53.26 454.56 49.19 454.54 49.02L454.52 48.8L475.94 38.84L465.98 60.26ZM455.18 49.16C455.32 50.03 456.01 53.39 458.7 56.08C461.39 58.77 464.75 59.46 465.62 59.6L474.69 40.09L455.18 49.16Z" fill="#001E2B"/>
<path d="M488.51 26.28L472.62 45.27C472.62 45.27 471.79 45.24 470.67 44.12C469.55 43 469.52 42.17 469.52 42.17L488.51 26.28Z" fill="#00ED64"/>
<path d="M472.76 45.58H472.61C472.61 45.58 471.65 45.52 470.46 44.33C469.27 43.14 469.22 42.21 469.22 42.18V42.03L488.32 26.05L488.75 26.48L472.77 45.59L472.76 45.58ZM469.85 42.29C469.91 42.55 470.14 43.15 470.89 43.91C471.64 44.66 472.25 44.88 472.5 44.95L486.08 28.72L469.85 42.3V42.29Z" fill="#001E2B"/>
<path d="M352.06 186.07L360.44 174.29L370.52 160.11C370.52 160.11 370.19 157.8 368.15 154.59L346.66 180.66L338.61 184.13C341.38 186.61 342.94 187.69 342.94 187.7L346.32 187.1L352.06 186.07Z" fill="#001E2B"/>
<path d="M474.59 41.03L471.23 44.62L460.03 57.61C462.87 59.64 465.8 59.94 465.8 59.94L474.59 41.03Z" fill="#001E2B"/>
<path d="M465.98 60.26L465.76 60.24C465.64 60.23 462.73 59.9 459.85 57.86L459.58 57.67L471 44.43L475.67 39.44L465.98 60.28V60.26ZM460.48 57.55C462.7 59.04 464.93 59.49 465.61 59.6L473.5 42.62L471.45 44.82L460.48 57.54V57.55Z" fill="#001E2B"/>
<path d="M471.24 44.61C472.06 45.23 472.62 45.27 472.62 45.27L486.55 28.61L486.53 28.24L471.23 44.61H471.24Z" fill="#001E2B"/>
<path d="M472.75 45.58H472.6C472.53 45.57 471.92 45.51 471.05 44.85L470.78 44.65L486.8 27.51L486.85 28.72L472.74 45.59L472.75 45.58ZM471.69 44.56C472.05 44.79 472.33 44.89 472.49 44.93L482.26 33.25L471.69 44.56Z" fill="#001E2B"/>
<path d="M488.51 29.06C490.045 29.06 491.29 27.8154 491.29 26.28C491.29 24.7446 490.045 23.5 488.51 23.5C486.975 23.5 485.73 24.7446 485.73 26.28C485.73 27.8154 486.975 29.06 488.51 29.06Z" fill="#00ED64"/>
<path d="M488.51 29.36C487.69 29.36 486.91 29.04 486.33 28.46C485.75 27.88 485.43 27.1 485.43 26.28C485.43 25.46 485.75 24.68 486.33 24.1C486.91 23.52 487.69 23.2 488.51 23.2C489.33 23.2 490.11 23.52 490.69 24.1C491.27 24.68 491.59 25.46 491.59 26.28C491.59 27.1 491.27 27.88 490.69 28.46C490.11 29.04 489.33 29.36 488.51 29.36ZM488.51 23.79C487.85 23.79 487.23 24.05 486.76 24.52C486.29 24.99 486.03 25.61 486.03 26.27C486.03 26.93 486.29 27.55 486.76 28.02C487.23 28.49 487.85 28.75 488.51 28.75C489.17 28.75 489.8 28.49 490.26 28.02C490.73 27.55 490.99 26.93 490.99 26.27C490.99 25.61 490.73 24.99 490.26 24.52C489.79 24.05 489.17 23.79 488.51 23.79Z" fill="#001E2B"/>
<path d="M490.47 24.31C490.32 24.16 490.16 24.04 489.99 23.93C490.67 25.01 490.55 26.45 489.61 27.39C488.67 28.33 487.23 28.45 486.15 27.77C486.26 27.94 486.38 28.1 486.53 28.25C487.62 29.34 489.38 29.34 490.47 28.25C491.56 27.16 491.56 25.4 490.47 24.31Z" fill="#001E2B"/>
<path d="M196.65 350.45H245.5L259.24 316.53L183.38 347.25C187.36 349.29 191.87 350.44 196.66 350.44L196.65 350.45Z" fill="#001E2B"/>
<path d="M107.59 359.62L100.53 352.56L216.05 305.77L223.11 312.83L176.32 428.35L169.27 421.29L160.23 392.9L124.14 428.98L106.96 411.8L143.04 375.71L107.59 359.62Z" fill="#001E2B"/>
<path d="M100.53 352.56L216.05 305.77L169.27 421.29L153.17 385.84L117.09 421.92L99.8999 404.74L135.99 368.66L100.53 352.56Z" fill="#B1FF05"/>
<path d="M117.09 422.35L99.48 404.74L135.47 368.75L99.77 352.54L216.61 305.22L216.34 305.89L169.29 422.07L153.08 386.37L117.09 422.36V422.35ZM100.34 404.74L117.09 421.49L153.27 385.31L169.26 420.52L215.51 306.32L101.31 352.57L136.52 368.56L100.34 404.74Z" fill="#001E2B"/>
<path d="M532.07 379.22H530.85V378.61H532.07V379.22ZM529.64 379.22H528.42V378.61H529.64V379.22ZM527.21 379.22H525.99V378.61H527.21V379.22ZM524.78 379.22H523.56V378.61H524.78V379.22ZM522.35 379.22H521.13V378.61H522.35V379.22ZM519.92 379.22H518.7V378.61H519.92V379.22ZM517.49 379.22H516.27V378.61H517.49V379.22ZM515.06 379.22H513.84V378.61H515.06V379.22ZM512.63 379.22H511.41V378.61H512.63V379.22ZM510.2 379.22H508.98V378.61H510.2V379.22ZM507.77 379.22H506.55V378.61H507.77V379.22ZM505.34 379.22H504.12V378.61H505.34V379.22ZM502.91 379.22H501.69V378.61H502.91V379.22ZM500.48 379.22H499.26V378.61H500.48V379.22ZM498.05 379.22H496.83V378.61H498.05V379.22ZM495.62 379.22H494.4V378.61H495.62V379.22ZM493.19 379.22H491.97V378.61H493.19V379.22ZM490.76 379.22H489.54V378.61H490.76V379.22ZM488.33 379.22H487.11V378.61H488.33V379.22ZM485.9 379.22H484.68V378.61H485.9V379.22ZM483.47 379.22H482.25V378.61H483.47V379.22ZM481.04 379.22H479.82V378.61H481.04V379.22ZM478.61 379.22H477.39V378.61H478.61V379.22ZM476.18 379.22H474.96V378.61H476.18V379.22ZM473.75 379.22H472.53V378.61H473.75V379.22ZM471.32 379.22H470.1V378.61H471.32V379.22ZM468.89 379.22H467.67V378.61H468.89V379.22ZM466.46 379.22H465.24V378.61H466.46V379.22ZM464.03 379.22H462.81V378.61H464.03V379.22ZM461.6 379.22H460.38V378.61H461.6V379.22ZM459.17 379.22H457.95V378.61H459.17V379.22ZM456.74 379.22H455.52V378.61H456.74V379.22ZM454.31 379.22H453.09V378.61H454.31V379.22ZM451.88 379.22H450.66V378.61H451.88V379.22ZM449.45 379.22H448.23V378.61H449.45V379.22ZM447.02 379.22H445.8V378.61H447.02V379.22ZM444.59 379.22H443.37V378.61H444.59V379.22ZM442.16 379.22H440.94V378.61H442.16V379.22ZM439.73 379.22H438.51V378.61H439.73V379.22ZM437.3 379.22H436.08V378.61H437.3V379.22ZM434.87 379.22H433.65V378.61H434.87V379.22ZM432.44 379.22H431.22V378.61H432.44V379.22ZM430.01 379.22H428.79V378.61H430.01V379.22ZM427.58 379.22H426.36V378.61H427.58V379.22ZM425.15 379.22H423.93V378.61H425.15V379.22ZM422.72 379.22H421.5V378.61H422.72V379.22ZM420.29 379.22H419.07V378.61H420.29V379.22ZM417.86 379.22H416.64V378.61H417.86V379.22ZM415.43 379.22H414.21V378.61H415.43V379.22ZM413 379.22H411.78V378.61H413V379.22ZM410.57 379.22H409.35V378.61H410.57V379.22ZM408.14 379.22H406.92V378.61H408.14V379.22ZM405.71 379.22H404.49V378.61H405.71V379.22ZM403.28 379.22H402.06V378.61H403.28V379.22ZM400.85 379.22H399.63V378.61H400.85V379.22ZM398.42 379.22H397.2V378.61H398.42V379.22ZM395.99 379.22H394.77V378.61H395.99V379.22ZM393.56 379.22H392.34V378.61H393.56V379.22ZM391.13 379.22H389.91V378.61H391.13V379.22ZM388.7 379.22H387.48V378.61H388.7V379.22ZM386.27 379.22H385.05V378.61H386.27V379.22ZM383.84 379.22H382.62V378.61H383.84V379.22ZM381.41 379.22H380.19V378.61H381.41V379.22ZM378.98 379.22H377.76V378.61H378.98V379.22Z" fill="#001E2B"/>
<path d="M357.24 379.22H357.05V378.61H357.24V379.22ZM355.83 379.22H354.61V378.61H355.83V379.22ZM353.4 379.22H352.18V378.61H353.4V379.22ZM350.97 379.22H349.75V378.61H350.97V379.22ZM348.54 379.22H347.32V378.61H348.54V379.22ZM346.11 379.22H344.89V378.61H346.11V379.22ZM343.68 379.22H342.46V378.61H343.68V379.22ZM341.25 379.22H340.03V378.61H341.25V379.22ZM338.82 379.22H337.6V378.61H338.82V379.22ZM336.39 379.22H335.17V378.61H336.39V379.22ZM333.96 379.22H332.74V378.61H333.96V379.22ZM331.53 379.22H330.31V378.61H331.53V379.22ZM329.1 379.22H327.88V378.61H329.1V379.22ZM326.67 379.22H325.45V378.61H326.67V379.22ZM324.24 379.22H323.02V378.61H324.24V379.22ZM321.81 379.22H320.59V378.61H321.81V379.22ZM319.38 379.22H318.16V378.61H319.38V379.22ZM316.95 379.22H315.73V378.61H316.95V379.22ZM314.52 379.22H313.3V378.61H314.52V379.22ZM312.09 379.22H310.87V378.61H312.09V379.22ZM309.66 379.22H308.44V378.61H309.66V379.22ZM307.23 379.22H306.01V378.61H307.23V379.22ZM304.8 379.22H303.58V378.61H304.8V379.22ZM302.37 379.22H301.15V378.61H302.37V379.22ZM299.94 379.22H298.72V378.61H299.94V379.22ZM297.51 379.22H296.29V378.61H297.51V379.22ZM295.08 379.22H293.86V378.61H295.08V379.22ZM292.65 379.22H291.43V378.61H292.65V379.22ZM290.22 379.22H289V378.61H290.22V379.22ZM287.79 379.22H286.57V378.61H287.79V379.22ZM285.36 379.22H284.14V378.61H285.36V379.22ZM282.93 379.22H281.71V378.61H282.93V379.22ZM280.5 379.22H279.28V378.61H280.5V379.22ZM278.07 379.22H276.85V378.61H278.07V379.22ZM275.64 379.22H274.42V378.61H275.64V379.22ZM273.21 379.22H271.99V378.61H273.21V379.22Z" fill="#001E2B"/>
<path d="M595.17 393.15H593.95V392.54H595.17V393.15ZM592.74 393.15H591.52V392.54H592.74V393.15ZM590.31 393.15H589.09V392.54H590.31V393.15ZM587.88 393.15H586.66V392.54H587.88V393.15ZM585.45 393.15H584.23V392.54H585.45V393.15ZM583.02 393.15H581.8V392.54H583.02V393.15ZM580.59 393.15H579.37V392.54H580.59V393.15ZM578.16 393.15H576.94V392.54H578.16V393.15ZM575.73 393.15H574.51V392.54H575.73V393.15ZM573.3 393.15H572.08V392.54H573.3V393.15ZM570.87 393.15H569.65V392.54H570.87V393.15ZM568.44 393.15H567.22V392.54H568.44V393.15ZM566.01 393.15H564.79V392.54H566.01V393.15ZM563.58 393.15H562.36V392.54H563.58V393.15ZM561.15 393.15H559.93V392.54H561.15V393.15ZM558.72 393.15H557.5V392.54H558.72V393.15ZM556.29 393.15H555.07V392.54H556.29V393.15ZM553.86 393.15H552.64V392.54H553.86V393.15ZM551.43 393.15H550.21V392.54H551.43V393.15ZM549 393.15H547.78V392.54H549V393.15ZM546.57 393.15H545.35V392.54H546.57V393.15ZM544.14 393.15H542.92V392.54H544.14V393.15ZM541.71 393.15H540.49V392.54H541.71V393.15ZM539.28 393.15H538.06V392.54H539.28V393.15ZM536.85 393.15H535.63V392.54H536.85V393.15ZM534.42 393.15H533.2V392.54H534.42V393.15ZM531.99 393.15H530.77V392.54H531.99V393.15ZM529.56 393.15H528.34V392.54H529.56V393.15ZM527.13 393.15H525.91V392.54H527.13V393.15ZM524.7 393.15H523.48V392.54H524.7V393.15ZM522.27 393.15H521.05V392.54H522.27V393.15ZM519.84 393.15H518.62V392.54H519.84V393.15ZM517.41 393.15H516.19V392.54H517.41V393.15ZM514.98 393.15H513.76V392.54H514.98V393.15ZM512.55 393.15H511.33V392.54H512.55V393.15ZM510.12 393.15H508.9V392.54H510.12V393.15ZM507.69 393.15H506.47V392.54H507.69V393.15ZM505.26 393.15H504.04V392.54H505.26V393.15ZM502.83 393.15H501.61V392.54H502.83V393.15ZM500.4 393.15H499.18V392.54H500.4V393.15ZM497.97 393.15H496.75V392.54H497.97V393.15ZM495.54 393.15H494.32V392.54H495.54V393.15ZM493.11 393.15H491.89V392.54H493.11V393.15ZM490.68 393.15H489.46V392.54H490.68V393.15ZM488.25 393.15H487.03V392.54H488.25V393.15ZM485.82 393.15H484.6V392.54H485.82V393.15ZM483.39 393.15H482.17V392.54H483.39V393.15ZM480.96 393.15H479.74V392.54H480.96V393.15ZM478.53 393.15H477.31V392.54H478.53V393.15ZM476.1 393.15H474.88V392.54H476.1V393.15ZM473.67 393.15H472.45V392.54H473.67V393.15ZM471.24 393.15H470.02V392.54H471.24V393.15ZM468.81 393.15H467.59V392.54H468.81V393.15ZM466.38 393.15H465.16V392.54H466.38V393.15ZM463.95 393.15H462.73V392.54H463.95V393.15ZM461.52 393.15H460.3V392.54H461.52V393.15ZM459.09 393.15H457.87V392.54H459.09V393.15ZM456.66 393.15H455.44V392.54H456.66V393.15ZM454.23 393.15H453.01V392.54H454.23V393.15ZM451.8 393.15H450.58V392.54H451.8V393.15ZM449.37 393.15H448.15V392.54H449.37V393.15ZM446.94 393.15H445.72V392.54H446.94V393.15ZM444.51 393.15H443.29V392.54H444.51V393.15ZM442.08 393.15H440.86V392.54H442.08V393.15ZM439.65 393.15H438.43V392.54H439.65V393.15ZM437.22 393.15H436V392.54H437.22V393.15ZM434.79 393.15H433.57V392.54H434.79V393.15ZM432.36 393.15H431.14V392.54H432.36V393.15ZM429.93 393.15H428.71V392.54H429.93V393.15ZM427.5 393.15H426.28V392.54H427.5V393.15ZM425.07 393.15H423.85V392.54H425.07V393.15ZM422.64 393.15H421.42V392.54H422.64V393.15ZM420.21 393.15H418.99V392.54H420.21V393.15ZM417.78 393.15H416.56V392.54H417.78V393.15ZM415.35 393.15H414.13V392.54H415.35V393.15ZM412.92 393.15H411.7V392.54H412.92V393.15ZM410.49 393.15H409.27V392.54H410.49V393.15ZM408.06 393.15H406.84V392.54H408.06V393.15ZM405.63 393.15H404.41V392.54H405.63V393.15ZM403.2 393.15H401.98V392.54H403.2V393.15ZM400.77 393.15H399.55V392.54H400.77V393.15ZM398.34 393.15H397.12V392.54H398.34V393.15ZM395.91 393.15H394.69V392.54H395.91V393.15ZM393.48 393.15H392.26V392.54H393.48V393.15ZM391.05 393.15H389.83V392.54H391.05V393.15ZM388.62 393.15H387.4V392.54H388.62V393.15ZM386.19 393.15H384.97V392.54H386.19V393.15ZM383.76 393.15H382.54V392.54H383.76V393.15ZM381.33 393.15H380.11V392.54H381.33V393.15ZM378.9 393.15H377.68V392.54H378.9V393.15ZM376.47 393.15H375.25V392.54H376.47V393.15ZM374.04 393.15H372.82V392.54H374.04V393.15ZM371.61 393.15H370.39V392.54H371.61V393.15ZM369.18 393.15H367.96V392.54H369.18V393.15ZM366.75 393.15H365.53V392.54H366.75V393.15ZM364.32 393.15H363.1V392.54H364.32V393.15ZM361.89 393.15H360.67V392.54H361.89V393.15ZM359.46 393.15H358.24V392.54H359.46V393.15ZM357.03 393.15H355.81V392.54H357.03V393.15ZM354.6 393.15H353.38V392.54H354.6V393.15ZM352.17 393.15H350.95V392.54H352.17V393.15ZM349.74 393.15H348.52V392.54H349.74V393.15ZM347.31 393.15H346.09V392.54H347.31V393.15ZM344.88 393.15H343.66V392.54H344.88V393.15ZM342.45 393.15H341.23V392.54H342.45V393.15ZM340.02 393.15H338.8V392.54H340.02V393.15ZM337.59 393.15H336.37V392.54H337.59V393.15ZM335.16 393.15H333.94V392.54H335.16V393.15ZM332.73 393.15H331.51V392.54H332.73V393.15ZM330.3 393.15H329.08V392.54H330.3V393.15ZM327.87 393.15H326.65V392.54H327.87V393.15ZM325.44 393.15H324.22V392.54H325.44V393.15Z" fill="#001E2B"/>
<path d="M602.82 351.12C596.43 329.26 576.25 313.29 552.32 313.29C532.91 313.29 515.96 323.81 506.84 339.45C505.32 339.27 503.78 339.17 502.22 339.17C480.32 339.17 462.56 356.93 462.56 378.83C462.56 400.73 480.32 418.49 502.22 418.49H602.61C621.22 418.49 636.3 403.41 636.3 384.8C636.3 366.19 621.33 351.23 602.82 351.11V351.12Z" fill="#001F2C"/>
<path d="M602.82 338.45C596.43 316.59 576.25 300.62 552.32 300.62C532.91 300.62 515.96 311.14 506.84 326.78C505.32 326.6 503.78 326.5 502.22 326.5C480.32 326.5 462.56 344.26 462.56 366.16C462.56 388.06 480.32 405.82 502.22 405.82H602.61C621.22 405.82 636.3 390.74 636.3 372.13C636.3 353.52 621.33 338.56 602.82 338.44V338.45Z" fill="white"/>
<path d="M602.61 406.06H502.22C480.23 406.06 462.33 388.17 462.33 366.17C462.33 344.17 480.22 326.28 502.22 326.28C503.67 326.28 505.18 326.37 506.72 326.54C516.18 310.41 533.64 300.4 552.32 300.4C563.98 300.4 575.03 304.12 584.28 311.16C593.19 317.94 599.83 327.55 602.98 338.22C621.49 338.43 636.52 353.6 636.52 372.13C636.52 390.66 621.3 406.05 602.6 406.05L602.61 406.06ZM502.22 326.74C480.48 326.74 462.79 344.43 462.79 366.17C462.79 387.91 480.48 405.6 502.22 405.6H602.61C621.06 405.6 636.07 390.59 636.07 372.14C636.07 353.69 621.15 338.79 602.82 338.68H602.65L602.6 338.52C599.49 327.87 592.89 318.28 584.01 311.53C574.84 304.55 563.88 300.86 552.32 300.86C533.75 300.86 516.4 310.84 507.04 326.91L506.96 327.04L506.81 327.02C505.24 326.84 503.69 326.74 502.22 326.74Z" fill="#001E2B"/>
</svg>
