<?xml version="1.0" encoding="utf-8"?>
<svg xmlns="http://www.w3.org/2000/svg" width="448" height="298" viewBox="0 0 448 298" fill="none">
<g clip-path="url(#clip0_4697_31668)">
<path d="M281.566 93.9839C279.952 92.0893 277.946 90.5682 275.686 89.5258C273.426 88.4835 270.966 87.9449 268.477 87.9473H185.748C183.488 87.9473 181.25 88.393 179.163 89.2591C177.075 90.1251 175.179 91.3944 173.583 92.9943C171.987 94.5941 170.722 96.4931 169.861 98.5825C169 100.672 168.559 102.911 168.564 105.171V260.319C168.564 264.876 170.375 269.247 173.597 272.47C176.82 275.692 181.191 277.503 185.748 277.503H268.477C270.735 277.504 272.971 277.06 275.058 276.198C277.144 275.335 279.04 274.069 280.638 272.474C282.235 270.878 283.503 268.984 284.368 266.898C285.233 264.813 285.679 262.577 285.681 260.319V105.171C285.7 101.068 284.239 97.0961 281.566 93.9839Z" fill="black" stroke="black" stroke-miterlimit="10"/>
<path d="M279.973 94.8105C279.086 94.4027 278.166 94.0695 277.224 93.8143C277.308 93.3472 277.418 92.885 277.552 92.4297C278.438 93.1395 279.249 93.9371 279.973 94.8105Z" fill="white" stroke="black" stroke-linecap="round" stroke-linejoin="round"/>
<path d="M188.706 187.133H176.792V210.044H188.706V187.133Z" fill="black" stroke="black" stroke-miterlimit="10"/>
<path d="M213.122 171.094H201.208V210.053H213.122V171.094Z" fill="black" stroke="black" stroke-miterlimit="10"/>
<path d="M237.537 158.494H225.624V210.044H237.537V158.494Z" fill="black" stroke="black" stroke-miterlimit="10"/>
<path d="M261.952 148.184H250.039V210.054H261.952V148.184Z" fill="black" stroke="black" stroke-miterlimit="10"/>
<path d="M275.42 89.0718C273.808 87.1751 271.802 85.6526 269.542 84.6101C267.281 83.5676 264.82 83.0301 262.331 83.0352H179.602C175.05 83.0352 170.684 84.8415 167.462 88.0575C164.24 91.2736 162.426 95.6366 162.418 100.189V235.952H279.535V100.189C279.547 96.1084 278.086 92.1608 275.42 89.0718Z" fill="white" stroke="black" stroke-width="0.84" stroke-linecap="round" stroke-linejoin="round"/>
<path d="M188.706 187.133H176.792V210.044H188.706V187.133Z" fill="white" stroke="black" stroke-width="0.84" stroke-linecap="round" stroke-linejoin="round"/>
<path d="M213.122 171.094H201.208V210.053H213.122V171.094Z" fill="white" stroke="black" stroke-width="0.84" stroke-linecap="round" stroke-linejoin="round"/>
<path d="M237.537 158.494H225.624V210.044H237.537V158.494Z" fill="white" stroke="black" stroke-width="0.84" stroke-linecap="round" stroke-linejoin="round"/>
<path d="M261.952 148.184H250.039V210.054H261.952V148.184Z" fill="white" stroke="black" stroke-width="0.84" stroke-linecap="round" stroke-linejoin="round"/>
<path d="M168.983 229.568V104.294C168.983 100.331 170.557 96.5302 173.359 93.728C176.162 90.9258 179.962 89.3516 183.925 89.3516H260.498C263.814 89.3516 266.994 90.6687 269.338 93.0132C271.683 95.3577 273 98.5375 273 101.853V229.568" stroke="black" stroke-width="0.84" stroke-linecap="round" stroke-linejoin="round"/>
<path d="M279.535 235.953V255.398C279.532 259.959 277.718 264.332 274.492 267.556C271.266 270.78 266.892 272.591 262.331 272.591H179.602C175.045 272.583 170.678 270.769 167.457 267.546C164.235 264.323 162.424 259.954 162.418 255.398V235.953H279.535Z" fill="#00ED64" stroke="black" stroke-width="0.84" stroke-linecap="round" stroke-linejoin="round"/>
<path d="M188.697 186.713H176.793C176.562 186.713 176.375 186.9 176.375 187.131V210.042C176.375 210.274 176.562 210.461 176.793 210.461H188.697C188.928 210.461 189.115 210.274 189.115 210.042V187.131C189.115 186.9 188.928 186.713 188.697 186.713Z" fill="#B1FF05"/>
<path d="M188.706 187.132V210.043H176.753V187.132H188.706ZM188.706 186.295H176.753C176.532 186.298 176.32 186.386 176.164 186.543C176.008 186.699 175.919 186.911 175.916 187.132V210.043C175.916 210.265 176.004 210.478 176.161 210.635C176.318 210.791 176.531 210.88 176.753 210.88H188.706C188.816 210.88 188.924 210.858 189.025 210.816C189.126 210.774 189.218 210.712 189.295 210.634C189.372 210.556 189.432 210.464 189.473 210.362C189.514 210.261 189.535 210.152 189.533 210.043V187.132C189.533 186.911 189.446 186.7 189.292 186.544C189.137 186.387 188.927 186.298 188.706 186.295Z" fill="black"/>
<path d="M213.112 170.676H201.208C200.977 170.676 200.79 170.863 200.79 171.094V210.043C200.79 210.274 200.977 210.462 201.208 210.462H213.112C213.343 210.462 213.53 210.274 213.53 210.043V171.094C213.53 170.863 213.343 170.676 213.112 170.676Z" fill="#B1FF05"/>
<path d="M213.092 171.095V210.044H201.139V171.095H213.092ZM213.092 170.258H201.139C200.917 170.26 200.706 170.349 200.55 170.506C200.393 170.662 200.304 170.873 200.302 171.095V210.044C200.302 210.266 200.39 210.478 200.547 210.635C200.704 210.792 200.917 210.88 201.139 210.88H213.092C213.314 210.88 213.527 210.792 213.684 210.635C213.841 210.478 213.929 210.266 213.929 210.044V171.095C213.926 170.873 213.837 170.662 213.681 170.506C213.525 170.349 213.313 170.26 213.092 170.258Z" fill="black"/>
<path d="M237.527 158.074H225.623C225.392 158.074 225.205 158.262 225.205 158.493V210.043C225.205 210.274 225.392 210.461 225.623 210.461H237.527C237.758 210.461 237.946 210.274 237.946 210.043V158.493C237.946 158.262 237.758 158.074 237.527 158.074Z" fill="#B1FF05"/>
<path d="M237.537 158.493V210.043H225.583V158.493H237.537ZM237.537 157.656H225.583C225.362 157.659 225.151 157.748 224.995 157.904C224.838 158.061 224.749 158.272 224.747 158.493V210.043C224.747 210.265 224.835 210.478 224.992 210.635C225.149 210.792 225.361 210.88 225.583 210.88H237.537C237.759 210.88 237.972 210.792 238.129 210.635C238.286 210.478 238.374 210.265 238.374 210.043V158.493C238.371 158.272 238.282 158.061 238.126 157.904C237.969 157.748 237.758 157.659 237.537 157.656Z" fill="black"/>
<path d="M261.953 147.766H250.049C249.818 147.766 249.63 147.953 249.63 148.184V210.054C249.63 210.285 249.818 210.473 250.049 210.473H261.953C262.184 210.473 262.371 210.285 262.371 210.054V148.184C262.371 147.953 262.184 147.766 261.953 147.766Z" fill="#B1FF05"/>
<path d="M261.953 148.183V210.043H249.999V148.183H261.953ZM261.953 147.346H249.999C249.889 147.344 249.779 147.365 249.677 147.407C249.575 147.448 249.482 147.51 249.404 147.588C249.326 147.666 249.265 147.759 249.223 147.861C249.182 147.963 249.161 148.072 249.162 148.183V210.043C249.161 210.153 249.182 210.262 249.223 210.365C249.265 210.467 249.326 210.559 249.404 210.637C249.482 210.715 249.575 210.777 249.677 210.819C249.779 210.86 249.889 210.881 249.999 210.88H261.953C262.174 210.88 262.387 210.791 262.544 210.634C262.701 210.478 262.789 210.265 262.789 210.043V148.183C262.789 147.961 262.701 147.748 262.544 147.591C262.387 147.434 262.174 147.346 261.953 147.346Z" fill="black"/>
<path d="M242.847 70.4452C240.99 67.477 238.409 65.0296 235.347 63.3329C232.284 61.6362 228.841 60.7461 225.34 60.7461C221.839 60.7461 218.395 61.6362 215.333 63.3329C212.27 65.0296 209.689 67.477 207.833 70.4452" stroke="black" stroke-linecap="round" stroke-linejoin="round"/>
<path d="M242.847 70.4452C240.99 67.477 238.409 65.0296 235.347 63.3329C232.284 61.6362 228.841 60.7461 225.34 60.7461C221.839 60.7461 218.395 61.6362 215.333 63.3329C212.27 65.0296 209.689 67.477 207.833 70.4452" stroke="black" stroke-linecap="round" stroke-linejoin="round"/>
<path d="M256.484 57.7532C253.355 52.3548 248.878 47.8618 243.49 44.7148C238.102 41.5678 231.989 39.8746 225.75 39.8013C219.511 39.728 213.36 41.277 207.9 44.2966C202.44 47.3161 197.858 51.7026 194.604 57.026" stroke="black" stroke-linecap="round" stroke-linejoin="round"/>
<path d="M268.656 43.4101C263.904 36.419 257.529 30.6823 250.077 26.6905C242.625 22.6986 234.318 20.5701 225.865 20.4869C217.411 20.4037 209.064 22.3683 201.535 26.2127C194.006 30.0571 187.519 35.6671 182.63 42.5634" stroke="black" stroke-linecap="round" stroke-linejoin="round"/>
</g>
<defs>
<clipPath id="clip0_4697_31668">
<rect width="124.179" height="258" fill="white" transform="translate(162 20)"/>
</clipPath>
</defs>
</svg>