<?xml version="1.0" encoding="utf-8"?>
<svg xmlns="http://www.w3.org/2000/svg" width="698" height="468" viewBox="0 0 698 468" fill="none">
<g clip-path="url(#clip0_5830_1718)">
<path d="M192.655 427.501C189.86 427.524 187.111 426.783 184.706 425.357C182.301 423.931 180.332 421.876 179.011 419.412C177.674 416.963 177.017 414.202 177.106 411.413C177.195 408.625 178.029 405.911 179.519 403.553L211.956 352.913C215.052 348.055 219.329 344.06 224.387 341.303C229.445 338.545 235.12 337.114 240.881 337.144H457.453C463.212 337.124 468.883 338.558 473.94 341.315C478.997 344.072 483.275 348.061 486.378 352.913L518.755 403.563C520.292 405.903 521.153 408.622 521.243 411.421C521.332 414.219 520.648 416.988 519.264 419.422C517.934 421.869 515.968 423.912 513.573 425.334C511.178 426.756 508.444 427.505 505.659 427.501H192.655Z" fill="black" stroke="black" stroke-miterlimit="10"/>
<path d="M192.655 421.088C189.861 421.111 187.113 420.37 184.709 418.947C182.304 417.523 180.334 415.47 179.011 413.009C177.674 410.558 177.017 407.795 177.106 405.005C177.196 402.215 178.029 399.5 179.519 397.14L211.956 346.5C215.052 341.643 219.33 337.65 224.388 334.894C229.446 332.138 235.121 330.709 240.881 330.741H457.453C463.211 330.718 468.882 332.151 473.939 334.906C478.996 337.661 483.275 341.649 486.378 346.5L518.755 397.14C520.292 399.482 521.153 402.203 521.242 405.003C521.332 407.803 520.647 410.573 519.264 413.009C517.93 415.461 515.957 417.507 513.555 418.93C511.153 420.352 508.41 421.098 505.619 421.088H192.655Z" fill="#F9EBFF" stroke="black" stroke-linejoin="round"/>
<path d="M211.966 346.5H486.358" stroke="black" stroke-linecap="round" stroke-linejoin="round"/>
<path d="M372.642 387.467C397.613 383.064 416.204 370.123 414.165 358.563C412.127 347.002 390.231 341.2 365.26 345.603C340.289 350.006 321.699 362.947 323.737 374.507C325.776 386.068 347.671 391.87 372.642 387.467Z" fill="black" stroke="black" stroke-miterlimit="10"/>
<path d="M453.852 237.321L437.325 238.987V247.724C437.325 248.253 437.535 248.761 437.909 249.135C438.283 249.509 438.79 249.719 439.32 249.719H551.79C556.299 249.762 560.719 248.469 564.495 246.003C568.27 243.538 571.231 240.01 573.005 235.865C577.364 225.252 574.332 214.919 567.549 208.535" fill="black"/>
<path d="M453.852 237.321L437.325 238.987V247.724C437.325 248.253 437.535 248.761 437.909 249.135C438.283 249.509 438.79 249.719 439.32 249.719H551.79C556.299 249.762 560.719 248.469 564.495 246.003C568.27 243.538 571.231 240.01 573.005 235.865C577.364 225.252 574.332 214.919 567.549 208.535" stroke="black" stroke-miterlimit="10"/>
<path d="M551.181 191.918H476.294C463.866 191.918 453.084 201.174 451.947 213.552C451.572 217.57 452.228 221.618 453.852 225.312L437.804 237.471C437.605 237.621 437.458 237.829 437.385 238.067C437.311 238.305 437.314 238.561 437.394 238.797C437.473 239.033 437.625 239.238 437.827 239.383C438.03 239.528 438.273 239.606 438.522 239.605H550.673C563.639 239.605 574.611 229.551 575.07 216.664C575.191 213.454 574.662 210.253 573.515 207.253C572.369 204.252 570.627 201.514 568.396 199.203C566.166 196.892 563.491 195.055 560.532 193.804C557.574 192.552 554.394 191.91 551.181 191.918Z" fill="#00E97C" stroke="black" stroke-linejoin="round"/>
<path d="M225.361 190.263H114.916C101.949 190.263 90.9776 200.317 90.5088 213.204C90.3839 216.412 90.9081 219.613 92.0498 222.614C93.1915 225.616 94.9273 228.355 97.1532 230.67C99.3791 232.984 102.049 234.825 105.004 236.083C107.958 237.341 111.136 237.989 114.347 237.99H198.341L223.396 251.954C223.573 252.054 223.773 252.106 223.977 252.106C224.18 252.106 224.38 252.053 224.557 251.952C224.733 251.852 224.881 251.707 224.985 251.533C225.09 251.358 225.147 251.16 225.152 250.956V237.99H225.361C228.533 238.055 231.687 237.486 234.636 236.317C237.586 235.148 240.273 233.402 242.539 231.181C244.805 228.961 246.606 226.31 247.835 223.385C249.064 220.46 249.697 217.319 249.697 214.146C249.697 210.973 249.064 207.832 247.835 204.907C246.606 201.982 244.805 199.332 242.539 197.111C240.273 194.891 237.586 193.145 234.636 191.976C231.687 190.806 228.533 190.238 225.361 190.303V190.263Z" fill="black" stroke="black" stroke-miterlimit="10"/>
<path d="M225.361 180.069H114.916C101.949 180.069 90.9774 190.123 90.5086 203.01C90.3933 206.213 90.9247 209.405 92.0708 212.398C93.217 215.39 94.9545 218.121 97.1795 220.427C99.4046 222.733 102.072 224.567 105.021 225.82C107.971 227.072 111.143 227.717 114.347 227.716H198.341L223.396 241.681C223.573 241.781 223.773 241.833 223.976 241.833C224.18 241.832 224.38 241.779 224.556 241.679C224.733 241.579 224.881 241.434 224.985 241.26C225.09 241.085 225.147 240.886 225.152 240.683V227.716H225.361C228.533 227.781 231.687 227.213 234.636 226.044C237.586 224.874 240.272 223.128 242.539 220.908C244.805 218.687 246.606 216.037 247.835 213.112C249.064 210.187 249.697 207.046 249.697 203.873C249.697 200.7 249.064 197.559 247.835 194.634C246.606 191.709 244.805 189.058 242.539 186.838C240.272 184.617 237.586 182.872 234.636 181.702C231.687 180.533 228.533 179.965 225.361 180.029V180.069Z" fill="#00E97C" stroke="black" stroke-miterlimit="10"/>
<path d="M298.373 165.905C284.309 165.905 272.899 175.321 272.899 186.921C272.899 198.521 284.309 207.937 298.373 207.937V165.905Z" fill="#B45AF2" stroke="black" stroke-miterlimit="10"/>
<path d="M349.172 114.518C357.347 114.518 363.974 107.891 363.974 99.7159C363.974 91.5411 357.347 84.9141 349.172 84.9141C340.997 84.9141 334.37 91.5411 334.37 99.7159C334.37 107.891 340.997 114.518 349.172 114.518Z" fill="white" stroke="black" stroke-linecap="round" stroke-linejoin="round"/>
<path d="M378.117 85.971C375.665 80.3215 371.615 75.5118 366.465 72.1334C361.316 68.755 355.291 66.9551 349.132 66.9551C342.973 66.9551 336.948 68.755 331.799 72.1334C326.649 75.5118 322.599 80.3215 320.147 85.971" stroke="black" stroke-linecap="round" stroke-linejoin="round"/>
<path d="M392.64 79.668C388.959 71.1995 382.884 63.9908 375.161 58.9276C367.439 53.8643 358.406 51.167 349.172 51.167C339.938 51.167 330.905 53.8643 323.183 58.9276C315.461 63.9908 309.386 71.1995 305.704 79.668" stroke="black" stroke-linecap="round" stroke-linejoin="round"/>
<path d="M359.605 110.219C361.642 108.188 363.043 105.607 363.636 102.792C364.228 99.9778 363.988 97.0513 362.943 94.3713C361.898 91.6913 360.095 89.374 357.754 87.7032C355.412 86.0323 352.635 85.0804 349.76 84.9639C351.121 85.6592 352.363 86.5647 353.441 87.6469C355.551 89.7564 356.974 92.4543 357.524 95.3868C358.074 98.3192 357.725 101.349 356.522 104.08C355.32 106.81 353.32 109.114 350.786 110.688C348.251 112.262 345.3 113.034 342.32 112.902C345.112 114.348 348.293 114.867 351.401 114.385C354.508 113.902 357.382 112.443 359.605 110.219Z" fill="black" stroke="black" stroke-linecap="round" stroke-linejoin="round"/>
<path d="M367.874 253.121H330.52C306.582 253.121 283.89 273.848 289.147 297.188C293.525 316.627 309.095 353.722 318.691 371.197C331.797 395.135 368.752 394.766 381.359 370.538C390.426 353.133 405.088 316.358 409.237 297.188C414.304 273.808 391.792 253.121 367.874 253.121Z" fill="#B45AF2" stroke="black" stroke-miterlimit="10"/>
<path d="M343.556 334.033L341.831 329.045L341.611 328.966C341.083 328.766 340.614 328.557 340.035 328.317C339.003 327.854 338.003 327.321 337.043 326.721L336.824 326.582L332.256 328.437L327.069 323.35L328.984 318.363L328.874 318.153C328.056 316.709 327.388 315.185 326.879 313.605L326.8 313.356L322.092 311.8L321.384 304.569L326.061 301.975V301.746C326.354 300.102 326.819 298.494 327.448 296.948L327.538 296.709L324.914 292.51L329.014 286.525L334.181 287.522L334.37 287.373C335.675 286.268 337.097 285.308 338.609 284.51L338.829 284.381L339.507 279.573L346.489 277.628L349.721 281.618H350.189C351.906 281.62 353.618 281.804 355.296 282.166L355.545 282.216L359.066 279.044L365.669 282.037L365.59 287.074L365.769 287.233C367.166 288.384 368.427 289.689 369.529 291.123L369.689 291.323L374.337 291.163L377.469 297.706L374.128 301.506V301.746C374.454 303.535 374.578 305.355 374.497 307.172V307.431L378.157 310.284L376.342 317.266L371.355 318.054L371.235 318.263C370.336 319.815 369.269 321.263 368.053 322.582L367.884 322.772L368.881 327.38L362.976 331.599L358.558 328.946L358.328 329.025C356.688 329.612 354.989 330.02 353.261 330.242H353.012L350.748 334.501L343.556 334.033ZM350.239 289.936C347.196 289.938 344.216 290.797 341.638 292.415C339.061 294.032 336.991 296.343 335.667 299.083C334.737 301.035 334.21 303.154 334.116 305.314C334.023 307.474 334.366 309.631 335.125 311.656C335.884 313.68 337.043 315.531 338.532 317.099C340.022 318.666 341.812 319.917 343.796 320.777C345.788 321.642 347.938 322.086 350.11 322.083C353.154 322.082 356.136 321.222 358.713 319.602C361.291 317.983 363.36 315.669 364.682 312.927C365.859 310.482 366.397 307.778 366.246 305.068C366.094 302.359 365.258 299.732 363.815 297.433C362.372 295.135 360.37 293.239 357.996 291.925C355.622 290.61 352.953 289.919 350.239 289.916V289.936Z" fill="black"/>
<path d="M346.359 278.206L349.242 281.757L349.541 282.136H350.189C351.866 282.137 353.538 282.317 355.177 282.675L355.675 282.774L356.054 282.435L359.136 279.653L359.356 279.752L364.931 282.286L365.151 282.385L365.071 286.864V287.343L365.44 287.642C366.805 288.771 368.04 290.049 369.121 291.452L369.44 291.861H369.948L374.018 291.721L375.205 294.195L376.871 297.676L373.958 301.027L373.639 301.387L373.729 301.865C374.047 303.618 374.168 305.402 374.088 307.182V307.69L374.497 308.009L377.698 310.503L377.25 312.258L376.053 316.897L371.624 317.605L371.155 317.675L370.916 318.093C370.037 319.613 368.993 321.031 367.804 322.323L367.455 322.702L367.555 323.21L368.422 327.2L364.682 329.873L363.046 331.04L359.106 328.676L358.697 328.437L358.259 328.596C356.643 329.17 354.971 329.571 353.271 329.793L352.763 329.863L352.523 330.312L350.529 334.062H350.279L343.936 333.564L342.399 329.105L342.25 328.666L341.811 328.497C341.282 328.307 340.764 328.088 340.265 327.868C339.264 327.406 338.295 326.88 337.362 326.292L336.934 326.023L336.455 326.213L332.465 327.848L330.47 325.853L327.777 323.21L329.493 318.742L329.652 318.303L329.423 317.894C328.61 316.475 327.942 314.978 327.428 313.425L327.278 312.947L326.79 312.787L322.601 311.431L322.481 310.184L321.962 304.858L326.141 302.544L326.56 302.314L326.64 301.845C326.933 300.234 327.388 298.657 327.997 297.137L328.186 296.669L327.917 296.24L325.603 292.529L326.949 290.534L329.333 287.053L333.941 287.951L334.41 288.041L334.779 287.732C336.06 286.654 337.451 285.715 338.928 284.929L339.377 284.69L339.447 284.181L340.046 279.952L343.766 278.954L346.409 278.216M350.159 322.612C353.293 322.603 356.36 321.712 359.011 320.042C361.663 318.371 363.79 315.989 365.151 313.166C366.365 310.645 366.921 307.857 366.765 305.062C366.609 302.268 365.747 299.559 364.259 297.189C362.771 294.818 360.707 292.864 358.258 291.508C355.81 290.153 353.058 289.44 350.259 289.437C347.124 289.434 344.052 290.314 341.394 291.976C338.736 293.637 336.599 296.014 335.228 298.833C334.265 300.846 333.718 303.032 333.62 305.261C333.522 307.491 333.874 309.717 334.657 311.806C335.439 313.896 336.635 315.806 338.172 317.423C339.71 319.04 341.558 320.33 343.606 321.215C345.661 322.109 347.879 322.567 350.12 322.562M346.728 277.029L343.457 277.937L339.108 279.154L338.42 284.031C336.878 284.855 335.428 285.838 334.091 286.964L328.844 285.966L326.082 289.956L324.366 292.459L327.039 296.719C326.393 298.295 325.918 299.937 325.623 301.616L320.865 304.259L321.453 310.244L321.633 312.139L326.441 313.695C326.961 315.31 327.646 316.868 328.485 318.343L326.49 323.43L329.652 326.532L332.136 328.965L336.774 327.09C337.736 327.697 338.736 328.244 339.766 328.726C340.295 328.965 340.834 329.185 341.372 329.384L343.118 334.461L350.1 335L344.005 334.531L350.987 335.07L353.281 330.751C355.043 330.522 356.776 330.104 358.448 329.504L362.956 332.207L365.131 330.651L369.39 327.599L368.392 322.931C369.633 321.586 370.721 320.108 371.634 318.522L376.711 317.714L378.068 312.438L378.686 310.054L374.976 307.152C375.055 305.298 374.928 303.441 374.597 301.616L377.938 297.766L375.943 293.696L374.477 290.624L369.759 290.794C368.629 289.328 367.341 287.99 365.919 286.804L366.009 281.677L365.191 281.308L359.765 278.885L358.947 278.515L355.376 281.737C353.665 281.37 351.92 281.182 350.169 281.179H350.01L346.718 277.119L346.728 277.029ZM350.12 321.565C347.493 321.555 344.911 320.88 342.615 319.603C340.32 318.326 338.385 316.489 336.99 314.262C335.596 312.036 334.789 309.492 334.643 306.869C334.497 304.247 335.017 301.629 336.156 299.262C337.434 296.603 339.439 294.359 341.938 292.79C344.437 291.222 347.329 290.391 350.279 290.395C352.386 290.39 354.471 290.822 356.403 291.662C359.715 293.078 362.434 295.598 364.098 298.792C365.762 301.987 366.269 305.659 365.532 309.184C364.795 312.71 362.86 315.872 360.056 318.133C357.252 320.393 353.751 321.613 350.149 321.584L350.12 321.565ZM368.762 328.128L365.231 330.651L363.784 331.649L368.772 328.098L368.762 328.128Z" fill="black"/>
<path d="M342.21 330.95L340.494 325.963L340.275 325.873C339.746 325.684 339.218 325.464 338.699 325.225C337.668 324.759 336.668 324.226 335.707 323.629L335.497 323.489L330.929 325.345L325.742 320.258L327.657 315.271L327.538 315.071C326.721 313.623 326.053 312.096 325.543 310.513L325.463 310.273L320.715 308.737L320.017 301.516L324.685 298.923L324.735 298.683C325.027 297.04 325.492 295.432 326.121 293.886L326.211 293.646L323.588 289.447L327.687 283.462L332.854 284.46L333.034 284.31C334.344 283.207 335.768 282.248 337.283 281.448L337.502 281.328L338.17 276.51L345.152 274.565L348.384 278.555H348.773C350.489 278.555 352.201 278.735 353.88 279.094L354.129 279.144L357.65 275.972L364.253 278.964L364.173 283.951L364.353 284.101C365.745 285.256 367.006 286.561 368.113 287.991L368.263 288.2L372.921 288.031L376.122 294.644L372.841 298.424V298.663C373.163 300.453 373.287 302.273 373.21 304.089V304.349L376.871 307.201L375.125 314.233L370.138 315.021L370.018 315.231C369.124 316.786 368.057 318.235 366.836 319.549L366.667 319.739L367.664 324.347L361.76 328.566L357.341 325.913L357.111 325.993C355.471 326.581 353.772 326.992 352.045 327.22H351.795L349.531 331.479L342.21 330.95ZM348.943 286.864C345.9 286.866 342.919 287.725 340.342 289.342C337.764 290.96 335.695 293.271 334.37 296.01C333.191 298.456 332.651 301.161 332.801 303.872C332.952 306.583 333.788 309.211 335.231 311.511C336.674 313.811 338.676 315.708 341.052 317.023C343.427 318.338 346.098 319.029 348.813 319.031C351.857 319.027 354.838 318.166 357.415 316.547C359.992 314.927 362.061 312.615 363.385 309.874C364.318 307.922 364.848 305.802 364.943 303.64C365.037 301.479 364.695 299.32 363.936 297.294C363.177 295.268 362.017 293.415 360.526 291.848C359.034 290.28 357.242 289.029 355.256 288.17C353.264 287.305 351.115 286.861 348.943 286.864Z" fill="white"/>
<path d="M345.053 275.124L347.935 278.685L348.244 279.054H348.873C350.549 279.056 352.22 279.233 353.86 279.582L354.359 279.692L354.738 279.343L357.82 276.56L358.039 276.66L363.605 279.193L363.834 279.293L363.754 283.772V284.25L364.123 284.559C365.491 285.686 366.726 286.964 367.804 288.37L368.123 288.769H368.632L372.701 288.619L373.878 291.093L375.544 294.574L372.642 297.925L372.322 298.294L372.412 298.763C372.726 300.517 372.846 302.299 372.771 304.079V304.598L373.18 304.907L376.382 307.401L376.322 307.64L374.726 313.804L370.308 314.502L369.829 314.582L369.599 314.991C368.714 316.512 367.668 317.934 366.477 319.23L366.128 319.609L366.238 320.108L367.106 324.098L366.886 324.257L361.899 327.788L361.69 327.938L357.7 325.574L357.291 325.334L356.852 325.494C355.236 326.066 353.565 326.467 351.865 326.691L351.356 326.761L351.107 327.21L349.112 330.96H348.873L342.529 330.461L340.993 326.013L340.843 325.564L340.395 325.404C339.866 325.205 339.397 324.985 338.859 324.766C337.857 324.309 336.888 323.786 335.956 323.2L335.527 322.921L335.048 323.11L331.059 324.746L329.064 322.751L326.371 320.108L328.086 315.639L328.256 315.201L328.027 314.792C327.211 313.377 326.543 311.883 326.032 310.333L325.872 309.844L325.393 309.685L321.204 308.328L321.084 307.081L320.566 301.755L324.745 299.441L325.154 299.212L325.244 298.743C325.534 297.131 325.988 295.554 326.6 294.035L326.79 293.566L326.52 293.137L324.256 289.447L325.603 287.452L327.997 283.971L332.605 284.869L333.074 284.958L333.443 284.649C334.726 283.575 336.116 282.636 337.592 281.846L338.041 281.607L338.111 281.098L338.699 276.869L342.419 275.872L345.063 275.134M348.823 319.529C351.96 319.527 355.033 318.64 357.69 316.971C360.347 315.302 362.48 312.919 363.844 310.094C364.807 308.081 365.354 305.894 365.452 303.665C365.55 301.436 365.198 299.21 364.415 297.121C363.633 295.031 362.437 293.12 360.9 291.504C359.362 289.887 357.514 288.597 355.466 287.711C353.411 286.818 351.193 286.36 348.953 286.365C345.809 286.369 342.731 287.261 340.072 288.937C337.413 290.613 335.281 293.006 333.921 295.84C332.707 298.362 332.151 301.15 332.307 303.944C332.463 306.738 333.326 309.447 334.813 311.818C336.301 314.188 338.365 316.143 340.814 317.498C343.262 318.854 346.014 319.567 348.813 319.569M345.422 274.037L342.14 274.954L337.791 276.161L337.113 281.049C335.571 281.866 334.119 282.846 332.784 283.971L327.538 282.974L324.775 286.963L323.059 289.467L325.722 293.726C325.085 295.306 324.611 296.947 324.306 298.623L319.558 301.266L320.137 307.251L320.326 309.146L325.134 310.702C325.654 312.317 326.339 313.875 327.179 315.35L325.234 320.437L328.386 323.539L330.879 325.973L335.517 324.098C336.473 324.716 337.473 325.263 338.51 325.733C339.038 325.973 339.567 326.192 340.105 326.392L341.861 331.469L348.843 332.017L342.749 331.538L349.731 332.087L352.025 327.758C353.787 327.529 355.519 327.111 357.191 326.511L361.69 329.214L362.438 328.686L367.425 325.145L368.173 324.616L367.176 319.938C368.416 318.593 369.503 317.114 370.417 315.53L375.494 314.722L377.25 307.929L375.724 313.794L377.479 307.002L373.769 304.099C373.848 302.246 373.721 300.389 373.39 298.563L376.731 294.713L374.786 290.644L373.32 287.582L368.592 287.751C367.47 286.281 366.185 284.942 364.762 283.762L364.852 278.645L364.034 278.266L358.458 275.732L357.64 275.363L354.079 278.585C352.368 278.221 350.623 278.037 348.873 278.036H348.713L345.422 273.967V274.037ZM348.813 318.572C346.186 318.562 343.604 317.887 341.309 316.61C339.013 315.333 337.078 313.496 335.684 311.269C334.29 309.043 333.482 306.5 333.336 303.877C333.19 301.254 333.711 298.637 334.849 296.269C336.129 293.611 338.133 291.368 340.632 289.799C343.131 288.231 346.022 287.4 348.973 287.402C351.599 287.412 354.181 288.087 356.477 289.364C358.772 290.641 360.708 292.478 362.102 294.705C363.496 296.931 364.303 299.474 364.449 302.097C364.595 304.72 364.075 307.337 362.937 309.705C361.656 312.362 359.651 314.604 357.152 316.173C354.654 317.742 351.763 318.573 348.813 318.572ZM367.455 325.135L363.934 327.648L367.475 325.125L367.455 325.135ZM363.914 327.658L362.488 328.656L363.924 327.658H363.914Z" fill="black"/>
<path d="M117.32 203.907H222.389" stroke="black" stroke-miterlimit="10" stroke-dasharray="2 2"/>
<path d="M473.023 115.655H583.468C596.435 115.655 607.406 125.709 607.875 138.596C607.99 141.799 607.459 144.992 606.313 147.985C605.167 150.978 603.43 153.71 601.205 156.017C598.98 158.323 596.313 160.158 593.363 161.412C590.414 162.665 587.242 163.312 584.037 163.312H500.043L474.988 177.276C474.811 177.376 474.611 177.429 474.407 177.428C474.204 177.428 474.004 177.375 473.827 177.275C473.651 177.174 473.503 177.03 473.399 176.855C473.294 176.681 473.237 176.482 473.232 176.279V163.312H473.023C469.851 163.377 466.697 162.808 463.748 161.639C460.798 160.47 458.111 158.724 455.845 156.504C453.579 154.283 451.778 151.633 450.549 148.708C449.32 145.783 448.687 142.642 448.687 139.469C448.687 136.296 449.32 133.155 450.549 130.23C451.778 127.305 453.579 124.654 455.845 122.434C458.111 120.213 460.798 118.467 463.748 117.298C466.697 116.129 469.851 115.56 473.023 115.625V115.655Z" fill="black" stroke="black" stroke-miterlimit="10"/>
<path d="M473.023 105.461H583.468C596.435 105.461 607.406 115.515 607.875 128.402C607.99 131.604 607.459 134.797 606.313 137.79C605.167 140.782 603.429 143.513 601.204 145.819C598.979 148.125 596.312 149.959 593.363 151.211C590.413 152.464 587.241 153.109 584.037 153.108H500.043L474.988 167.072C474.811 167.172 474.611 167.225 474.407 167.224C474.204 167.224 474.004 167.171 473.827 167.071C473.651 166.97 473.503 166.826 473.399 166.651C473.294 166.477 473.237 166.278 473.232 166.075V153.108H473.023C469.851 153.173 466.697 152.604 463.748 151.435C460.798 150.266 458.111 148.52 455.845 146.3C453.579 144.079 451.778 141.429 450.549 138.504C449.32 135.578 448.687 132.437 448.687 129.265C448.687 126.092 449.32 122.951 450.549 120.026C451.778 117.1 453.579 114.45 455.845 112.23C458.111 110.009 460.798 108.263 463.748 107.094C466.697 105.925 469.851 105.356 473.023 105.421V105.461Z" fill="#00E97C" stroke="black" stroke-miterlimit="10"/>
<path d="M582.082 129.27H500.043" stroke="black" stroke-linecap="round" stroke-linejoin="round"/>
<path d="M478.858 215.757H548.059" stroke="black" stroke-miterlimit="10" stroke-dasharray="2 2"/>
<path d="M349.192 135.085V114.558" stroke="black" stroke-miterlimit="10"/>
<path d="M163.022 303.052L172.936 318.253L182.511 301.187L172.757 286.226L163.022 303.052Z" fill="black" stroke="black" stroke-linejoin="round"/>
<path d="M163.181 303.281L143.731 305.176L153.307 288.1L172.757 286.205L163.181 303.281Z" fill="white" stroke="black" stroke-linejoin="round"/>
<path d="M143.721 305.146L153.496 320.108L172.946 318.213L163.032 303.012L143.721 305.146Z" fill="white" stroke="black" stroke-linejoin="round"/>
<path d="M555.81 40.499L572.616 46.9424L589.283 53.4357L575.319 64.7964L561.295 76.0275L558.592 58.1735L555.81 40.499Z" fill="white" stroke="black" stroke-linecap="round" stroke-linejoin="round"/>
<path d="M568.527 56.1685L561.295 76.0273L589.283 53.4355L568.527 56.1685Z" fill="black" stroke="black" stroke-linecap="round" stroke-linejoin="round"/>
<path d="M569.215 57.0165L555.81 40.499" stroke="black" stroke-linecap="round" stroke-linejoin="round"/>
<path d="M545.307 105.461L547.441 119.575L564.208 106.139L565.036 105.461H545.307Z" fill="black" stroke="black" stroke-linecap="round" stroke-linejoin="round"/>
<path d="M349.192 238.758C383.897 238.758 412.03 215.55 412.03 186.921C412.03 158.293 383.897 135.085 349.192 135.085C314.488 135.085 286.354 158.293 286.354 186.921C286.354 215.55 314.488 238.758 349.192 238.758Z" fill="#B45AF2" stroke="black" stroke-miterlimit="10"/>
<path d="M407.093 166.753C401.527 155.891 391.603 146.934 379.165 141.349C392.131 150.126 400.978 167.282 400.978 186.921C400.978 206.561 392.081 223.726 379.115 232.504C391.593 226.918 401.517 217.951 407.043 207.099C417.655 204.566 425.435 196.497 425.435 186.921C425.435 177.346 417.705 169.287 407.093 166.753Z" fill="black" stroke="black" stroke-miterlimit="10"/>
<path d="M380.85 178.842H317.533C310.488 178.842 304.776 184.553 304.776 191.599V192.138C304.776 199.183 310.488 204.895 317.533 204.895H380.85C387.896 204.895 393.607 199.183 393.607 192.138V191.599C393.607 184.553 387.896 178.842 380.85 178.842Z" fill="white" stroke="black" stroke-miterlimit="10"/>
<path d="M308.497 196.357V193.903C308.497 190.448 309.869 187.133 312.312 184.689C314.754 182.244 318.068 180.87 321.523 180.867H387.543C385.453 179.551 383.031 178.858 380.561 178.872H317.803C315.065 178.839 312.387 179.673 310.153 181.255C307.918 182.837 306.242 185.086 305.364 187.679C304.486 190.272 304.451 193.077 305.265 195.691C306.078 198.305 307.699 200.595 309.893 202.232C308.972 200.411 308.494 198.398 308.497 196.357Z" fill="black" stroke="black" stroke-linecap="round" stroke-linejoin="round"/>
<path d="M385.399 256.831C397.478 286.305 387.922 353.322 371.066 382.328C375.39 379.277 378.92 375.234 381.359 370.538C390.426 353.133 405.088 316.358 409.237 297.187C413.028 279.752 401.447 263.813 385.399 256.831Z" fill="black" stroke="black" stroke-miterlimit="10"/>
<path d="M473.232 138.556L488.124 129.3L473.232 120.054" stroke="black" stroke-linecap="round" stroke-linejoin="round"/>
<path d="M241.083 340.312C242.359 339.14 242.594 337.32 241.609 336.248C240.624 335.176 238.791 335.257 237.515 336.43C236.239 337.602 236.003 339.422 236.989 340.494C237.974 341.566 239.807 341.485 241.083 340.312Z" fill="white" stroke="black" stroke-width="1.00499" stroke-miterlimit="10"/>
<path d="M253.978 340.247C255.254 339.074 255.49 337.255 254.504 336.183C253.519 335.111 251.686 335.192 250.41 336.364C249.134 337.537 248.899 339.356 249.884 340.429C250.869 341.501 252.702 341.419 253.978 340.247Z" fill="white" stroke="black" stroke-width="1.00499" stroke-miterlimit="10"/>
<path d="M264.625 340.562C265.897 339.397 266.134 337.587 265.156 336.519C264.178 335.45 262.354 335.528 261.082 336.692C259.81 337.857 259.573 339.667 260.551 340.735C261.53 341.804 263.354 341.726 264.625 340.562Z" fill="white" stroke="black" stroke-miterlimit="10"/>
</g>
<defs>
<clipPath id="clip0_5830_1718">
<rect width="518.384" height="388" fill="white" transform="translate(90 40)"/>
</clipPath>
</defs>
</svg>