<svg width="696" height="468" viewBox="0 0 696 468" fill="none" xmlns="http://www.w3.org/2000/svg">
<path d="M202.604 234C175.773 234 154 255.73 154 282.11V379.89C154.006 386.213 155.257 392.474 157.682 398.314C160.107 404.154 163.659 409.459 168.134 413.926C172.61 418.394 177.921 421.936 183.766 424.351C189.61 426.766 195.873 428.006 202.197 428H299.786C306.14 427.996 312.431 426.736 318.297 424.293C324.163 421.851 329.488 418.273 333.968 413.767C338.447 409.26 341.992 403.913 344.398 398.032C346.805 392.152 348.026 385.854 347.992 379.5V379.11C347.952 372.753 349.171 366.451 351.576 360.565C353.981 354.68 357.526 349.329 362.006 344.819C366.487 340.308 371.815 336.728 377.684 334.284C383.553 331.84 389.848 330.58 396.206 330.576H493.794C500.119 330.583 506.383 329.344 512.228 326.93C518.074 324.515 523.386 320.973 527.863 316.506C532.339 312.038 535.892 306.733 538.317 300.892C540.743 295.052 541.994 288.79 542 282.466V281.687C542 254.916 520.227 233.576 493.405 233.576H493.015C480.139 233.585 467.787 228.482 458.673 219.387C449.559 210.293 444.429 197.952 444.411 185.076L444.801 137.356C445.191 83.4595 401.645 40.0001 347.602 40.0001C321.918 39.9617 297.267 50.1047 279.048 68.2069C260.829 86.309 250.528 110.894 250.403 136.576V185.466C251.182 212.66 229.409 234 202.604 234Z" fill="#F9EBFF"/>
<g clip-path="url(#clip0_4953_17142)">
<path d="M318.008 135.308L393.956 75.624" stroke="black" stroke-miterlimit="10" stroke-dasharray="2 2"/>
<path d="M141.885 75.624H271.209C283.572 75.624 293.605 85.6463 293.605 97.9956V211.575H119.489V97.9956C119.489 85.6463 129.523 75.624 141.885 75.624Z" fill="white" stroke="black" stroke-linecap="round" stroke-linejoin="round"/>
<path d="M270.377 75.624H207.497V218.781H270.377V75.624Z" fill="#A6FFEC"/>
<path d="M137.265 159.606C139.465 159.606 141.249 157.824 141.249 155.626C141.249 153.428 139.465 151.646 137.265 151.646C135.065 151.646 133.281 153.428 133.281 155.626C133.281 157.824 135.065 159.606 137.265 159.606Z" fill="#001E2B" stroke="black" stroke-linecap="round" stroke-linejoin="round"/>
<path d="M293.605 158.97V144.86C293.605 140.548 290.101 137.048 285.784 137.048C281.468 137.048 277.963 140.548 277.963 144.86V177.205C277.963 181.517 274.459 185.018 270.142 185.018C265.826 185.018 262.321 181.517 262.321 177.205V116.153C262.321 111.841 258.817 108.34 254.501 108.34C250.184 108.34 246.68 111.841 246.68 116.153V152.673C246.68 156.985 243.175 160.485 238.859 160.485C234.542 160.485 231.038 156.985 231.038 152.673V136.774C231.038 132.462 227.534 128.962 223.217 128.962C218.9 128.962 215.396 132.462 215.396 136.774V173.529C215.396 177.841 211.892 181.341 207.575 181.341C203.258 181.341 199.754 177.841 199.754 173.529V146.523C199.754 142.211 196.25 138.71 191.933 138.71C187.617 138.71 184.112 142.211 184.112 146.523V173.529C184.112 177.841 180.608 181.341 176.291 181.341C171.975 181.341 168.47 177.841 168.47 173.529V140.548C168.47 136.236 164.966 132.736 160.65 132.736C156.333 132.736 152.829 136.236 152.829 140.548V193.495C152.829 197.807 149.324 201.308 145.008 201.308C140.691 201.308 137.187 197.807 137.187 193.495V156.584" stroke="black" stroke-linecap="round" stroke-linejoin="round"/>
<path d="M137.265 157.885C138.514 157.885 139.526 156.873 139.526 155.626C139.526 154.378 138.514 153.367 137.265 153.367C136.016 153.367 135.004 154.378 135.004 155.626C135.004 156.873 136.016 157.885 137.265 157.885Z" fill="#A6FFEC" stroke="white" stroke-linecap="round" stroke-linejoin="round"/>
<path d="M293.605 211.75H119.489V221.988H293.605V211.75Z" fill="black" stroke="black" stroke-linecap="round" stroke-linejoin="round"/>
<path d="M141.885 75.624H271.209C283.572 75.624 293.605 85.6463 293.605 97.9956V211.575H119.489V97.9956C119.489 85.6463 129.523 75.624 141.885 75.624V75.624Z" stroke="black" stroke-linecap="round" stroke-linejoin="round"/>
<path d="M263.917 82.3706L253.659 69.4346L243.401 56.4888H235.492L222.894 82.3706H233.984V96.7342H252.827V82.3706H263.917Z" fill="black" stroke="black" stroke-linecap="round" stroke-linejoin="round"/>
<path d="M256.008 82.3706L245.75 69.4346L235.492 56.4888L225.243 69.4346L214.985 82.3706H226.075V96.7342H244.918V82.3706H256.008Z" fill="#00ED64" stroke="black" stroke-linecap="round" stroke-linejoin="round"/>
<path d="M319.711 328.312L238.262 264.316C227.768 256.074 227.768 242.698 238.262 234.445L412.74 97.3505C423.233 89.1078 440.255 89.1078 450.748 97.3505L532.197 161.346C542.69 169.589 542.69 182.965 532.197 191.217L357.719 328.312C347.226 336.555 330.204 336.555 319.711 328.312Z" fill="black"/>
<path d="M319.28 314.33L237.831 250.334C227.338 242.091 227.338 228.715 237.831 220.463L412.309 83.3681C422.802 75.1254 439.824 75.1254 450.317 83.3681L531.766 147.364C542.259 155.606 542.259 168.982 531.766 177.235L357.288 314.33C346.795 322.572 329.773 322.572 319.28 314.33Z" fill="white" stroke="black" stroke-linecap="round" stroke-linejoin="round"/>
<path d="M240.033 248.583C230.774 241.309 230.774 229.468 240.033 222.193L414.521 85.1084C423.781 77.8337 438.845 77.8337 448.105 85.1084L529.554 149.104C538.814 156.379 538.814 168.22 529.554 175.494L355.076 312.589C345.816 319.864 330.752 319.864 321.492 312.589L240.043 248.593L240.033 248.583Z" fill="#006CFA"/>
<path d="M411.496 87.4844L240.033 222.193C230.774 229.468 230.774 241.309 240.033 248.583L321.482 312.579C330.742 319.854 345.807 319.854 355.066 312.579L456.758 232.675L411.477 87.4648L411.496 87.4844Z" fill="#A6FFEC"/>
<path d="M240.033 248.583C230.774 241.309 230.774 229.468 240.033 222.193L414.521 85.1084C423.781 77.8337 438.845 77.8337 448.105 85.1084L529.554 149.104C538.814 156.379 538.814 168.22 529.554 175.494L355.076 312.589C345.816 319.864 330.752 319.864 321.492 312.589L240.043 248.593L240.033 248.583Z" stroke="black" stroke-linecap="round" stroke-linejoin="round"/>
<path d="M474.26 128.551C470.873 125.892 470.873 121.58 474.26 118.92L484.919 110.541L497.174 120.172L486.515 128.551C483.128 131.211 477.646 131.211 474.26 128.551Z" fill="black"/>
<path d="M417.82 213.041C447.12 213.041 470.873 194.379 470.873 171.359C470.873 148.338 447.12 129.676 417.82 129.676C388.519 129.676 364.767 148.338 364.767 171.359C364.767 194.379 388.519 213.041 417.82 213.041Z" stroke="black" stroke-linecap="round" stroke-linejoin="round"/>
<path d="M417.82 202.804C439.925 202.804 457.844 188.725 457.844 171.359C457.844 153.992 439.925 139.913 417.82 139.913C395.715 139.913 377.795 153.992 377.795 171.359C377.795 188.725 395.715 202.804 417.82 202.804Z" stroke="black" stroke-linecap="round" stroke-linejoin="round"/>
<path d="M417.82 192.576C432.729 192.576 444.816 183.077 444.816 171.358C444.816 159.64 432.729 150.141 417.82 150.141C402.91 150.141 390.823 159.64 390.823 171.358C390.823 183.077 402.91 192.576 417.82 192.576Z" stroke="black" stroke-linecap="round" stroke-linejoin="round"/>
<path d="M379.968 204.261C393.926 198.374 407.943 205.199 403.92 213.334C402.276 216.649 399.055 216.102 391.381 222.125C385.88 226.446 384.461 232.147 381.622 242.756C380.35 247.527 378.431 256.758 367.605 267.689C360.333 275.032 339.904 292.838 336.85 295.096C324.938 303.936 314.415 302.303 288.828 305.314C280.489 306.292 262.791 308.16 234.072 382.598L185.6 304.209C185.6 304.209 227.543 274.045 238.741 253.023C253.365 225.557 257.104 217.285 276.045 200.222C294.144 183.913 313.887 173.324 322.354 181.772C327.199 186.612 326.964 194.59 326.964 194.59L379.958 204.261H379.968Z" fill="#00ED64" stroke="black" stroke-linecap="round" stroke-linejoin="round"/>
<path d="M326.328 191.295C326.328 191.295 326.484 191.198 326.68 191.041C326.23 188.303 325.124 184.529 322.363 181.772C322.266 181.674 322.168 181.596 322.07 181.508C322.07 181.508 314.64 186.514 307.632 193.095C299.811 200.447 294.682 205.18 294.682 205.18L313.016 202.344C313.016 202.344 326.024 191.413 326.318 191.295H326.328Z" fill="black"/>
<path d="M206.273 265.841C208.299 264.042 211.207 263.661 213.634 264.854C219.791 267.875 232.438 275.952 250.996 296.856C269.565 317.761 276.084 331.265 278.355 337.728C279.255 340.28 278.521 343.115 276.495 344.914L258.749 360.647C255.998 363.082 251.789 362.837 249.342 360.089L187.959 290.98C185.522 288.232 185.767 284.028 188.517 281.584L206.263 265.851L206.273 265.841Z" fill="#006CFA" stroke="black" stroke-linecap="round" stroke-linejoin="round"/>
<path d="M278.365 337.718C279.265 340.27 278.531 343.106 276.505 344.905L258.759 360.637C256.008 363.072 251.799 362.828 249.352 360.08L246.484 356.844L275.536 331.099C276.877 333.807 277.777 336.007 278.374 337.718H278.365Z" fill="black" stroke="black" stroke-linecap="round" stroke-linejoin="round"/>
<path d="M294.682 205.18C294.682 205.18 298.411 205.532 301.504 202.736C319.574 186.407 335.959 172.033 344.084 180.814C352.698 190.112 341.069 198.844 336.273 204.153L329.744 209.257" fill="#00ED64"/>
<path d="M294.682 205.18C294.682 205.18 298.411 205.532 301.504 202.736C319.574 186.407 335.959 172.033 344.084 180.814C352.698 190.112 341.069 198.844 336.273 204.153L329.744 209.257" stroke="black" stroke-linecap="round" stroke-linejoin="round"/>
<path d="M379.968 204.261L368.966 202.256C357.631 209.267 355.497 218.497 354.234 226.456C351.866 241.465 351.396 242.169 352.414 250.392C356.241 253.042 364.757 234.376 375.524 224.325C383.815 216.581 388.601 213.325 402.589 206.069C398.595 202.07 389.267 200.33 379.958 204.261H379.968Z" fill="black"/>
<path d="M315.482 207.625H314.415C314.415 207.625 314.826 207.673 315.482 207.625Z" stroke="black" stroke-linecap="round" stroke-linejoin="round"/>
<path d="M329.196 193.75C320.327 201.103 314.425 207.634 314.425 207.634L332.397 209.257L342.733 197.368C346.218 193.261 348.841 188.401 345.924 183.278C345.924 183.278 335.304 188.695 329.196 193.75Z" fill="black"/>
<path d="M314.415 207.634C314.415 207.634 318.145 207.986 321.238 205.19C339.307 188.861 359.07 175.387 366.891 184.441C375.759 194.708 364.6 201.787 359.814 207.106L351.905 214.479" fill="#00ED64"/>
<path d="M314.415 207.634C314.415 207.634 318.145 207.986 321.238 205.19C339.307 188.861 359.07 175.387 366.891 184.441C375.759 194.708 364.6 201.787 359.814 207.106L351.905 214.479" stroke="black" stroke-linecap="round" stroke-linejoin="round"/>
<path d="M369.142 187.766C369.142 187.766 360.274 191.941 351.043 198.091C341.108 204.711 335.313 210.03 334.501 211.027L356.016 218.409C360.274 213.687 373.341 196.263 369.152 187.766H369.142Z" fill="black"/>
<path d="M334.501 211.027C334.501 211.027 339.013 211.614 342.567 208.573C356.251 196.849 395.414 178.086 406.671 167.946C416.489 159.097 421.745 156.926 426.473 162.373C433.295 170.234 422.391 184.001 411.291 192.831C401.63 200.526 377.785 211.741 367.958 223.846C358.424 235.599 352.58 248.652 352.414 250.383" fill="#00ED64"/>
<path d="M334.501 211.027C334.501 211.027 339.013 211.614 342.567 208.573C356.251 196.849 395.414 178.086 406.671 167.946C416.489 159.097 421.745 156.926 426.473 162.373C433.295 170.234 422.391 184.001 411.291 192.831C401.63 200.526 377.785 211.741 367.958 223.846C358.424 235.599 352.58 248.652 352.414 250.383" stroke="black" stroke-linecap="round" stroke-linejoin="round"/>
<path d="M259.444 364.734C257.692 358.672 251.28 342.949 228.248 317.018C205.216 291.087 190.357 282.855 184.543 280.4C182.938 279.726 181.097 280.019 179.796 281.173L148.972 308.482C124.687 330.003 122.367 367.081 143.784 391.457C165.358 416.009 202.818 418.346 227.279 396.668L258.103 369.359C259.405 368.205 259.914 366.416 259.434 364.744L259.444 364.734Z" fill="white" stroke="black" stroke-linecap="round" stroke-linejoin="round"/>
<path d="M259.444 364.734C259.385 364.539 259.326 364.324 259.258 364.099C259.238 364.03 259.209 363.962 259.189 363.893C259.14 363.737 259.091 363.571 259.033 363.404C259.003 363.316 258.974 363.228 258.945 363.14C258.886 362.974 258.827 362.808 258.768 362.632C258.739 362.534 258.7 362.436 258.661 362.339C258.602 362.163 258.533 361.977 258.465 361.791C258.426 361.684 258.387 361.576 258.347 361.478C258.279 361.283 258.201 361.087 258.122 360.892C258.083 360.784 258.034 360.676 257.995 360.559C257.907 360.344 257.819 360.129 257.731 359.904C257.692 359.796 257.643 359.689 257.604 359.581C257.496 359.337 257.388 359.073 257.28 358.819C257.241 358.721 257.202 358.633 257.163 358.535C257.026 358.232 256.889 357.909 256.742 357.587C256.713 357.528 256.693 357.479 256.664 357.42C256.125 356.257 255.509 354.986 254.794 353.617C254.745 353.529 254.696 353.431 254.647 353.343C254.461 352.981 254.266 352.61 254.06 352.238C253.992 352.111 253.923 351.984 253.855 351.857C253.669 351.505 253.473 351.153 253.267 350.791C253.189 350.644 253.101 350.498 253.013 350.351C252.817 349.999 252.611 349.647 252.396 349.285C252.298 349.129 252.21 348.963 252.112 348.796C251.897 348.435 251.682 348.063 251.456 347.692C251.359 347.516 251.251 347.349 251.143 347.173C250.908 346.792 250.673 346.401 250.429 346.01C250.35 345.892 250.282 345.775 250.203 345.658L177.094 410.445C194.439 413.731 213.057 409.262 227.289 396.649L258.112 369.33C259.414 368.176 259.923 366.387 259.444 364.715V364.734Z" fill="black"/>
<path d="M407.317 250.52H575.511V251.39C575.511 268.589 561.533 282.561 544.305 282.561H438.512C421.295 282.561 407.307 268.599 407.307 251.39V250.52H407.317Z" fill="black" stroke="black" stroke-miterlimit="10"/>
<path d="M554.514 228.959H428.313C416.717 228.959 407.317 238.35 407.317 249.933V251.096C407.317 262.68 416.717 272.07 428.313 272.07H554.514C566.11 272.07 575.51 262.68 575.51 251.096V249.933C575.51 238.35 566.11 228.959 554.514 228.959Z" fill="white" stroke="black" stroke-miterlimit="10"/>
<path d="M428.538 261.441C434.577 261.441 439.472 256.551 439.472 250.519C439.472 244.488 434.577 239.598 428.538 239.598C422.5 239.598 417.604 244.488 417.604 250.519C417.604 256.551 422.5 261.441 428.538 261.441Z" fill="#00ED64" stroke="black" stroke-miterlimit="10"/>
<path d="M521.88 248.427H461.515C460.391 248.427 459.479 249.338 459.479 250.461V250.569C459.479 251.692 460.391 252.602 461.515 252.602H521.88C523.004 252.602 523.916 251.692 523.916 250.569V250.461C523.916 249.338 523.004 248.427 521.88 248.427Z" fill="#006CFA" stroke="black" stroke-miterlimit="10"/>
<path d="M548.475 248.427H530.876C529.751 248.427 528.84 249.338 528.84 250.461V250.569C528.84 251.692 529.751 252.602 530.876 252.602H548.475C549.6 252.602 550.511 251.692 550.511 250.569V250.461C550.511 249.338 549.6 248.427 548.475 248.427Z" fill="#006CFA" stroke="black" stroke-miterlimit="10"/>
<path d="M328.726 342.724C333.689 325.75 349.379 313.352 367.977 313.352C383.061 313.352 396.246 321.516 403.333 333.66C404.508 333.523 405.712 333.445 406.925 333.445C423.947 333.445 437.749 347.232 437.749 364.235C437.749 381.239 423.947 395.026 406.925 395.026H328.892C314.425 395.026 302.708 383.312 302.708 368.87C302.708 354.477 314.347 342.802 328.736 342.714L328.726 342.724Z" fill="black"/>
<path d="M328.726 332.888C333.689 315.913 349.379 303.515 367.977 303.515C383.061 303.515 396.246 311.68 403.333 323.824C404.508 323.687 405.712 323.609 406.925 323.609C423.947 323.609 437.749 337.395 437.749 354.399C437.749 371.402 423.947 385.189 406.925 385.189H328.892C314.425 385.189 302.708 373.475 302.708 359.034C302.708 344.641 314.347 332.966 328.736 332.878L328.726 332.888Z" fill="white" stroke="black" stroke-miterlimit="10"/>
<path d="M439.472 312.794V328.224L452.843 335.938L466.213 328.224V312.794L452.843 305.08L439.472 312.794Z" fill="white" stroke="black" stroke-linejoin="round"/>
<path d="M466.213 328.224V312.794L452.843 320.509V335.938L466.213 328.224Z" fill="black" stroke="black" stroke-linejoin="round"/>
<path d="M439.472 312.794L452.843 320.509" stroke="black" stroke-linejoin="round"/>
<path d="M412.72 338.06V353.49L426.091 361.204L437.739 354.487C437.739 354.487 437.739 354.438 437.739 354.419C437.739 344.729 433.256 336.095 426.257 330.453L426.091 330.355L412.72 338.07V338.06Z" fill="black" stroke="black" stroke-linejoin="round"/>
<path d="M152.31 235.139L163.518 242.336L174.725 249.542L162.881 255.633L151.028 261.725L151.674 248.427L152.31 235.139Z" fill="white" stroke="black" stroke-linecap="round" stroke-linejoin="round"/>
<path d="M159.162 248.417L151.028 261.725L174.725 249.542L159.162 248.417Z" fill="black"/>
<path d="M159.162 248.417L152.31 235.139" stroke="black" stroke-linecap="round" stroke-linejoin="round"/>
</g>
<defs>
<clipPath id="clip0_4953_17142">
<rect width="457" height="356" fill="white" transform="translate(119 56)"/>
</clipPath>
</defs>
</svg>
