<?xml version="1.0" encoding="utf-8"?>
<svg xmlns="http://www.w3.org/2000/svg" width="696" height="468" viewBox="0 0 696 468" fill="none">
<path d="M524.15 223.18L510.35 219.08L499.9 228.98L503.25 242.98L517.05 247.08L527.5 237.18L524.15 223.18Z" fill="white" stroke="black" stroke-linecap="round" stroke-linejoin="round"/>
<path d="M503.25 242.98L517.05 247.08L513.7 233.08L499.9 228.98L503.25 242.98Z" fill="black" stroke="black" stroke-linecap="round" stroke-linejoin="round"/>
<path d="M524.15 223.18L513.7 233.08" stroke="black" stroke-linecap="round" stroke-linejoin="round"/>
<path d="M135.4 108.59C144.47 104.44 154.11 101.41 164.13 99.6699" stroke="black" stroke-linecap="round" stroke-linejoin="round"/>
<path d="M67.6604 231.12C66.3404 221.14 66.2804 210.83 67.6504 200.38C72.4104 163.87 93.4404 133.47 122.49 115.51" stroke="black" stroke-linecap="round" stroke-linejoin="round"/>
<path d="M206.05 88.4601L195.99 99.0201L185.92 109.58L181.81 95.5801L177.69 81.5801L191.87 85.0201L206.05 88.4601Z" fill="white" stroke="black" stroke-linecap="round" stroke-linejoin="round"/>
<path d="M190.34 93.0801L177.69 81.5801L185.92 109.58L190.34 93.0801Z" fill="black"/>
<path d="M188.431 93.64L206.051 88.46" stroke="black" stroke-linecap="round" stroke-linejoin="round"/>
<path d="M411.03 298.06L147.16 383.69C135.78 387.38 124.11 378.9 124.11 366.94V189.12C124.11 177.42 131.64 167.06 142.77 163.45L406.64 77.8204C418.02 74.1304 429.69 82.6104 429.69 94.5704V272.39C429.69 284.09 422.16 294.45 411.03 298.06Z" fill="#E3FCF7" stroke="black" stroke-linecap="round" stroke-linejoin="round"/>
<path d="M157.431 297.58L233.601 272.87" stroke="black" stroke-linecap="round" stroke-linejoin="round"/>
<path d="M157.431 317.42L233.601 292.71" stroke="black" stroke-linecap="round" stroke-linejoin="round"/>
<path d="M295.82 308.45C269.31 303.89 250.28 283.21 250.28 240.24" stroke="black" stroke-linecap="round" stroke-linejoin="round"/>
<path d="M216.363 242.363C229.989 224.771 230.674 202.486 217.894 192.587C205.114 182.688 183.708 188.924 170.082 206.516C156.456 224.107 155.77 246.393 168.551 256.292C181.331 266.191 202.737 259.955 216.363 242.363Z" fill="white" stroke="black" stroke-linecap="round" stroke-linejoin="round"/>
<path d="M200.601 222.447C204.95 216.832 205.17 209.719 201.092 206.56C197.014 203.402 190.182 205.393 185.833 211.008C181.484 216.623 181.264 223.735 185.342 226.894C189.42 230.053 196.252 228.062 200.601 222.447Z" fill="black" stroke="black" stroke-linecap="round" stroke-linejoin="round"/>
<path d="M193.22 259.28C200.5 256.92 207.23 252.35 212.75 246.53C212.39 235.83 203.8 229.96 193.22 233.39C182.64 236.82 174.04 248.28 173.69 259.21C179.21 261.45 185.94 261.64 193.22 259.28Z" fill="black" stroke="black" stroke-linecap="round" stroke-linejoin="round"/>
<path d="M335.62 274.02C330.06 279.84 324.02 284.43 317.69 287.39C290.45 300.13 268.36 277.65 268.36 237.18C268.36 196.71 290.45 153.57 317.69 140.83C324.56 137.62 330.88 136.63 337.03 137.63C349.04 139.76 357.54 159.61 348.11 205.97C334.79 271.42 292.86 271.52 290.29 243.56C287.72 215.61 315.12 190.05 310.21 173.21C305.3 156.36 332.91 157.3 330.1 178.12C327.29 198.94 306.94 228.19 317.7 233.81" stroke="black" stroke-linecap="round" stroke-linejoin="round"/>
<path d="M367.031 191.04C367.031 200.95 365.711 211.02 363.301 220.77" stroke="black" stroke-linecap="round" stroke-linejoin="round"/>
<path d="M258.061 191.081C263.371 173.891 271.951 158.181 282.361 146.771" stroke="black" stroke-linecap="round" stroke-linejoin="round"/>
<path d="M380.04 211.551C380.04 211.551 382.33 202.211 383.38 172.761" stroke="black" stroke-linecap="round" stroke-linejoin="round"/>
<path d="M410.049 310.02C406.899 324.41 388.699 322.16 388.699 322.16V286.09L260.539 327.68V386.12L388.699 344.53V336.11C413.239 332.99 410.049 310.03 410.049 310.03V310.02Z" fill="#B1FF05" stroke="black" stroke-linecap="round" stroke-linejoin="round"/>
<path d="M239.52 404.56V439.43C239.52 439.43 225.62 450.29 215.77 435.75C215.77 435.75 218.08 458.65 239.52 452.59V463L367.68 421.41V362.97L239.52 404.56Z" fill="#00D2FF" stroke="black" stroke-linecap="round" stroke-linejoin="round"/>
<path d="M274.119 350.12C274.119 350.12 288.789 334.34 297.319 340.9C305.859 347.45 294.969 359.06 290.479 357.77C282.849 354.97 295.919 336.67 314.779 331.36C314.779 331.36 323.499 328.97 327.299 332.54C334.919 340.14 324.949 350.7 320.459 349.41C310.949 346.7 330.419 327.57 346.909 322.32C346.909 322.32 355.209 319.59 358.809 323.75C366.429 331.35 356.459 341.91 351.969 340.62C344.909 339.03 352.779 322.66 375.919 314.07" stroke="black" stroke-linecap="round" stroke-linejoin="round"/>
<path d="M271.43 428.9C274.451 428.9 276.9 426.451 276.9 423.43C276.9 420.409 274.451 417.96 271.43 417.96C268.409 417.96 265.96 420.409 265.96 423.43C265.96 426.451 268.409 428.9 271.43 428.9Z" fill="black" stroke="black" stroke-linecap="round" stroke-linejoin="round"/>
<path d="M303.69 418.461C306.711 418.461 309.16 416.012 309.16 412.991C309.16 409.97 306.711 407.521 303.69 407.521C300.669 407.521 298.22 409.97 298.22 412.991C298.22 416.012 300.669 418.461 303.69 418.461Z" fill="black" stroke="black" stroke-linecap="round" stroke-linejoin="round"/>
<path d="M335.96 408.01C338.981 408.01 341.43 405.561 341.43 402.54C341.43 399.519 338.981 397.07 335.96 397.07C332.939 397.07 330.49 399.519 330.49 402.54C330.49 405.561 332.939 408.01 335.96 408.01Z" fill="black" stroke="black" stroke-linecap="round" stroke-linejoin="round"/>
<path d="M558.77 432.7L565.43 443.86C572.17 455.17 585.37 460.94 598.25 458.21C611.61 455.38 622.489 445.71 626.859 432.76L627.75 430.11C631.74 418.27 628.14 405.2 618.65 397.07L609.99 389.65L558.78 432.7H558.77Z" fill="#00684A" stroke="black" stroke-linecap="round" stroke-linejoin="round"/>
<path d="M606.479 453.36C593.599 456.09 580.409 450.32 573.659 439.01L567 427.85L611.2 390.7L609.979 389.66L558.77 432.71L565.43 443.87C572.17 455.18 585.37 460.95 598.25 458.22C604.01 457 609.3 454.5 613.82 451.03C611.48 452.04 609.029 452.83 606.479 453.37V453.36Z" fill="black" stroke="black" stroke-linecap="round" stroke-linejoin="round"/>
<path d="M441.07 220.13C449.59 227.92 455.6 238.05 458.36 249.26C461.12 260.47 460.49 272.24 456.55 283.08C452.62 293.93 445.55 303.36 436.26 310.2C426.96 317.03 415.85 320.96 404.32 321.47C392.79 321.99 381.37 319.07 371.5 313.09C361.63 307.11 353.75 298.35 348.87 287.89C343.98 277.44 342.31 265.77 344.05 254.36C345.8 242.95 350.88 232.32 358.67 223.81C369.11 212.4 383.66 205.6 399.11 204.91C414.56 204.22 429.66 209.69 441.08 220.12L441.07 220.13Z" fill="white" stroke="black" stroke-linecap="round" stroke-linejoin="round"/>
<path d="M591.502 419.613C605.643 407.726 613.918 394.295 609.984 389.615C606.05 384.935 591.397 390.778 577.256 402.665C563.114 414.552 554.839 427.982 558.773 432.662C562.707 437.342 577.36 431.5 591.502 419.613Z" fill="black" stroke="black" stroke-linecap="round" stroke-linejoin="round"/>
<path d="M380.21 239.31C379.78 236.99 379.81 234.61 380.31 232.3C380.8 229.99 381.75 227.8 383.08 225.86C384.42 223.91 386.13 222.25 388.11 220.97C390.09 219.68 392.3 218.8 394.63 218.37C396.95 217.94 399.34 217.97 401.64 218.47C403.95 218.96 406.14 219.91 408.08 221.24C410.03 222.58 411.69 224.29 412.97 226.27C414.26 228.25 415.14 230.46 415.57 232.79L419.24 252.61C419.42 253.6 417.84 254.72 415.71 255.12C413.58 255.51 411.7 255.03 411.52 254.04L407.85 234.22C407.36 231.58 405.85 229.24 403.63 227.72C401.42 226.2 398.69 225.62 396.05 226.11C393.41 226.6 391.07 228.11 389.55 230.33C388.03 232.54 387.45 235.27 387.94 237.91L391.61 257.73C391.79 258.72 390.21 259.84 388.08 260.24C385.95 260.63 384.07 260.15 383.89 259.16L380.22 239.34H380.21V239.31Z" fill="#00ED64" stroke="black" stroke-linecap="round" stroke-linejoin="round"/>
<path d="M375.08 246.44L422.91 237.6L431.4 283.51L383.57 292.35L375.08 246.44Z" fill="#00ED64" stroke="black" stroke-linecap="round" stroke-linejoin="round"/>
<path d="M400.42 269.539L401.68 276.339L408.77 275.029L407.51 268.229C408.8 267.179 409.71 265.719 410.09 264.089C410.47 262.459 410.29 260.759 409.59 259.239C408.89 257.719 407.71 256.489 406.22 255.719C404.73 254.949 403.04 254.699 401.4 254.999C399.76 255.309 398.26 256.149 397.16 257.389C396.05 258.639 395.38 260.219 395.27 261.879C395.16 263.549 395.61 265.199 396.54 266.579C397.47 267.959 398.84 268.999 400.43 269.519L400.42 269.539Z" fill="white" stroke="black" stroke-linecap="round" stroke-linejoin="round"/>
<path d="M406.849 261.65C407.089 262.98 406.979 264.34 406.509 265.61C406.039 266.88 405.249 267.99 404.199 268.84L405.459 275.64L408.769 275.03L407.509 268.23C408.799 267.18 409.699 265.72 410.069 264.1C410.439 262.48 410.259 260.77 409.569 259.26C408.869 257.75 407.689 256.51 406.209 255.74C404.729 254.97 403.039 254.71 401.399 255.01C400.849 255.12 400.299 255.28 399.779 255.5C401.479 255.57 403.099 256.22 404.389 257.34C405.669 258.45 406.539 259.97 406.849 261.64V261.65Z" fill="black"/>
<path d="M409.929 239.79C408.959 234.15 407.589 227.78 399.739 226.09C405.269 227.98 406.719 231.03 407.589 235.9C407.939 237.84 408.349 240.08 408.349 240.08L409.939 239.79H409.929Z" fill="black" stroke="black" stroke-linecap="round" stroke-linejoin="round"/>
<path d="M431.4 283.5L427.79 288.36L379.96 297.21L383.57 292.35L431.4 283.51V283.5Z" fill="black" stroke="black" stroke-linecap="round" stroke-linejoin="round"/>
<path d="M374.99 246.49L383.48 292.4L379.96 297.21L371.47 251.3L374.99 246.49Z" fill="black" stroke="black" stroke-linecap="round" stroke-linejoin="round"/>
<path d="M564 434.1C570.5 433.58 581.07 428.14 591.37 419.48C601.29 411.14 608.32 402.04 610.28 395.74C590.43 373.09 543.94 301.89 529.58 302.5C524.12 302.73 501.74 301.18 493.35 298.73L466.99 346.75L550.22 411.93C550.22 411.93 557.68 417.01 564 434.09V434.1Z" fill="#E9FF99" stroke="black" stroke-linecap="round" stroke-linejoin="round"/>
<path d="M492.17 371.46C494 390.69 474.23 391.28 471.16 377.6C470.42 375.69 468.66 368.19 462.35 357.08C456.04 345.97 456.76 339.58 456.76 339.58L496.64 363.18L492.18 371.46H492.17Z" fill="#E9FF99" stroke="black" stroke-linecap="round" stroke-linejoin="round"/>
<path d="M467.01 333.48C467.86 357.65 455.38 364.45 445.72 364.54C440.87 364.58 437.18 360.22 437.74 355.39C438.32 350.44 439.96 343.87 440.21 336.51C440.65 323.48 445.04 310.72 445.04 310.72C445.04 310.72 452.25 286.52 466.05 286.73C474.23 286.86 512.45 310.64 519.22 309.87" fill="#E9FF99"/>
<path d="M467.01 333.48C467.86 357.65 455.38 364.45 445.72 364.54C440.87 364.58 437.18 360.22 437.74 355.39C438.32 350.44 439.96 343.87 440.21 336.51C440.65 323.48 445.04 310.72 445.04 310.72C445.04 310.72 452.25 286.52 466.05 286.73C474.23 286.86 512.45 310.64 519.22 309.87" stroke="black" stroke-linecap="round" stroke-linejoin="round"/>
<path d="M532.939 362.74C532.939 362.74 535.649 365.3 529.279 372.24C522.919 379.18 519.999 376.49 519.999 376.49L449.089 315.33C449.089 315.33 447.309 312.2 452.989 306.13C458.669 300.06 462.059 301.75 462.059 301.75L532.929 362.74H532.939Z" fill="#00ED64" stroke="black" stroke-linecap="round" stroke-linejoin="round"/>
<path d="M464.77 302.72C464.77 302.72 466.46 306.22 460.39 312.92C454.32 319.61 450.63 318.16 450.63 318.16L438.35 307.01C441.25 305.02 443.86 302.64 446.1 299.93C448.58 297.43 450.73 294.62 452.49 291.57L464.77 302.72Z" fill="#00ED64" stroke="black" stroke-linecap="round" stroke-linejoin="round"/>
<path d="M353.73 219.29C345.04 228.8 339.36 240.67 337.41 253.41C335.46 266.15 337.34 279.17 342.8 290.85C348.26 302.52 357.05 312.31 368.08 318.98C379.1 325.65 391.86 328.91 404.73 328.33C417.6 327.75 430.01 323.37 440.39 315.74C450.77 308.11 458.66 297.57 463.05 285.46C467.44 273.35 468.15 260.2 465.07 247.69C461.99 235.18 455.27 223.86 445.76 215.17C433 203.53 416.15 197.43 398.89 198.2C381.64 198.97 365.4 206.56 353.73 219.29ZM441.07 220.13C449.59 227.92 455.6 238.05 458.36 249.26C461.12 260.47 460.49 272.24 456.55 283.08C452.62 293.93 445.55 303.36 436.26 310.2C426.96 317.03 415.85 320.96 404.32 321.47C392.79 321.99 381.37 319.07 371.5 313.09C361.63 307.11 353.75 298.35 348.87 287.89C343.98 277.44 342.31 265.77 344.05 254.36C345.8 242.95 350.88 232.32 358.67 223.81C369.11 212.4 383.66 205.6 399.11 204.91C414.56 204.22 429.66 209.69 441.08 220.12L441.07 220.13Z" fill="black" stroke="black" stroke-linecap="round" stroke-linejoin="round"/>
<path d="M352.19 212.57C343.5 222.08 337.82 233.95 335.87 246.69C333.92 259.43 335.8 272.45 341.26 284.13C346.72 295.8 355.51 305.59 366.54 312.26C377.56 318.93 390.32 322.19 403.19 321.61C416.06 321.03 428.47 316.65 438.85 309.02C449.23 301.39 457.12 290.85 461.51 278.74C465.9 266.63 466.61 253.48 463.53 240.97C460.45 228.46 453.73 217.14 444.22 208.45C431.46 196.81 414.61 190.71 397.35 191.48C380.1 192.25 363.86 199.84 352.19 212.57ZM439.53 213.41C448.05 221.2 454.06 231.33 456.82 242.54C459.58 253.75 458.95 265.52 455.01 276.36C451.08 287.21 444.01 296.64 434.72 303.48C425.42 310.31 414.31 314.24 402.78 314.75C391.25 315.27 379.83 312.35 369.96 306.37C360.09 300.39 352.21 291.63 347.33 281.17C342.44 270.72 340.77 259.05 342.51 247.64C344.26 236.23 349.34 225.6 357.13 217.09C367.57 205.68 382.12 198.88 397.57 198.19C413.02 197.5 428.12 202.97 439.54 213.4L439.53 213.41Z" fill="#00ED64" stroke="black" stroke-linecap="round" stroke-linejoin="round"/>
<path d="M445.66 303.39L458.43 315.13C458.43 315.13 453.88 319.18 450.64 318.15L439.92 308.41L445.66 303.38V303.39Z" fill="black"/>
<path d="M460.26 313.12L528.52 372.76C528.52 372.76 523.22 378.93 519.41 376.97L452.05 318.18C452.22 318.14 455.86 317.84 460.26 313.12Z" fill="black"/>
<path d="M485.61 356.66L470.34 347.63L463.43 352.91L461.8 356.08C461.9 356.26 462 356.45 462.1 356.63C465.05 358.25 482.06 367.72 492.14 376.46C492.33 374.96 492.35 373.3 492.18 371.47L494.64 366.91L485.62 356.67L485.61 356.66Z" fill="black" stroke="black" stroke-linecap="round" stroke-linejoin="round"/>
<path d="M560.27 409.57C560.27 409.57 540.95 416.34 519.82 401.78C513.1 397.15 507.58 391.02 503.14 384.17C498.51 377.02 492.49 370.87 485.27 366.28C477.4 361.27 467.78 355.52 459.62 351.72C442.32 343.69 441.07 317.58 479.84 328.78C499.23 334.38 514.16 342.8 521.9 343.35" fill="#E9FF99"/>
<path d="M560.27 409.57C560.27 409.57 540.95 416.34 519.82 401.78C513.1 397.15 507.58 391.02 503.14 384.17C498.51 377.02 492.49 370.87 485.27 366.28C477.4 361.27 467.78 355.52 459.62 351.72C442.32 343.69 441.07 317.58 479.84 328.78C499.23 334.38 514.16 342.8 521.9 343.35" stroke="black" stroke-linecap="round" stroke-linejoin="round"/>
<path d="M460.14 137.86L361.44 169.89C353.87 172.35 346.11 166.7 346.11 158.74V55.1598C346.11 47.1598 351.26 40.0798 358.87 37.6098L457.57 5.57977C465.14 3.11977 472.9 8.76977 472.9 16.7298V120.32C472.9 128.32 467.75 135.4 460.14 137.87V137.86Z" fill="white" stroke="black" stroke-linecap="round" stroke-linejoin="round"/>
<path d="M463.711 126.02L355.301 161.2V49.4495L463.711 14.2695V126.02Z" fill="#00ED64" stroke="black" stroke-linecap="round" stroke-linejoin="round"/>
<path d="M355.301 52.2402L463.711 101.22V122.93L355.301 73.9502V52.2402Z" fill="#E3FCF7" stroke="black" stroke-linecap="round" stroke-linejoin="round"/>
<path d="M409.511 143.56L374.631 154.88V43.27L409.511 31.96V143.56Z" fill="#E3FCF7" stroke="black" stroke-linecap="round" stroke-linejoin="round"/>
<path d="M405.751 92.3397L378.391 101.22V42.0597L405.751 33.1797V92.3397Z" fill="#00D2FF" stroke="black" stroke-linecap="round" stroke-linejoin="round"/>
<path d="M355.301 73.9502V161.2L374.631 154.88V82.6802L355.301 73.9502Z" fill="#F9EBFF" stroke="black" stroke-linecap="round" stroke-linejoin="round"/>
<path d="M407.882 120.66C417.186 108.649 417.656 93.4336 408.932 86.6765C400.208 79.9193 385.594 84.1789 376.29 96.1905C366.987 108.202 366.516 123.417 375.24 130.174C383.964 136.931 398.578 132.672 407.882 120.66Z" fill="#00D2FF" stroke="black" stroke-linecap="round" stroke-linejoin="round"/>
<path d="M463.711 14.2695L418.851 28.8295C417.991 32.4095 417.521 36.0295 417.521 39.6095C417.521 61.4895 434.731 73.6395 455.951 66.7495C458.611 65.8895 461.201 64.7695 463.711 63.4195V14.2695Z" fill="#E3FCF7" stroke="black" stroke-linecap="round" stroke-linejoin="round"/>
<path d="M463.711 14.2695L431.891 24.5995C430.731 28.0195 430.091 31.5495 430.091 35.0195C430.091 49.9595 441.841 58.2495 456.331 53.5495C458.891 52.7195 461.371 51.5295 463.711 50.0695V14.2695Z" fill="#00ED64" stroke="black" stroke-linecap="round" stroke-linejoin="round"/>
<path d="M392.14 92.3398L382.49 124.46L392.14 113.47L401.65 117.81L392.14 92.3398Z" fill="#F9EBFF" stroke="black" stroke-linecap="round" stroke-linejoin="round"/>
<path d="M223.57 146.86L229.88 163.36L241.02 149.65L252.15 135.93L236.09 133.37L220.36 138.47L223.57 146.86Z" fill="black" stroke="black" stroke-linecap="round" stroke-linejoin="round"/>
</svg>